<svg xmlns="http://www.w3.org/2000/svg" xmlns:xlink="http://www.w3.org/1999/xlink" width="1200" zoomAndPan="magnify" viewBox="0 0 900 899.99999" height="1200" preserveAspectRatio="xMidYMid meet" version="1.0"><path fill="#1e2b63" d="M 99.125 529.273438 L 99.753906 571.503906 C 99.773438 572.753906 99.800781 574.007812 99.828125 575.257812 C 99.894531 578.015625 99.953125 580.621094 99.90625 583.246094 C 99.792969 589.683594 102.949219 594.25 109.035156 596.457031 C 116.726562 599.234375 126.96875 602.546875 138.050781 603.523438 C 152.070312 604.753906 167.269531 604.472656 185.878906 602.625 C 192.5625 601.964844 200.417969 600.898438 207.984375 598.03125 C 215.453125 595.207031 220.183594 590.265625 222.445312 582.929688 C 224.601562 575.929688 227.121094 568.851562 229.5625 562.003906 C 230.136719 560.378906 230.714844 558.757812 231.285156 557.148438 C 231.59375 556.28125 231.976562 555.386719 232.378906 554.503906 C 243.789062 553.910156 275.734375 553.855469 292.171875 554.304688 C 289.433594 560.179688 289.992188 566.410156 293.839844 572.101562 C 297.785156 577.929688 303.445312 581.398438 307.929688 583.769531 C 317.386719 588.765625 327.910156 592.523438 342.050781 595.949219 C 366.167969 601.796875 392.214844 605.179688 424.019531 606.59375 C 449.957031 607.742188 473.003906 607.414062 494.476562 605.59375 C 512.699219 604.046875 526.636719 602.191406 539.660156 599.585938 C 549.050781 597.703125 560.085938 595.097656 570.777344 590.011719 C 576.410156 587.332031 580.886719 584.519531 584.472656 581.40625 C 590.265625 576.371094 591.632812 571.15625 591.757812 567.671875 C 591.878906 564.246094 590.925781 559.097656 585.835938 553.632812 C 587.59375 553.644531 589.335938 553.710938 591.082031 553.875 C 591.453125 555.242188 591.804688 556.5625 592.125 557.898438 C 595.675781 572.644531 604.558594 582.652344 618.527344 587.644531 C 623.074219 589.277344 627.742188 590.785156 631.769531 592.074219 C 633.03125 592.472656 634.261719 592.804688 635.457031 593.121094 C 636.890625 593.503906 638.25 593.867188 639.492188 594.3125 C 642.117188 595.253906 644.308594 596.210938 646.203125 597.246094 C 647.972656 598.210938 648.46875 599.183594 648.179688 601.089844 C 648.121094 601.453125 648.007812 601.921875 647.890625 602.417969 C 647.636719 603.453125 647.324219 604.742188 647.25 606.199219 C 647.183594 607.515625 647.101562 608.832031 647.015625 610.148438 C 646.746094 614.417969 646.464844 618.832031 646.742188 623.328125 C 647.425781 634.230469 653.777344 641.960938 664.617188 645.09375 C 668.796875 646.308594 673.1875 647.050781 677.664062 647.289062 C 691.390625 648.019531 705.226562 648.515625 718.125 648.941406 C 725.804688 649.203125 732.621094 650.367188 738.953125 652.5 C 741.949219 653.511719 744.902344 654.929688 747.472656 656.597656 C 747.605469 656.6875 747.726562 656.769531 747.828125 656.84375 C 747.742188 656.933594 747.644531 657.027344 747.53125 657.132812 C 745.917969 658.632812 744.128906 660.03125 742.234375 661.515625 C 741.503906 662.089844 740.769531 662.660156 740.035156 663.25 C 732.433594 669.367188 728.195312 677.027344 727.441406 686.019531 C 727.421875 686.246094 727.390625 686.492188 727.351562 686.753906 C 726.28125 687.085938 725.261719 687.382812 724.300781 687.585938 C 718.222656 688.832031 712.101562 691.25 705.585938 694.980469 C 696.707031 700.054688 688.683594 706.894531 681.742188 715.304688 C 664.996094 735.574219 656.03125 758.816406 655.097656 784.386719 C 654.566406 799.160156 657.289062 811.761719 663.425781 822.90625 C 666.152344 827.851562 669.066406 833.105469 672.070312 838.21875 C 679.425781 850.703125 689.804688 858.492188 702.910156 861.371094 C 706.316406 862.121094 709.773438 862.496094 713.273438 862.496094 C 719.539062 862.496094 725.9375 861.292969 732.382812 858.894531 C 741.503906 855.503906 749.511719 850.660156 756.1875 844.5 C 782.253906 820.488281 794.855469 790.644531 793.648438 755.800781 C 793.277344 745 790.394531 734.675781 785.066406 725.105469 C 782.96875 721.34375 780.800781 717.5625 778.707031 713.902344 L 777.335938 711.507812 C 769.882812 698.5 759.367188 690.40625 746.082031 687.457031 C 745.75 687.382812 745.402344 687.277344 745.035156 687.152344 C 745.273438 682.484375 746.730469 680.421875 750.246094 677.324219 C 751.476562 676.230469 752.789062 675.183594 754.179688 674.078125 C 755.9375 672.675781 757.753906 671.222656 759.503906 669.597656 C 764.003906 665.417969 766.144531 661.179688 766.050781 656.648438 C 765.949219 651.898438 763.410156 647.464844 758.28125 643.085938 C 756.457031 641.527344 754.691406 640.402344 752.898438 639.652344 C 752.234375 639.371094 751.5625 639.085938 750.894531 638.800781 C 747.5 637.351562 743.992188 635.855469 740.1875 634.832031 C 731.992188 632.644531 722.898438 631.492188 711.570312 631.199219 C 708.671875 631.125 705.773438 631.066406 702.875 631.007812 C 696.433594 630.878906 689.773438 630.746094 683.277344 630.421875 C 678.425781 630.179688 673.886719 629.578125 669.789062 628.632812 C 665.953125 627.742188 664.039062 625.519531 663.753906 621.640625 C 663.523438 618.421875 663.789062 615.035156 664.070312 611.449219 C 664.136719 610.5625 664.207031 609.671875 664.269531 608.78125 C 664.34375 607.710938 664.554688 606.53125 664.773438 605.28125 C 664.972656 604.171875 665.175781 603.027344 665.3125 601.808594 C 666.226562 593.9375 662.769531 587.0625 655.828125 582.945312 C 651.972656 580.65625 647.820312 579.070312 643.898438 577.699219 C 641.300781 576.792969 638.679688 576.015625 636.148438 575.265625 C 632.816406 574.277344 629.671875 573.34375 626.65625 572.164062 C 622.597656 570.578125 618.972656 568.648438 615.878906 566.425781 C 612.089844 563.707031 609.589844 559.125 608.792969 553.679688 C 609.015625 553.671875 609.242188 553.664062 609.464844 553.660156 C 612.609375 553.566406 615.578125 553.476562 618.433594 553.695312 C 625.226562 554.234375 630.753906 551.785156 635.347656 546.199219 C 640.097656 540.429688 645.113281 534.664062 649.960938 529.085938 C 652.039062 526.695312 654.113281 524.308594 656.175781 521.910156 L 663.648438 513.230469 C 669.824219 506.054688 676.164062 498.683594 682.484375 491.375 L 682.523438 492.855469 C 682.804688 503.195312 683.09375 513.890625 683.246094 524.390625 C 683.410156 535.539062 683.535156 546.890625 683.65625 557.863281 C 683.773438 568.851562 683.898438 580.210938 684.0625 591.386719 C 684.074219 592.046875 684.070312 592.710938 684.070312 593.375 C 684.066406 597.660156 684.0625 602.511719 686.46875 607.839844 C 687.066406 609.15625 688.125 610.207031 689.445312 610.796875 C 701.292969 616.066406 713.128906 619.097656 724.613281 619.808594 C 742.371094 620.914062 760.332031 620.207031 778 617.707031 C 781.671875 617.1875 785.117188 616.175781 788.449219 615.195312 C 789.359375 614.929688 790.265625 614.664062 791.1875 614.40625 C 799.070312 612.179688 804.1875 607.085938 806.835938 598.828125 C 811.546875 584.132812 816.976562 568.304688 823.433594 550.453125 C 826.085938 543.128906 827.210938 535.933594 826.867188 528.445312 C 825.765625 504.78125 824.714844 479.601562 823.65625 451.46875 C 822.6875 425.800781 821.746094 399.695312 820.839844 374.449219 C 820.34375 360.683594 819.851562 346.917969 819.347656 333.15625 L 819.339844 332.960938 C 819.261719 330.730469 819.179688 328.425781 818.785156 326.035156 C 818.054688 321.523438 814.691406 318.171875 810.191406 317.488281 C 807.433594 317.082031 804.785156 317.023438 802.085938 316.996094 C 794.140625 316.921875 786.195312 316.863281 778.25 316.796875 C 764.402344 316.6875 750.085938 316.574219 736.015625 316.40625 C 735.167969 316.398438 734.375 316.425781 733.609375 316.457031 C 732.433594 316.5 731.527344 316.527344 730.78125 316.449219 C 730.347656 313.925781 730.269531 311.160156 730.1875 308.273438 C 730.160156 307.328125 730.136719 306.386719 730.097656 305.4375 C 729.496094 291.296875 729 276.894531 728.519531 262.964844 L 728.214844 254.121094 C 727.90625 245.253906 727.589844 236.386719 727.277344 227.519531 C 726.21875 197.464844 725.121094 166.386719 724.234375 135.820312 C 724.078125 130.425781 722.894531 122.699219 714.476562 117.925781 C 713.894531 117.59375 713.214844 117.074219 712.492188 116.523438 C 712.097656 116.222656 711.703125 115.917969 711.308594 115.632812 C 709.238281 114.121094 707.167969 112.605469 705.101562 111.089844 C 699.84375 107.238281 694.40625 103.25 688.996094 99.394531 C 687.625 98.417969 687.125 97.582031 686.929688 95.941406 C 686.3125 90.847656 685.542969 85.726562 684.800781 80.773438 C 684.417969 78.222656 684.035156 75.671875 683.671875 73.125 C 682.652344 65.929688 681.648438 58.734375 680.644531 51.519531 L 679.609375 44.101562 C 679.367188 42.371094 678.367188 40.832031 676.882812 39.910156 C 672.574219 37.242188 668.269531 37.425781 665.121094 37.5625 C 664.628906 37.582031 664.136719 37.605469 663.65625 37.613281 C 651.089844 37.824219 638.527344 38.0625 625.964844 38.304688 C 616.808594 38.480469 607.652344 38.652344 598.492188 38.816406 C 571.351562 39.304688 544.210938 39.777344 517.074219 40.25 L 389.25 42.5 C 380.460938 42.652344 371.671875 42.8125 362.886719 42.972656 C 333.9375 43.5 304.003906 44.042969 274.558594 44.390625 C 267.621094 44.476562 261.964844 46.371094 256.75 50.355469 C 244.667969 59.613281 232.242188 68.878906 220.222656 77.835938 C 215.53125 81.332031 210.839844 84.828125 206.15625 88.335938 C 203.195312 90.554688 200.242188 92.777344 197.289062 95.003906 C 190.832031 99.863281 184.160156 104.894531 177.550781 109.730469 C 172.332031 113.539062 169.714844 118.855469 169.761719 125.546875 C 169.777344 127.035156 169.882812 128.445312 169.992188 129.804688 C 170.03125 130.328125 170.070312 130.847656 170.101562 131.355469 C 170.386719 135.90625 170.679688 140.453125 170.96875 145 C 171.605469 154.929688 172.261719 165.195312 172.835938 175.285156 C 173.269531 182.890625 173.660156 190.636719 174.039062 198.128906 C 174.449219 206.261719 174.875 214.671875 175.351562 222.953125 C 175.84375 231.382812 176.410156 239.9375 176.957031 248.210938 C 177.351562 254.148438 177.746094 260.085938 178.117188 266.023438 C 178.898438 278.644531 179.492188 289.101562 179.980469 298.933594 C 180 299.324219 180.03125 299.722656 180.0625 300.121094 C 180.070312 300.207031 180.078125 300.296875 180.085938 300.394531 C 175.382812 300.519531 170.496094 300.449219 165.386719 300.371094 C 162.667969 300.328125 159.929688 300.289062 157.191406 300.277344 C 150.667969 300.261719 144.246094 300.183594 137.445312 300.105469 C 134.46875 300.070312 131.460938 300.03125 128.410156 300 C 126.664062 299.976562 125.046875 300.71875 123.914062 302.015625 C 123.402344 302.601562 122.875 303.199219 122.335938 303.8125 C 120.929688 305.402344 119.476562 307.046875 118.039062 308.769531 C 116.269531 310.886719 114.527344 313.03125 112.78125 315.171875 C 109.214844 319.554688 105.523438 324.085938 101.691406 328.257812 C 97.640625 332.683594 95.835938 337.679688 96.011719 343.976562 C 96.589844 364.773438 96.945312 385.296875 97.210938 402.628906 C 97.867188 444.84375 98.496094 487.058594 99.125 529.273438 Z M 676.542969 103.867188 C 677.171875 104.378906 677.800781 104.917969 678.433594 105.449219 C 679.441406 106.753906 680.675781 107.933594 682.15625 108.988281 C 687.507812 112.804688 692.914062 116.765625 698.136719 120.59375 C 700.210938 122.117188 702.285156 123.636719 704.371094 125.15625 C 704.695312 125.394531 705.019531 125.640625 705.339844 125.886719 C 706.296875 126.617188 707.382812 127.449219 708.667969 128.175781 C 711.015625 129.507812 712.3125 131.175781 712.457031 136.167969 C 713.347656 166.769531 714.445312 197.863281 715.507812 227.9375 C 715.820312 236.800781 716.132812 245.667969 716.441406 254.535156 L 716.746094 263.375 C 717.230469 277.328125 717.726562 291.753906 718.328125 305.929688 C 718.363281 306.824219 718.390625 307.714844 718.414062 308.609375 C 718.492188 311.328125 718.605469 314.101562 718.972656 316.898438 C 718.964844 317.9375 718.953125 318.960938 718.953125 320.027344 C 716.585938 320.898438 714.1875 321.363281 712.300781 322.601562 C 710.574219 323.734375 709.359375 325.671875 707.988281 327.3125 C 701.710938 334.828125 695.542969 342.433594 689.15625 349.847656 C 687.011719 352.335938 686.050781 354.914062 686.15625 358.164062 C 686.472656 367.945312 686.671875 377.734375 686.828125 387.523438 C 687.203125 411.382812 687.527344 435.242188 687.871094 459.105469 C 687.882812 460.023438 687.816406 460.945312 687.902344 461.855469 C 688.253906 465.75 686.929688 468.851562 684.300781 471.816406 C 683.410156 472.824219 682.542969 473.855469 681.65625 474.867188 C 680.660156 475.519531 679.667969 476.441406 678.710938 477.707031 C 678.621094 477.828125 678.535156 477.949219 678.4375 478.0625 C 670.5 487.199219 662.476562 496.527344 654.714844 505.546875 L 647.246094 514.226562 C 645.195312 516.609375 643.132812 518.984375 641.066406 521.359375 C 637.078125 525.949219 632.996094 530.6875 628.988281 535.464844 C 626.699219 531.78125 627.171875 528.984375 627.152344 526.324219 C 627.039062 511.945312 626.964844 497.566406 626.945312 483.1875 C 626.777344 359.890625 626.601562 236.59375 626.484375 113.296875 C 626.472656 99.847656 625.105469 103.359375 634.28125 93.046875 C 644.242188 81.84375 654.304688 70.738281 664.34375 59.605469 C 665.335938 58.507812 666.472656 57.539062 667.335938 56.707031 C 668.503906 56.890625 669.199219 57.339844 669.644531 57.910156 C 670.429688 63.539062 671.210938 69.164062 672.007812 74.785156 C 672.378906 77.367188 672.765625 79.945312 673.152344 82.523438 C 673.882812 87.394531 674.636719 92.433594 675.234375 97.347656 C 675.402344 98.773438 675.730469 100.09375 676.183594 101.335938 C 676.304688 102.183594 676.421875 103.003906 676.542969 103.867188 Z M 788.996094 414.65625 C 789.734375 449.21875 790.554688 483.78125 791.332031 518.34375 C 791.402344 521.402344 791.378906 524.464844 791.421875 527.523438 C 791.464844 530.316406 790.078125 532.285156 787.585938 533.195312 C 781.859375 535.285156 776.179688 537.882812 770.246094 538.960938 C 760.933594 540.65625 751.433594 541.433594 741.914062 540.863281 C 732.449219 540.292969 722.980469 539.773438 713.523438 539.082031 C 707.429688 538.632812 701.375 537.832031 695.199219 534.921875 C 695.1875 534.84375 695.175781 534.785156 695.164062 534.710938 C 695.121094 531.207031 695.078125 527.699219 695.027344 524.21875 C 694.871094 513.648438 694.582031 502.917969 694.300781 492.539062 L 694.089844 484.675781 C 694.0625 483.65625 693.964844 482.710938 693.855469 481.804688 C 693.265625 441.800781 692.667969 401.792969 692.105469 361.789062 C 692.09375 360.910156 692.476562 360.019531 692.65625 359.222656 C 694.859375 356.671875 697.785156 357.335938 700.421875 357.3125 C 713.578125 357.199219 726.734375 357.214844 739.890625 357.195312 C 752.4375 357.171875 764.984375 357.125 777.527344 357.175781 C 780.53125 357.1875 783.648438 356.605469 786.511719 358.152344 C 788.792969 360.757812 788.144531 363.949219 788.203125 366.929688 C 788.515625 382.839844 788.65625 398.75 788.996094 414.65625 Z M 787.996094 603.066406 C 787.042969 603.335938 786.089844 603.613281 785.132812 603.894531 C 782.066406 604.792969 779.171875 605.644531 776.347656 606.046875 C 759.46875 608.433594 742.3125 609.109375 725.34375 608.054688 C 716.035156 607.476562 706.398438 605.128906 696.660156 601.074219 C 696.394531 599.054688 696.085938 593.878906 695.792969 587.398438 C 695.65625 577.480469 695.542969 567.46875 695.4375 557.738281 C 695.386719 553.015625 695.332031 548.203125 695.273438 543.386719 C 695.507812 542.921875 695.808594 542.429688 696.078125 541.84375 C 697.324219 541.921875 698.53125 541.863281 699.679688 542.085938 C 718.074219 545.648438 736.660156 546.410156 755.332031 546.03125 C 765.488281 545.828125 775.386719 544.277344 784.867188 540.449219 C 786.265625 539.882812 787.765625 539.558594 789.230469 539.167969 C 789.484375 539.105469 789.800781 539.292969 790.746094 539.527344 C 791.011719 540.203125 791.753906 541.238281 791.773438 542.285156 C 792.128906 560.917969 792.402344 579.550781 792.648438 598.1875 C 792.660156 599.066406 792.238281 599.949219 792.003906 600.898438 C 791.546875 601.316406 791.066406 601.6875 790.578125 602.035156 C 789.808594 602.453125 788.957031 602.796875 787.996094 603.066406 Z M 799.894531 581.105469 C 797.300781 579.210938 797.894531 576.878906 797.835938 574.863281 C 797.558594 565.398438 797.441406 555.925781 797.238281 546.457031 C 796.152344 496.058594 795.042969 445.660156 793.972656 395.257812 C 793.734375 383.957031 793.683594 372.652344 793.402344 361.351562 C 793.316406 357.828125 794.109375 354.753906 796.273438 351.957031 C 799.59375 347.667969 802.199219 342.816406 805.660156 339.152344 C 806.773438 339.257812 807.421875 339.578125 807.808594 340.027344 C 808.230469 351.644531 808.648438 363.261719 809.066406 374.878906 C 809.976562 400.128906 810.914062 426.238281 811.882812 451.917969 C 812.945312 480.085938 814 505.296875 815.101562 528.992188 C 815.371094 534.894531 814.472656 540.605469 812.359375 546.445312 C 807.953125 558.617188 804.03125 569.84375 800.476562 580.4375 C 800.300781 580.628906 800.109375 580.839844 799.894531 581.105469 Z M 734.050781 328.234375 C 734.664062 328.210938 735.269531 328.183594 735.875 328.191406 C 749.972656 328.359375 764.300781 328.472656 778.15625 328.582031 C 785.753906 328.644531 793.355469 328.703125 800.945312 328.773438 C 801.75 328.921875 802.539062 329.078125 803.296875 329.191406 C 803.445312 330.347656 803.78125 331.078125 803.550781 331.464844 C 799.359375 338.539062 794.605469 345.210938 789.183594 351.824219 C 759.746094 351.945312 730.46875 351.984375 701.191406 351.910156 C 700.054688 351.90625 698.917969 351.511719 696.488281 351.054688 C 697.96875 348.65625 698.621094 347.296875 699.542969 346.15625 C 703.378906 341.410156 707.417969 336.824219 711.136719 331.988281 C 713.816406 328.507812 717.09375 327.378906 721.40625 327.457031 C 723.046875 327.484375 724.6875 327.488281 726.328125 327.511719 C 729.214844 328.394531 731.917969 328.3125 734.050781 328.234375 Z M 609.117188 541.882812 C 608.359375 541.90625 607.597656 541.929688 606.804688 541.945312 C 605.613281 541.980469 604.554688 542.144531 603.578125 542.308594 C 600.226562 542.316406 596.875 542.316406 593.523438 542.324219 C 588.671875 541.753906 584.105469 541.832031 579.679688 541.949219 C 577.367188 542.011719 575.183594 542.070312 573.054688 542.023438 C 572.371094 542.015625 571.71875 542.15625 571.089844 542.363281 C 544.464844 542.414062 517.835938 542.464844 491.210938 542.5 C 426.660156 542.582031 362.105469 542.65625 297.550781 542.730469 C 282.109375 542.039062 243.550781 542.050781 230.738281 542.808594 C 226.683594 542.8125 222.628906 542.820312 218.578125 542.824219 C 214.632812 542.828125 210.640625 543.246094 206.695312 542.191406 C 204.503906 538.480469 204.734375 534.445312 204.484375 530.535156 C 203.824219 520.15625 203.234375 509.773438 202.671875 499.386719 C 201.824219 483.808594 201.101562 468.222656 200.195312 452.648438 C 198.683594 426.691406 197.058594 400.738281 195.5 374.785156 C 194.800781 363.179688 194.113281 351.578125 193.484375 339.96875 C 192.835938 328.050781 192.246094 316.128906 191.613281 304.210938 C 192.050781 302.203125 191.90625 300.40625 191.804688 299.152344 C 191.78125 298.882812 191.757812 298.609375 191.746094 298.347656 C 191.253906 288.46875 190.660156 277.96875 189.871094 265.292969 C 189.503906 259.335938 189.109375 253.382812 188.710938 247.433594 C 188.164062 239.183594 187.601562 230.652344 187.113281 222.273438 C 186.636719 214.035156 186.214844 205.648438 185.800781 197.535156 C 185.421875 190.027344 185.03125 182.261719 184.597656 174.621094 C 184.019531 164.484375 183.363281 154.195312 182.726562 144.25 C 182.433594 139.707031 182.144531 135.164062 181.859375 130.609375 C 181.824219 130.042969 181.777344 129.476562 181.734375 128.90625 C 181.703125 128.507812 181.699219 128.164062 181.671875 127.785156 C 181.742188 126.507812 181.933594 125.269531 182.015625 124.214844 C 184.734375 121.933594 187.59375 122.332031 190.289062 122.234375 C 213.523438 121.378906 236.765625 120.640625 259.996094 119.757812 C 281.089844 118.953125 302.175781 117.960938 323.265625 117.144531 C 349.253906 116.136719 375.242188 115.265625 401.230469 114.253906 C 422.320312 113.4375 443.40625 112.457031 464.5 111.636719 C 489.875 110.648438 515.253906 109.792969 540.625 108.800781 C 562.941406 107.929688 585.25 106.941406 607.5625 106.03125 C 610.613281 105.90625 613.675781 105.785156 616.722656 105.917969 C 619.132812 106.019531 620.726562 107.582031 620.894531 109.980469 C 621.132812 113.332031 621.164062 116.703125 621.167969 120.066406 C 621.285156 205.742188 621.382812 291.421875 621.492188 377.097656 C 621.554688 427.894531 621.636719 478.6875 621.695312 529.480469 C 621.699219 533.121094 621.570312 536.761719 621.496094 540.789062 C 620.277344 541.316406 619.109375 541.667969 617.980469 541.910156 C 614.964844 541.753906 611.992188 541.800781 609.117188 541.882812 Z M 569.421875 555.402344 C 569.609375 555.578125 569.789062 555.75 570 555.921875 L 570.089844 555.992188 C 571.054688 556.769531 572.015625 557.46875 572.949219 558.148438 C 574.390625 559.199219 575.75 560.191406 576.792969 561.226562 C 578.292969 562.730469 580.0625 565 579.984375 567.253906 C 579.90625 569.339844 578.179688 571.265625 576.746094 572.511719 C 573.980469 574.914062 570.371094 577.160156 565.714844 579.375 C 556.1875 583.90625 546.027344 586.292969 537.347656 588.035156 C 524.773438 590.550781 511.246094 592.347656 493.480469 593.855469 C 472.519531 595.632812 449.96875 595.949219 424.539062 594.824219 C 393.519531 593.445312 368.1875 590.164062 344.824219 584.5 C 331.671875 581.3125 321.992188 577.875 313.433594 573.351562 C 308.5 570.746094 305.558594 568.398438 303.597656 565.5 C 301.847656 562.910156 301.804688 560.792969 303.453125 558.191406 C 303.601562 557.953125 303.886719 557.605469 304.1875 557.234375 C 304.621094 556.707031 305.109375 556.105469 305.570312 555.40625 C 305.679688 555.246094 305.753906 555.089844 305.847656 554.929688 C 306.421875 554.414062 307.039062 553.894531 307.738281 553.375 C 312.800781 549.621094 318.316406 547.914062 324.804688 547.953125 C 361.8125 548.167969 398.824219 548.054688 435.835938 548.054688 C 435.835938 547.984375 435.835938 547.910156 435.835938 547.835938 C 472.234375 547.835938 508.632812 547.988281 545.03125 547.75 C 554.304688 547.691406 562.09375 550.925781 569.421875 555.402344 Z M 218.460938 558.050781 C 217.980469 559.398438 217.503906 560.785156 217.019531 562.148438 C 216.453125 562.949219 215.789062 563.679688 214.949219 564.507812 C 213.445312 560.171875 212.898438 554.34375 213.78125 550.75 C 214.195312 549.070312 215.511719 548.3125 217.15625 548.394531 C 218.304688 548.453125 219.433594 548.839844 221.003906 549.171875 C 220.671875 550.800781 220.375 552.195312 220.101562 553.4375 C 219.554688 554.976562 219.007812 556.511719 218.460938 558.050781 Z M 108.335938 342.261719 C 110.816406 341.949219 113.164062 341.460938 115.53125 341.378906 C 147.117188 340.300781 179.6875 340.707031 187.359375 342.328125 C 189.183594 352.035156 198.238281 508.160156 197.609375 518.519531 C 194.480469 521.570312 190.195312 522.121094 186.046875 522.910156 C 177.300781 524.570312 168.445312 525.050781 159.578125 524.65625 C 147.984375 524.144531 136.390625 523.46875 124.820312 522.554688 C 120.039062 522.175781 115.148438 521.542969 110.742188 518.238281 C 110.164062 479.640625 109.59375 441.042969 108.992188 402.445312 C 108.726562 385.21875 108.375 364.839844 107.800781 344.152344 C 107.96875 343.582031 108.167969 342.96875 108.335938 342.261719 Z M 207.007812 585.394531 C 206.105469 586.003906 205.0625 586.542969 203.8125 587.015625 C 197.542969 589.390625 190.929688 590.285156 184.714844 590.902344 C 166.855469 592.671875 152.351562 592.957031 139.082031 591.789062 C 129.359375 590.929688 120.058594 587.910156 113.042969 585.375 C 112.675781 585.242188 112.417969 585.140625 112.21875 585.035156 C 112.035156 584.355469 111.84375 583.691406 111.683594 583.039062 C 111.726562 580.316406 111.667969 577.605469 111.609375 574.984375 C 111.578125 573.765625 111.550781 572.546875 111.535156 571.328125 L 110.902344 529.097656 C 110.894531 528.511719 110.886719 527.921875 110.878906 527.335938 C 111.011719 526.910156 111.164062 526.449219 111.308594 525.890625 C 118.625 526.1875 125.667969 528.210938 132.875 528.609375 C 140.203125 529.011719 147.523438 529.609375 154.855469 529.789062 C 161.882812 529.957031 168.949219 530.058594 175.945312 529.523438 C 183.195312 528.964844 190.378906 527.605469 197.914062 526.554688 C 200.753906 532.800781 198.121094 539.917969 200.9375 546.667969 C 202.808594 547.503906 204.953125 548.464844 206.953125 549.355469 C 207.292969 550.097656 207.75 550.640625 207.765625 551.195312 C 208.039062 560.976562 208.207031 570.757812 208.523438 580.539062 C 208.589844 582.601562 208.074219 584.210938 207.007812 585.394531 Z M 664.726562 50.550781 C 653.050781 63.679688 642.003906 76.328125 630.699219 88.742188 C 618.175781 102.484375 624.140625 99.875 605.207031 100.636719 C 582.59375 101.546875 559.980469 102.523438 537.367188 103.453125 C 531.253906 103.703125 525.136719 103.871094 519.023438 104.109375 C 487.542969 105.332031 456.0625 106.5625 424.582031 107.789062 C 393.101562 109.019531 361.621094 110.242188 330.136719 111.472656 C 298.65625 112.699219 267.175781 113.914062 235.695312 115.15625 C 224.082031 115.617188 212.472656 116.15625 200.859375 116.605469 C 197.832031 116.71875 194.792969 116.621094 192.011719 116.621094 C 191.289062 115.542969 191.203125 114.71875 191.554688 114.015625 C 195.875 110.800781 200.175781 107.578125 204.378906 104.410156 C 207.324219 102.195312 210.269531 99.976562 213.21875 97.765625 C 217.894531 94.265625 222.582031 90.773438 227.265625 87.28125 C 239.316406 78.300781 251.773438 69.011719 263.910156 59.710938 C 267.128906 57.253906 270.253906 56.226562 274.703125 56.171875 C 304.179688 55.824219 334.136719 55.277344 363.101562 54.753906 C 371.886719 54.59375 380.671875 54.433594 389.457031 54.277344 L 517.285156 52.035156 C 544.421875 51.5625 571.5625 51.085938 598.707031 50.601562 C 607.871094 50.4375 617.035156 50.261719 626.195312 50.085938 C 638.421875 49.851562 650.644531 49.621094 662.878906 49.414062 C 663.476562 49.683594 664.089844 50.035156 664.726562 50.550781 Z M 183.316406 312.304688 C 183.890625 312.316406 184.457031 312.691406 185.617188 313.109375 C 187.269531 319.847656 187.894531 326.9375 187.21875 334.644531 C 185.242188 335.015625 183.519531 335.609375 181.796875 335.617188 C 160.699219 335.710938 139.605469 335.730469 118.507812 335.722656 C 116.523438 335.722656 114.222656 336.195312 112.824219 333.417969 C 115.964844 329.84375 119 326.195312 121.917969 322.609375 C 123.628906 320.507812 125.339844 318.40625 127.085938 316.320312 C 128.121094 315.078125 129.195312 313.863281 130.253906 312.65625 C 130.789062 312.308594 131.382812 312.03125 131.988281 311.824219 C 133.769531 311.84375 135.546875 311.863281 137.304688 311.882812 C 144.132812 311.964844 150.582031 312.042969 157.152344 312.058594 C 159.84375 312.070312 162.535156 312.109375 165.210938 312.148438 C 169.527344 312.214844 173.9375 312.269531 178.269531 312.203125 C 179.953125 312.238281 181.632812 312.269531 183.316406 312.304688 Z M 673.746094 817.226562 C 668.667969 808.003906 666.421875 797.402344 666.875 784.816406 C 667.40625 770.242188 670.871094 756.503906 677.1875 743.742188 C 677.488281 743.515625 677.855469 743.3125 678.183594 743.054688 C 679.859375 742.367188 681.023438 743.628906 682.234375 744.410156 C 694.339844 752.21875 707.871094 755.730469 721.960938 757.09375 C 737.527344 758.601562 753.058594 758.289062 768.300781 754.054688 C 769.730469 753.660156 771.292969 753.738281 773.683594 753.511719 C 773.683594 756.921875 774.027344 759.363281 773.628906 761.679688 C 769.757812 784.304688 760.09375 803.988281 743.414062 819.964844 C 737.195312 825.921875 730.144531 830.714844 722.066406 833.875 C 717.492188 835.664062 712.808594 836.855469 707.863281 837.128906 C 694.574219 837.863281 684.347656 832.808594 676.785156 822.695312 C 675.757812 820.855469 674.730469 819.007812 673.746094 817.226562 Z M 734.867188 714.15625 C 735.117188 714.703125 735.425781 715.257812 735.523438 715.839844 C 736.960938 724.414062 735.042969 732.136719 729.527344 738.898438 C 728.96875 739.582031 728.148438 740.074219 727.402344 740.589844 C 726.261719 741.386719 724.003906 740.835938 723.511719 739.507812 C 722.785156 737.554688 722.269531 735.519531 721.933594 734.417969 C 722.300781 726.851562 724.152344 720.832031 728.15625 715.585938 C 728.871094 714.644531 729.90625 713.921875 730.871094 713.210938 C 731.984375 712.390625 734.332031 712.988281 734.867188 714.15625 Z M 690.828125 722.808594 C 696.859375 715.5 703.792969 709.582031 711.4375 705.210938 C 716.929688 702.066406 721.769531 700.136719 726.683594 699.125 C 727.382812 698.980469 728.042969 698.796875 728.707031 698.617188 C 729.617188 698.570312 730.539062 698.5625 731.480469 698.621094 C 732.042969 704.855469 732.234375 705.125 728.875 707.472656 C 720.625 713.238281 717.726562 721.621094 716.839844 731.027344 C 716.40625 735.628906 716.753906 740.152344 719.480469 744.207031 C 720.121094 745.160156 720.457031 746.441406 720.5625 747.605469 C 720.683594 748.882812 719.945312 749.976562 718.660156 750.363281 C 717.808594 750.621094 716.835938 750.742188 715.960938 750.613281 C 704.398438 748.863281 693.367188 745.644531 683.773438 738.617188 C 683.0625 738.09375 682.566406 737.28125 681.640625 736.234375 C 682.253906 734.980469 682.949219 733.738281 683.660156 732.5 C 685.847656 729.195312 688.226562 725.960938 690.828125 722.808594 Z M 748.199219 835.84375 C 742.65625 840.960938 735.953125 845 728.277344 847.855469 C 720.277344 850.832031 712.808594 851.492188 705.441406 849.871094 C 700.074219 848.691406 695.40625 846.421875 691.332031 843.089844 C 691.214844 842.730469 691.167969 842.277344 691.050781 841.894531 C 693.042969 840.121094 695.132812 841.582031 697.011719 841.96875 C 707.65625 844.152344 717.648438 842.015625 727.285156 837.644531 C 734.28125 834.472656 740.554688 830.125 746.175781 824.878906 C 763.992188 808.242188 774.472656 787.675781 778.832031 763.835938 C 779.257812 761.507812 779.746094 759.195312 780.175781 757.027344 C 781.007812 756.921875 781.535156 757.042969 781.882812 757.269531 C 782.675781 788.070312 771.363281 814.503906 748.199219 835.84375 Z M 773.5625 745.886719 C 772.734375 746.351562 771.757812 747.113281 770.652344 747.480469 C 757.125 752.011719 743.195312 753.097656 729.042969 752.152344 C 728.453125 752.113281 727.871094 751.84375 727.296875 751.65625 C 726.417969 751.367188 725.914062 749.230469 726.546875 748.5 C 726.941406 748.039062 727.269531 747.441406 727.773438 747.164062 C 736.71875 742.234375 739.742188 733.691406 741.480469 724.464844 C 742.410156 719.535156 742.136719 714.484375 739.074219 710.375 C 736.210938 706.539062 736.570312 703.117188 739.324219 698.425781 C 740.238281 698.484375 741.121094 698.484375 741.976562 698.503906 C 742.484375 698.664062 742.972656 698.835938 743.523438 698.957031 C 753.582031 701.195312 761.296875 707.214844 767.113281 717.363281 L 768.484375 719.761719 C 768.96875 720.605469 769.460938 721.472656 769.949219 722.328125 C 773.007812 729.707031 774.40625 737.996094 773.5625 745.886719 Z M 773.5625 745.886719 " fill-opacity="1" fill-rule="nonzero"/><path fill="#1e2b63" d="M 214.757812 842.558594 C 238.609375 843.488281 266.859375 844.535156 295.539062 845.226562 C 304.3125 845.4375 313.113281 845.527344 321.921875 845.527344 C 347.34375 845.527344 372.796875 844.785156 397.621094 844.0625 L 406.851562 843.796875 C 422.007812 843.363281 437.660156 842.625 454.703125 841.539062 C 467.355469 840.742188 480.160156 839.632812 492.546875 838.558594 C 495.214844 838.328125 497.878906 838.097656 500.546875 837.871094 C 514.53125 836.671875 528.523438 834.507812 542.054688 832.410156 C 550.257812 831.140625 558.742188 829.824219 567.09375 828.75 C 571.875 828.125 574.476562 825.472656 575.816406 823.363281 C 576.949219 821.589844 577.898438 819.796875 578.820312 818.070312 C 579.082031 817.578125 579.339844 817.085938 579.601562 816.609375 C 591.273438 795.113281 602.945312 773.617188 614.609375 752.117188 C 617.527344 746.746094 620.433594 741.371094 623.34375 735.996094 C 630.636719 722.523438 638.175781 708.589844 645.730469 694.980469 C 648.941406 689.199219 649.734375 683.480469 648.152344 677.496094 C 648.152344 677.496094 648.152344 677.492188 648.148438 677.492188 C 647.367188 674.535156 646.652344 671.460938 645.960938 668.492188 C 645.5625 666.777344 645.160156 665.0625 644.75 663.355469 C 644.140625 660.828125 643.535156 658.296875 642.933594 655.769531 C 641.359375 649.175781 639.734375 642.355469 638.003906 635.664062 C 635.921875 627.585938 633.003906 625.226562 624.390625 624.6875 C 623.625 624.644531 622.855469 624.632812 622.085938 624.621094 L 621.402344 624.613281 C 615.96875 624.53125 610.535156 624.441406 605.105469 624.347656 C 593.597656 624.15625 581.699219 623.957031 569.980469 623.871094 C 529.628906 623.589844 488.601562 623.347656 448.925781 623.109375 L 401.320312 622.824219 C 400.984375 622.761719 400.644531 622.722656 400.292969 622.71875 C 396.066406 622.648438 391.84375 622.570312 387.621094 622.492188 C 378.230469 622.316406 368.523438 622.132812 358.949219 622.0625 C 311.964844 621.710938 264.191406 621.398438 217.988281 621.097656 L 182.785156 620.867188 C 182.046875 620.863281 181.304688 620.867188 180.566406 620.871094 C 179.179688 620.875 177.871094 620.882812 176.597656 620.824219 C 171.09375 620.570312 166.507812 622.539062 162.964844 626.683594 C 161.265625 628.667969 159.449219 630.667969 157.6875 632.601562 C 154.957031 635.605469 152.132812 638.710938 149.507812 642.023438 C 119.820312 679.550781 97.242188 721.523438 82.398438 766.769531 C 77.210938 782.578125 74.207031 796.792969 73.210938 810.234375 C 72.242188 823.382812 76.222656 828.554688 88.996094 830.722656 C 112.953125 834.769531 138.886719 837.742188 170.601562 840.074219 C 185.226562 841.148438 200.082031 841.984375 214.757812 842.558594 Z M 199.8125 830.089844 C 190.339844 829.605469 180.855469 829.011719 171.464844 828.320312 C 140.125 826.015625 114.542969 823.089844 90.960938 819.105469 C 86.152344 818.289062 85.363281 817.527344 85.253906 817.382812 C 85.09375 817.167969 84.59375 816.082031 84.960938 811.101562 C 85.882812 798.628906 88.707031 785.332031 93.59375 770.441406 C 108.003906 726.515625 129.921875 685.769531 158.746094 649.335938 C 161.117188 646.339844 163.683594 643.515625 166.402344 640.527344 C 168.222656 638.53125 170.101562 636.460938 171.917969 634.339844 C 173.082031 632.976562 174.199219 632.503906 176.042969 632.589844 C 177.621094 632.664062 179.148438 632.65625 180.628906 632.648438 C 181.316406 632.644531 182.003906 632.640625 182.703125 632.648438 L 217.910156 632.878906 C 264.109375 633.179688 311.882812 633.492188 358.863281 633.84375 C 368.367188 633.914062 378.042969 634.09375 387.398438 634.269531 C 391.269531 634.339844 395.136719 634.414062 399.003906 634.480469 C 399.378906 634.558594 399.761719 634.597656 400.15625 634.601562 L 448.855469 634.890625 C 488.527344 635.128906 529.554688 635.371094 569.894531 635.652344 C 581.554688 635.738281 593.425781 635.9375 604.90625 636.128906 C 610.347656 636.21875 615.789062 636.3125 621.207031 636.390625 L 621.921875 636.402344 C 622.140625 636.40625 622.34375 636.414062 622.558594 636.417969 C 623.070312 636.597656 623.578125 636.8125 624.082031 637.117188 C 624.664062 641.191406 623.054688 644.894531 621.5625 648.511719 C 615.03125 664.328125 608.695312 680.242188 601.644531 695.824219 C 596.789062 706.554688 586.503906 727.722656 586.503906 727.722656 L 584.40625 731.925781 C 584.40625 731.925781 565.625 767.894531 555.34375 785.417969 C 553.023438 789.371094 550.566406 793.246094 548.078125 797.097656 C 546.15625 800.066406 543.445312 801.894531 539.847656 802.320312 C 538.332031 802.5 536.851562 803.011719 535.335938 803.132812 C 524.0625 804.039062 512.789062 805.050781 501.496094 805.699219 C 491.121094 806.296875 480.714844 806.457031 470.328125 806.882812 C 468.863281 806.941406 467.417969 807.40625 466.144531 807.648438 C 465.601562 809.367188 465.980469 810.566406 467.351562 810.855469 C 469.722656 811.355469 472.160156 811.824219 474.566406 811.820312 C 491.699219 811.792969 508.8125 811.253906 525.859375 809.367188 C 529.503906 808.960938 533.171875 808.769531 536.832031 808.492188 C 544.320312 807.925781 549.816406 804.757812 553.972656 798.0625 C 566.167969 778.402344 587.636719 737.519531 587.636719 737.519531 L 592.929688 726.914062 C 592.929688 726.914062 594.164062 724.429688 594.773438 723.183594 C 605.78125 700.660156 616.542969 678.015625 625.234375 654.460938 C 625.84375 652.804688 626.777344 651.269531 627.914062 648.957031 C 628.628906 649.933594 629.277344 650.613281 629.730469 651.242188 C 630.316406 653.671875 630.90625 656.109375 631.476562 658.5 C 632.082031 661.039062 632.6875 663.582031 633.300781 666.125 C 633.707031 667.800781 634.097656 669.480469 634.488281 671.160156 C 635.199219 674.21875 635.933594 677.378906 636.765625 680.511719 C 637.570312 683.570312 637.1875 686.105469 635.433594 689.261719 C 627.84375 702.925781 620.289062 716.886719 612.984375 730.390625 C 610.078125 735.761719 607.171875 741.128906 604.257812 746.496094 C 592.59375 768 580.921875 789.492188 569.246094 810.992188 C 568.96875 811.503906 568.695312 812.019531 568.417969 812.535156 C 567.992188 813.335938 567.5625 814.046875 567.140625 814.800781 C 565.878906 816.046875 564.300781 816.871094 562.167969 817.210938 C 558.542969 817.789062 554.925781 818.425781 551.3125 819.078125 C 547.59375 819.636719 543.890625 820.203125 540.25 820.769531 C 526.917969 822.832031 513.128906 824.96875 499.546875 826.128906 C 496.875 826.359375 494.203125 826.589844 491.53125 826.820312 C 479.214844 827.890625 466.476562 828.996094 453.960938 829.78125 C 437.054688 830.855469 421.535156 831.589844 406.515625 832.019531 L 397.28125 832.285156 C 364.007812 833.253906 329.601562 834.257812 295.824219 833.449219 C 272.988281 832.898438 250.410156 832.121094 230.117188 831.355469 Z M 199.8125 830.089844 " fill-opacity="1" fill-rule="nonzero"/><path fill="#1e2b63" d="M 581.394531 164.46875 C 581.386719 161.410156 581.488281 158.332031 581.164062 155.300781 C 580.980469 153.617188 580.019531 152.015625 579.3125 150.117188 C 576.851562 150.117188 574.726562 150.054688 572.601562 150.125 C 561.597656 150.496094 550.59375 150.910156 539.589844 151.285156 C 520.636719 151.929688 501.683594 152.558594 482.726562 153.195312 C 464.386719 153.808594 446.042969 154.417969 427.699219 155.027344 C 409.355469 155.636719 391.011719 156.25 372.671875 156.859375 C 354.632812 157.460938 336.597656 158.078125 318.558594 158.644531 C 288.59375 159.589844 258.628906 160.492188 228.667969 161.429688 C 226.226562 161.503906 223.773438 161.5625 221.355469 161.867188 C 218.980469 162.167969 217.90625 163.921875 218.066406 166.484375 C 218.542969 174.105469 219.070312 181.730469 219.417969 189.359375 C 220.695312 217.472656 221.890625 245.589844 223.15625 273.703125 C 224.269531 298.453125 225.445312 323.203125 226.574219 347.953125 C 227.726562 373.316406 228.851562 398.679688 230.003906 424.042969 C 230.085938 425.871094 230.214844 427.703125 230.429688 429.523438 C 230.671875 431.601562 232.070312 432.949219 233.957031 433.234375 C 236.65625 433.648438 239.429688 433.679688 242.171875 433.710938 C 303.355469 434.484375 364.539062 435.210938 425.71875 435.992188 C 472.828125 436.597656 519.9375 437.269531 567.046875 437.886719 C 571.300781 437.945312 575.558594 437.808594 579.820312 437.765625 C 582.726562 433.734375 581.878906 430.257812 581.875 426.972656 C 581.746094 339.46875 581.570312 251.96875 581.394531 164.46875 Z M 574.792969 431.921875 C 572.722656 432.136719 570.363281 432.605469 568.003906 432.589844 C 555.765625 432.496094 543.523438 432.285156 531.285156 432.109375 C 503.75 431.714844 476.214844 431.296875 448.675781 430.917969 C 403.699219 430.296875 358.71875 429.722656 313.742188 429.078125 C 290.488281 428.742188 267.238281 428.304688 243.984375 427.875 C 241.570312 427.828125 239.15625 427.527344 235.941406 427.289062 C 235.621094 424.84375 235.320312 423.367188 235.253906 421.875 C 234.621094 408.429688 234.042969 394.980469 233.421875 381.53125 C 232.402344 359.527344 231.347656 337.523438 230.332031 315.519531 C 229.671875 301.152344 229.023438 286.789062 228.433594 272.421875 C 227.550781 251.019531 226.761719 229.617188 225.867188 208.21875 C 225.445312 198.132812 224.832031 188.050781 224.378906 177.964844 C 224.242188 174.949219 224.355469 171.921875 224.355469 169.289062 C 227.027344 166.664062 229.910156 167 232.558594 166.882812 C 241.730469 166.480469 250.90625 166.265625 260.082031 165.953125 C 287.90625 165.019531 315.730469 164.070312 343.558594 163.128906 C 350.589844 162.890625 357.625 162.65625 364.65625 162.421875 C 401.65625 161.191406 438.660156 159.960938 475.660156 158.726562 C 505.628906 157.726562 535.59375 156.714844 565.5625 155.734375 C 568.558594 155.636719 571.617188 155.121094 574.816406 156.320312 C 575.148438 157.59375 575.613281 158.710938 575.699219 159.863281 C 575.859375 161.992188 575.832031 164.140625 575.832031 166.285156 C 575.949219 251.355469 576.070312 336.425781 576.140625 421.5 C 576.144531 424.792969 576.816406 428.21875 574.792969 431.921875 Z M 574.792969 431.921875 " fill-opacity="1" fill-rule="nonzero"/><path fill="#1e2b63" d="M 521.140625 483.597656 C 511.527344 483.574219 504.105469 490.527344 503.792969 499.851562 C 503.441406 510.347656 511.84375 518.980469 522.597656 519.164062 C 532.691406 519.335938 540.285156 512.207031 540.386719 502.457031 C 540.5 491.9375 532.011719 483.621094 521.140625 483.597656 Z M 525.425781 513.523438 C 518.253906 514.820312 511.167969 510.214844 509.445312 503.132812 C 507.703125 495.992188 513.300781 489.21875 521.050781 489.082031 C 526.726562 488.980469 531.703125 492.214844 533.996094 497.5 C 537.007812 504.441406 532.875 512.171875 525.425781 513.523438 Z M 525.425781 513.523438 " fill-opacity="1" fill-rule="nonzero"/><path fill="#1e2b63" d="M 368.777344 487.886719 C 367.679688 487.363281 366.519531 486.851562 365.335938 486.648438 C 359.386719 485.613281 354.429688 487.570312 350.660156 492.179688 C 347.503906 496.050781 346.863281 500.566406 348.945312 505.105469 C 351.347656 510.355469 355.894531 512.566406 361.414062 512.921875 C 365.972656 512.734375 369.855469 511.183594 372.863281 507.789062 C 378.769531 501.132812 376.835938 491.753906 368.777344 487.886719 Z M 363.257812 507.035156 C 359.035156 507.84375 355.085938 505.761719 353.695312 501.984375 C 353.589844 501.703125 353.464844 501.414062 353.425781 501.121094 C 353.035156 498.109375 354.316406 495.757812 356.621094 494.042969 C 359.816406 491.660156 363.394531 491.511719 366.929688 493.171875 C 369.308594 494.289062 370.449219 496.40625 370.503906 499.058594 C 370.550781 503.132812 367.792969 506.167969 363.257812 507.035156 Z M 363.257812 507.035156 " fill-opacity="1" fill-rule="nonzero"/><path fill="#1e2b63" d="M 325.792969 487.535156 C 325.121094 487.625 323.875 487.648438 322.714844 487.972656 C 317.308594 489.484375 313.683594 492.851562 312.371094 498.410156 C 311.21875 503.28125 313.226562 508.226562 317.445312 511.179688 C 323.632812 515.515625 333.371094 513.933594 337.835938 507.644531 C 339.015625 505.980469 339.859375 503.832031 340.121094 501.8125 C 341.191406 493.570312 335.085938 487.371094 325.792969 487.535156 Z M 328.386719 507.804688 C 324.253906 508.949219 319.90625 507.191406 318.3125 503.730469 C 317.199219 501.324219 317.707031 498.105469 319.59375 496.125 C 322.339844 493.234375 325.683594 492.238281 329.523438 493.339844 C 332.558594 494.207031 334.804688 497.125 334.863281 499.988281 C 334.9375 503.394531 332.144531 506.761719 328.386719 507.804688 Z M 328.386719 507.804688 " fill-opacity="1" fill-rule="nonzero"/><path fill="#1e2b63" d="M 397.902344 486.019531 C 390 486.203125 383.476562 492.488281 383.59375 499.800781 C 383.710938 506.859375 390.347656 513.050781 397.730469 512.46875 C 407.167969 511.726562 412.234375 505.046875 411.894531 498.582031 C 411.828125 491.285156 405.757812 485.835938 397.902344 486.019531 Z M 400.703125 506.113281 C 399.5625 506.464844 398.335938 506.535156 397.855469 506.617188 C 393.375 506.546875 390.320312 504.417969 389.535156 501.3125 C 388.710938 498.050781 390.207031 494.691406 393.464844 492.957031 C 394.773438 492.261719 396.261719 491.707031 397.71875 491.523438 C 401.742188 491.03125 405.882812 494.144531 406.417969 497.847656 C 406.910156 501.238281 404.363281 504.996094 400.703125 506.113281 Z M 400.703125 506.113281 " fill-opacity="1" fill-rule="nonzero"/><path fill="#1e2b63" d="M 739.503906 561.382812 C 733.222656 559.414062 726.1875 561.570312 722.332031 566.804688 C 719.425781 570.742188 718.347656 575.027344 720.742188 579.636719 C 723.085938 584.148438 727.105469 585.941406 731.027344 586.265625 C 738.429688 586.304688 744.679688 581.980469 746.8125 575.992188 C 748.96875 569.9375 745.652344 563.308594 739.503906 561.382812 Z M 741.351562 574.3125 C 739.527344 579.109375 734.320312 581.585938 729.402344 580.058594 C 726.585938 579.183594 724.9375 576.597656 725.355469 573.714844 C 726.207031 567.890625 733.816406 564.144531 738.804688 567.292969 C 740.207031 568.179688 741.023438 569.992188 741.976562 571.210938 C 741.71875 572.542969 741.667969 573.480469 741.351562 574.3125 Z M 741.351562 574.3125 " fill-opacity="1" fill-rule="nonzero"/><path fill="#1e2b63" d="M 770.90625 559.613281 C 763.113281 559.628906 757.402344 563.960938 754.972656 570.054688 C 753.117188 574.714844 755.496094 582.625 762.554688 584.5 C 768.953125 586.195312 774.699219 584.746094 779.074219 579.546875 C 782.21875 575.804688 783.472656 571.492188 781.375 566.804688 C 779.136719 561.816406 774.945312 559.746094 770.90625 559.613281 Z M 775.730469 574.644531 C 773.703125 578 770.683594 579.65625 767.222656 579.699219 C 764.175781 579.628906 762.003906 578.628906 760.816406 576.308594 C 759.632812 573.992188 760.019531 571.632812 761.523438 569.507812 C 763.792969 566.296875 768.164062 564.609375 771.8125 565.5 C 776.089844 566.546875 777.980469 570.914062 775.730469 574.644531 Z M 775.730469 574.644531 " fill-opacity="1" fill-rule="nonzero"/><path fill="#1e2b63" d="M 190.902344 544.707031 C 184.808594 542.011719 177.167969 544.089844 172.9375 549.742188 C 170.011719 553.644531 168.84375 557.878906 171.207031 562.566406 C 173.527344 567.175781 177.632812 568.792969 182.066406 569.359375 C 188.363281 569.460938 194.542969 565.433594 196.917969 559.898438 C 199.546875 553.765625 197.035156 547.417969 190.902344 544.707031 Z M 190.171875 560.226562 C 187.433594 563.171875 184.046875 564.039062 180.207031 563.179688 C 176.78125 562.414062 174.894531 558.628906 176.195312 555.324219 C 177.675781 551.574219 181.132812 549.359375 185.535156 549.34375 C 188.105469 549.433594 190.347656 550.167969 191.578125 552.648438 C 192.742188 555.011719 192.140625 558.109375 190.171875 560.226562 Z M 190.171875 560.226562 " fill-opacity="1" fill-rule="nonzero"/><path fill="#1e2b63" d="M 151.691406 544.636719 C 144.914062 544.226562 139.835938 547.019531 136.636719 552.953125 C 132.984375 559.726562 136.472656 567.640625 143.855469 569.640625 C 150.277344 571.382812 157.855469 568.226562 161.261719 562.503906 C 166.753906 553.269531 159.285156 544.59375 151.691406 544.636719 Z M 157.070312 557.980469 C 155.652344 562.855469 149.414062 565.882812 144.746094 563.96875 C 141.371094 562.582031 139.964844 559.109375 141.441406 555.8125 C 143.007812 552.328125 146.886719 549.957031 150.882812 550.039062 C 155.230469 550.132812 158.230469 553.984375 157.070312 557.980469 Z M 157.070312 557.980469 " fill-opacity="1" fill-rule="nonzero"/><path fill="#1e2b63" d="M 336.296875 750.261719 C 310.945312 748.984375 285.59375 747.714844 260.242188 746.429688 C 257.800781 746.304688 255.363281 746.054688 252.921875 745.933594 C 233.371094 744.960938 213.820312 743.980469 194.269531 743.066406 C 192.195312 742.972656 190.097656 743.308594 187.65625 743.46875 C 186.167969 747.015625 184.546875 750.289062 183.417969 753.722656 C 181.988281 758.070312 180.722656 762.5 179.824219 766.980469 C 178.980469 771.195312 180.808594 774.195312 184.835938 775.570312 C 187.410156 776.449219 190.152344 777.140625 192.855469 777.277344 C 206.597656 777.984375 220.347656 778.75 234.105469 779 C 260.402344 779.484375 286.71875 778.816406 313 780.480469 C 320.011719 780.925781 327.066406 780.625 334.105469 780.636719 C 338.945312 780.644531 342.28125 778.535156 343.664062 773.722656 C 344.671875 770.195312 345.945312 766.726562 346.695312 763.148438 C 348.820312 753.003906 346.964844 750.796875 336.296875 750.261719 Z M 340.546875 765.277344 C 337.714844 774.46875 338.488281 775.019531 328.273438 774.835938 C 296.8125 774.261719 265.34375 774.019531 233.882812 773.484375 C 221.359375 773.273438 208.84375 772.722656 196.332031 772.140625 C 193.027344 771.984375 189.753906 771.144531 185.675781 770.492188 C 184.917969 762.515625 187.476562 756.367188 190.382812 750.355469 C 190.816406 749.464844 192.289062 748.640625 193.335938 748.5625 C 196.0625 748.363281 198.824219 748.53125 201.566406 748.671875 C 221.703125 749.691406 241.832031 750.746094 261.96875 751.777344 C 286.675781 753.042969 311.386719 754.292969 336.097656 755.554688 C 336.707031 755.585938 337.320312 755.613281 337.925781 755.683594 C 340.617188 756.007812 341.890625 757.414062 341.566406 759.875 C 341.328125 761.691406 341.082031 763.535156 340.546875 765.277344 Z M 340.546875 765.277344 " fill-opacity="1" fill-rule="nonzero"/><path fill="#1e2b63" d="M 555.964844 707.527344 C 553.855469 707.1875 551.707031 707.027344 549.570312 706.976562 C 534.277344 706.609375 518.980469 706.265625 503.683594 705.984375 C 501.589844 705.949219 499.484375 706.300781 497.144531 706.492188 C 494.921875 711.011719 492.660156 715.332031 490.664062 719.769531 C 489.289062 722.828125 488.105469 726 487.171875 729.21875 C 486.417969 731.832031 485.898438 734.578125 485.765625 737.289062 C 485.59375 740.710938 487.671875 743.246094 490.933594 743.878906 C 493.585938 744.394531 496.308594 744.542969 500.410156 745.019531 C 498.882812 750.683594 497.582031 755.367188 496.363281 760.066406 C 495.675781 762.722656 494.941406 765.386719 494.542969 768.089844 C 494 771.800781 495.660156 774.632812 498.761719 776.597656 C 500.046875 777.410156 501.402344 778.183594 502.828125 778.691406 C 511.417969 781.753906 520.171875 781.875 529.042969 780.085938 C 533.6875 779.148438 536.566406 776.546875 538.109375 772.03125 C 540.679688 764.511719 543.425781 757.042969 546.3125 749.636719 C 549.863281 740.519531 553.644531 731.492188 557.292969 722.410156 C 558.320312 719.859375 559.371094 717.304688 560.167969 714.675781 C 561.546875 710.132812 560.410156 708.234375 555.964844 707.527344 Z M 553.238281 717.800781 C 551.035156 723.5 548.664062 729.132812 546.457031 734.828125 C 542.488281 745.085938 538.605469 755.371094 534.664062 765.636719 C 533.898438 767.632812 533.246094 769.71875 532.128906 771.507812 C 531.386719 772.695312 530.054688 773.875 528.742188 774.289062 C 520.253906 776.984375 511.832031 776.277344 503.652344 772.996094 C 500.183594 771.605469 499.308594 769.425781 500.367188 765.558594 C 502.0625 759.371094 503.921875 753.230469 505.703125 747.066406 C 506.125 745.605469 506.613281 744.152344 506.882812 742.65625 C 507.289062 740.394531 505.59375 738.304688 503.332031 738.335938 C 501.511719 738.363281 499.691406 738.773438 497.871094 738.792969 C 496.367188 738.808594 494.730469 738.800781 493.394531 738.230469 C 492.503906 737.851562 491.421875 736.417969 491.496094 735.546875 C 491.707031 733.144531 492.300781 730.730469 493.066406 728.429688 C 494.996094 722.617188 497.683594 717.148438 501.511719 710.957031 C 518.851562 711.714844 535.867188 712.460938 552.496094 713.1875 C 554.199219 714.878906 553.769531 716.425781 553.238281 717.800781 Z M 553.238281 717.800781 " fill-opacity="1" fill-rule="nonzero"/><path fill="#1e2b63" d="M 400.121094 686.671875 C 406.78125 687.558594 413.457031 688.300781 420.144531 688.929688 C 424.101562 689.300781 428.085938 689.316406 432.054688 689.523438 C 435.265625 689.691406 437.304688 688.140625 438.285156 685.207031 C 440.023438 679.996094 441.898438 674.804688 443.269531 669.492188 C 444.6875 663.980469 442.992188 661.132812 437.578125 660.160156 C 431.886719 659.136719 426.078125 658.761719 420.320312 658.105469 C 420.300781 658.230469 420.285156 658.359375 420.265625 658.484375 C 416.292969 658.6875 412.320312 658.851562 408.355469 659.101562 C 406.082031 659.246094 404.203125 660.3125 403.058594 662.261719 C 399.648438 668.089844 396.652344 674.109375 395.734375 680.910156 C 395.289062 684.199219 396.71875 686.21875 400.121094 686.671875 Z M 408.863281 664.070312 C 418.441406 663.421875 428.042969 662.71875 437.609375 666.25 C 437.921875 672.578125 434.507812 677.46875 433.480469 682.597656 C 429.660156 684.945312 426.347656 683.621094 423.101562 683.378906 C 419.460938 683.105469 415.820312 682.847656 412.1875 682.492188 C 408.914062 682.171875 405.507812 682.269531 402.339844 680.078125 C 402.042969 673.792969 405.390625 669.179688 408.863281 664.070312 Z M 408.863281 664.070312 " fill-opacity="1" fill-rule="nonzero"/><path fill="#1e2b63" d="M 515.863281 690.835938 C 521 691.390625 526.125 692.074219 531.273438 692.429688 C 536.429688 692.789062 541.605469 692.824219 546.773438 692.972656 C 549.085938 693.039062 551.230469 692.246094 551.976562 690.027344 C 554.105469 683.703125 556.140625 677.332031 557.804688 670.871094 C 558.636719 667.640625 556.675781 664.976562 553.34375 663.933594 C 551.332031 663.304688 549.210938 662.886719 547.113281 662.695312 C 543.480469 662.367188 539.824219 662.292969 535.800781 662.089844 C 531.917969 662.320312 527.667969 662.570312 523.414062 662.820312 C 520.101562 663.015625 517.707031 664.511719 516.222656 667.566406 C 513.828125 672.496094 511.417969 677.382812 510.367188 682.839844 C 509.308594 688.3125 510.5625 690.265625 515.863281 690.835938 Z M 516.492188 681.238281 C 517.773438 676.53125 519.410156 671.972656 523.199219 667.910156 C 532.300781 666.917969 541.621094 666.601562 551.34375 669.070312 C 551.457031 670.78125 551.933594 672.3125 551.578125 673.613281 C 550.375 677.988281 548.875 682.277344 547.417969 686.820312 C 545.285156 687.035156 543.515625 687.441406 541.773438 687.34375 C 535.695312 687 529.625 686.5 523.554688 686.011719 C 522.042969 685.890625 520.53125 685.671875 519.046875 685.355469 C 517.117188 684.941406 515.964844 683.164062 516.492188 681.238281 Z M 516.492188 681.238281 " fill-opacity="1" fill-rule="nonzero"/><path fill="#1e2b63" d="M 149.257812 721.242188 C 155.863281 722.253906 162.503906 723.050781 169.152344 723.742188 C 173.078125 724.148438 177.046875 724.167969 180.996094 724.375 C 184.179688 724.539062 186.179688 722.992188 187.183594 720.070312 C 188.960938 714.894531 190.902344 709.761719 192.398438 704.503906 C 193.886719 699.265625 192.101562 696.109375 186.777344 695.117188 C 180.828125 694.011719 174.742188 693.597656 168.71875 692.882812 C 168.699219 693.183594 168.679688 693.488281 168.660156 693.789062 C 165.011719 693.789062 161.363281 693.773438 157.714844 693.792969 C 155.042969 693.808594 153.023438 695.085938 151.734375 697.339844 C 148.710938 702.632812 146.003906 708.066406 144.765625 714.113281 C 143.824219 718.691406 144.804688 720.558594 149.257812 721.242188 Z M 151.457031 710.652344 C 153.121094 706.761719 155.085938 703 157.050781 698.945312 C 167.121094 698.160156 176.738281 697.699219 186.570312 700.933594 C 186.632812 707.484375 183.90625 712.808594 181.585938 718.167969 C 177.859375 719.632812 174.59375 718.285156 171.316406 718.03125 C 167.972656 717.773438 164.621094 717.585938 161.285156 717.285156 C 157.96875 716.984375 154.636719 716.679688 151.089844 714.984375 C 151.195312 713.480469 150.925781 711.894531 151.457031 710.652344 Z M 151.457031 710.652344 " fill-opacity="1" fill-rule="nonzero"/><path fill="#1e2b63" d="M 225.730469 681.023438 C 227.214844 681.328125 228.742188 681.4375 230.257812 681.566406 C 237.226562 682.15625 244.195312 682.726562 251.167969 683.300781 C 251.167969 683.394531 251.171875 683.492188 251.171875 683.585938 C 253.90625 683.585938 256.640625 683.648438 259.375 683.566406 C 261.722656 683.496094 263.542969 682.265625 264.277344 680.097656 C 266.234375 674.34375 268.210938 668.574219 269.726562 662.695312 C 270.910156 658.132812 268.714844 655.089844 264.101562 653.867188 C 263.222656 653.632812 262.308594 653.519531 261.402344 653.429688 C 252.589844 652.550781 243.78125 652.660156 234.964844 653.382812 C 232.332031 653.597656 230.234375 654.628906 228.953125 656.90625 C 225.660156 662.765625 222.914062 668.859375 221.988281 675.601562 C 221.628906 678.246094 223.175781 680.496094 225.730469 681.023438 Z M 234.152344 659.128906 C 241.386719 657.140625 248.664062 657.757812 255.917969 658.234375 C 258.578125 658.410156 261.480469 658.117188 264.167969 661.242188 C 263.644531 663.457031 263.265625 665.550781 262.640625 667.570312 C 261.660156 670.746094 260.507812 673.875 259.332031 677.300781 C 252.117188 678.054688 245.199219 677.304688 238.292969 676.78125 C 235.011719 676.53125 231.585938 676.636719 228.417969 674.363281 C 228.335938 668.523438 231.554688 664.058594 234.152344 659.128906 Z M 234.152344 659.128906 " fill-opacity="1" fill-rule="nonzero"/><path fill="#1e2b63" d="M 169.839844 739.4375 C 167.832031 738.761719 165.746094 738.15625 163.648438 737.925781 C 159.402344 737.460938 155.125 737.269531 151.394531 737.003906 C 146.886719 737.210938 142.917969 737.496094 138.949219 737.546875 C 135.871094 737.582031 133.6875 738.875 132.308594 741.550781 C 130.769531 744.53125 129.113281 747.476562 127.867188 750.582031 C 126.851562 753.113281 126.15625 755.816406 125.6875 758.503906 C 124.972656 762.582031 126.160156 764.332031 130.132812 764.828125 C 139.824219 766.035156 149.539062 767.058594 159.25 768.117188 C 160.457031 768.25 161.691406 768.148438 162.910156 768.125 C 164.945312 768.085938 166.605469 767.074219 167.242188 765.289062 C 169.390625 759.265625 171.324219 753.160156 173.261719 747.0625 C 173.527344 746.226562 173.449219 745.238281 173.367188 744.335938 C 173.15625 742.027344 172.085938 740.199219 169.839844 739.4375 Z M 165.144531 755.257812 C 163.109375 762.105469 162.410156 763.199219 154.910156 762.019531 C 148.609375 761.03125 142.207031 760.683594 135.855469 759.980469 C 134.695312 759.851562 133.574219 759.367188 132.128906 758.960938 C 131.535156 752.816406 134.753906 748.363281 137.726562 743.867188 C 138.15625 743.214844 139.253906 742.726562 140.082031 742.660156 C 148.601562 741.980469 157.121094 741.640625 165.476562 743.988281 C 166.28125 744.214844 166.929688 744.996094 167.621094 745.5 C 167.921875 749.128906 166.089844 752.082031 165.144531 755.257812 Z M 165.144531 755.257812 " fill-opacity="1" fill-rule="nonzero"/><path fill="#1e2b63" d="M 285.347656 683.433594 C 293.199219 684.253906 301.066406 684.933594 310.179688 685.789062 C 311.683594 685.789062 314.417969 685.757812 317.152344 685.796875 C 319.933594 685.832031 321.871094 684.515625 322.71875 681.960938 C 324.539062 676.480469 326.394531 671 327.832031 665.414062 C 329.179688 660.175781 327.316406 657.476562 321.796875 656.308594 C 312.164062 654.273438 302.429688 654.792969 292.714844 655.660156 C 290.152344 655.886719 288.203125 657.253906 286.945312 659.597656 C 284.058594 664.976562 281.5625 670.507812 280.375 676.53125 C 279.542969 680.746094 281.128906 682.996094 285.347656 683.433594 Z M 286.859375 673.496094 C 286.925781 673.199219 286.949219 672.890625 287.03125 672.601562 C 290.253906 661.578125 292.183594 660.121094 303.664062 659.957031 C 309.746094 659.875 315.75 660.28125 322.308594 662.421875 C 321.785156 669.148438 319.59375 674.398438 317.152344 679.964844 C 315.191406 680.0625 313.402344 680.351562 311.652344 680.207031 C 304.371094 679.609375 297.09375 678.964844 289.835938 678.160156 C 287.34375 677.882812 286.300781 675.953125 286.859375 673.496094 Z M 286.859375 673.496094 " fill-opacity="1" fill-rule="nonzero"/><path fill="#1e2b63" d="M 362.199219 708.117188 C 363.175781 703.207031 361.035156 700.480469 356.085938 699.710938 C 351.878906 699.054688 347.566406 699.035156 342.402344 698.667969 C 338.097656 698.996094 332.914062 699.324219 327.75 699.816406 C 325.257812 700.054688 322.921875 700.867188 321.636719 703.289062 C 318.621094 708.976562 315.960938 714.808594 315.082031 721.265625 C 314.507812 725.496094 316.109375 727.320312 320.609375 727.75 C 325.777344 728.242188 330.933594 728.867188 336.113281 729.167969 C 341.292969 729.464844 346.492188 729.445312 351.6875 729.546875 C 354.445312 729.597656 356.542969 728.316406 357.339844 725.742188 C 359.136719 719.917969 361.015625 714.082031 362.199219 708.117188 Z M 353.046875 721.214844 C 352.449219 723.160156 350.796875 724.097656 348.789062 723.988281 C 340.882812 723.570312 332.972656 723.148438 325.074219 722.558594 C 322.105469 722.335938 320.71875 720.296875 321.65625 717.414062 C 322.777344 713.953125 324.167969 710.550781 325.824219 707.320312 C 326.425781 706.148438 328.058594 704.945312 329.351562 704.777344 C 338.117188 703.652344 346.914062 702.988281 355.554688 705.726562 C 355.804688 705.804688 355.960938 706.152344 356.828125 707.117188 C 356.324219 712.046875 354.476562 716.585938 353.046875 721.214844 Z M 353.046875 721.214844 " fill-opacity="1" fill-rule="nonzero"/><path fill="#1e2b63" d="M 170.613281 678.472656 C 173.042969 678.703125 175.445312 679.238281 177.875 679.488281 C 185.78125 680.296875 193.691406 681.042969 201.597656 681.792969 C 205.140625 682.132812 207.484375 680.523438 208.613281 677.210938 C 210.289062 672.296875 212.152344 667.425781 213.445312 662.410156 C 215.160156 655.757812 212.953125 652.828125 206.007812 651.664062 C 205.40625 651.5625 204.792969 651.546875 204.183594 651.476562 C 194.730469 650.371094 185.292969 650.324219 175.339844 651.773438 C 170.742188 657.660156 167.496094 664.453125 166.15625 672.113281 C 165.441406 676.210938 166.863281 678.117188 170.613281 678.472656 Z M 175.636719 661.476562 C 177.164062 657.667969 179.6875 655.628906 183.984375 655.867188 C 190.058594 656.199219 196.152344 656.1875 202.21875 656.621094 C 204.203125 656.761719 206.121094 657.828125 208.21875 658.519531 C 208.078125 660.175781 208.214844 661.433594 207.835938 662.507812 C 206.3125 666.769531 205.210938 671.207031 203.011719 675.554688 C 192.765625 675.933594 182.933594 675.003906 173.132812 672.808594 C 171.449219 668.253906 174.214844 665.027344 175.636719 661.476562 Z M 175.636719 661.476562 " fill-opacity="1" fill-rule="nonzero"/><path fill="#1e2b63" d="M 493.765625 688.039062 C 495.84375 681.664062 497.882812 675.257812 499.433594 668.746094 C 500.242188 665.359375 498.292969 663.035156 494.855469 661.832031 C 493.992188 661.53125 493.113281 661.1875 492.214844 661.085938 C 482.761719 660.023438 473.304688 660.046875 463.863281 661.1875 C 461.65625 661.453125 459.753906 662.5 458.652344 664.519531 C 455.425781 670.441406 452.46875 676.476562 451.960938 683.363281 C 451.71875 686.640625 453.261719 688.605469 456.59375 688.914062 C 464.792969 689.679688 473.011719 690.304688 481.082031 690.972656 C 483.980469 690.972656 486.726562 691.007812 489.472656 690.960938 C 491.515625 690.929688 493.191406 689.789062 493.765625 688.039062 Z M 458.21875 682.234375 C 459.324219 674.542969 459.542969 674 464.265625 666.792969 C 474.261719 664.476562 485.089844 664.828125 493.433594 667.914062 C 493.53125 673.972656 491.070312 679.414062 488.695312 684.757812 C 480.011719 685.84375 465.160156 684.660156 458.21875 682.234375 Z M 458.21875 682.234375 " fill-opacity="1" fill-rule="nonzero"/><path fill="#1e2b63" d="M 342.734375 685.101562 C 352.171875 685.796875 361.628906 686.265625 371.082031 686.832031 C 373.90625 686.996094 377.191406 686.921875 378.199219 683.972656 C 380.460938 677.363281 382.300781 670.585938 383.84375 663.765625 C 384.5 660.871094 382.386719 658.363281 379.617188 657.488281 C 378.464844 657.121094 377.238281 656.949219 376.027344 656.808594 C 366.871094 655.730469 357.730469 656.128906 348.589844 657.066406 C 346.277344 657.300781 344.339844 658.246094 343.289062 660.199219 C 340.390625 665.578125 337.59375 671.027344 336.796875 677.222656 C 336.0625 682.902344 337.261719 684.695312 342.734375 685.101562 Z M 347.902344 663.292969 C 356.726562 660.480469 369.628906 660.570312 378.34375 663.714844 C 377.257812 669.941406 376.101562 675.496094 373.121094 680.367188 C 361.539062 681.632812 350.292969 680.800781 342.800781 678.035156 C 342.589844 672.449219 345.574219 667.882812 347.902344 663.292969 Z M 347.902344 663.292969 " fill-opacity="1" fill-rule="nonzero"/><path fill="#1e2b63" d="M 416.507812 728.808594 C 418.527344 723.082031 420.589844 717.347656 422.152344 711.492188 C 423.382812 706.875 421.179688 703.769531 416.449219 702.875 C 406.527344 700.992188 396.542969 700.503906 386.515625 702.125 C 384.269531 702.488281 382.433594 703.414062 381.335938 705.410156 C 378.261719 711.015625 375.371094 716.703125 374.316406 723.121094 C 373.710938 726.8125 375.191406 729.042969 378.890625 729.464844 C 386.730469 730.363281 394.585938 731.136719 402.433594 731.960938 C 402.441406 731.886719 402.453125 731.8125 402.460938 731.738281 C 405.492188 731.910156 408.523438 732.203125 411.554688 732.214844 C 413.871094 732.222656 415.742188 730.96875 416.507812 728.808594 Z M 410.753906 726.292969 C 400.886719 727.128906 391.089844 725.507812 381.148438 723.671875 C 380.039062 717.234375 383.945312 712.996094 386.308594 707.882812 C 396.21875 704.539062 405.945312 706.585938 415.628906 708.464844 C 416.050781 714.820312 415.320312 717.449219 410.753906 726.292969 Z M 410.753906 726.292969 " fill-opacity="1" fill-rule="nonzero"/><path fill="#1e2b63" d="M 398.378906 753.882812 C 388.726562 751.707031 378.96875 752.140625 369.214844 752.898438 C 366.984375 753.070312 365.050781 754.105469 363.933594 756.082031 C 360.777344 761.660156 357.65625 767.273438 356.855469 773.796875 C 356.308594 778.25 357.605469 780.121094 362.015625 780.628906 C 370.1875 781.566406 378.371094 782.34375 386.648438 783.195312 C 389.015625 783.195312 391.453125 783.222656 393.890625 783.1875 C 395.859375 783.160156 397.699219 782.40625 398.351562 780.566406 C 400.496094 774.546875 402.746094 768.527344 404.265625 762.339844 C 405.460938 757.472656 403.421875 755.015625 398.378906 753.882812 Z M 393.109375 777.515625 C 384.394531 778.0625 375.96875 776.425781 367.492188 775.667969 C 366.070312 775.539062 364.710938 774.722656 362.976562 774.097656 C 362.945312 768.371094 365.652344 763.980469 368.378906 759.660156 C 368.945312 758.765625 370.328125 757.996094 371.410156 757.875 C 380.539062 756.855469 389.597656 756.882812 398.746094 760.074219 C 398.183594 766.476562 396.152344 772.046875 393.109375 777.515625 Z M 393.109375 777.515625 " fill-opacity="1" fill-rule="nonzero"/><path fill="#1e2b63" d="M 454.667969 755.375 C 449.914062 754.472656 445.03125 754.277344 440.3125 753.78125 C 435.007812 754.199219 429.851562 754.527344 424.714844 755.042969 C 422.535156 755.257812 420.628906 756.25 419.507812 758.296875 C 416.273438 764.1875 413.617188 770.304688 412.597656 777.007812 C 412.136719 780.0625 413.894531 782.3125 417.066406 782.65625 C 421.292969 783.113281 425.539062 783.453125 429.78125 783.730469 C 436.144531 784.140625 442.511719 784.46875 448.875 784.804688 C 451.957031 784.96875 454.257812 783.710938 455.203125 780.703125 C 456.933594 775.195312 458.726562 769.695312 460.09375 764.09375 C 461.289062 759.1875 459.535156 756.300781 454.667969 755.375 Z M 449.441406 778.851562 C 448 779.035156 446.804688 779.375 445.640625 779.304688 C 438.34375 778.847656 431.046875 778.386719 423.765625 777.746094 C 419.230469 777.347656 418.140625 775.347656 419.65625 770.863281 C 419.753906 770.578125 419.878906 770.296875 420 770.019531 C 424.671875 759.164062 423.949219 759.5 435.136719 759.160156 C 439.6875 759.023438 444.265625 759.429688 448.808594 759.8125 C 450.550781 759.957031 452.242188 760.71875 454.335938 761.308594 C 454.253906 767.855469 452.089844 773.332031 449.441406 778.851562 Z M 449.441406 778.851562 " fill-opacity="1" fill-rule="nonzero"/><path fill="#1e2b63" d="M 208.371094 698.691406 C 204.4375 704.914062 201.144531 711.449219 200.792969 719.023438 C 200.664062 721.816406 202.191406 723.597656 205.109375 723.894531 C 212.992188 724.699219 220.886719 725.382812 229.15625 726.152344 C 231.851562 726.152344 234.902344 726.171875 237.949219 726.144531 C 239.925781 726.125 241.820312 725.359375 242.429688 723.535156 C 244.546875 717.1875 246.703125 710.820312 248.203125 704.3125 C 249.132812 700.289062 247.207031 697.847656 243.160156 696.96875 C 232.894531 694.738281 222.535156 694.9375 212.207031 696.53125 C 210.824219 696.742188 209.074219 697.582031 208.371094 698.691406 Z M 218.363281 700.621094 C 225.09375 700.328125 231.796875 700.171875 238.421875 701.613281 C 239.84375 701.921875 241.175781 702.628906 242.734375 703.21875 C 241.96875 709.339844 240.027344 714.6875 237.535156 720.304688 C 227.148438 720.828125 214.230469 719.636719 207.554688 717.601562 C 206.226562 713.484375 208.773438 710.15625 210.082031 706.53125 C 211.515625 702.570312 214.1875 700.804688 218.363281 700.621094 Z M 218.363281 700.621094 " fill-opacity="1" fill-rule="nonzero"/><path fill="#1e2b63" d="M 267.554688 699.597656 C 263.324219 705.605469 260.292969 712.171875 259.03125 719.539062 C 258.636719 721.839844 258.964844 723.769531 260.96875 725.535156 C 266.476562 726.238281 272.210938 727.128906 277.980469 727.660156 C 283.457031 728.164062 288.964844 728.382812 294.464844 728.554688 C 298.578125 728.683594 300.207031 727.6875 301.488281 724.0625 C 303.320312 718.878906 305.136719 713.664062 306.496094 708.34375 C 307.84375 703.089844 305.691406 699.984375 300.480469 699.070312 C 289.550781 697.144531 278.621094 696.757812 267.554688 699.597656 Z M 295.675781 722.585938 C 285.417969 723.425781 275.574219 722.085938 265.582031 720.160156 C 264.722656 713.847656 268.378906 709.503906 270.707031 704.492188 C 280.660156 700.988281 290.421875 703.113281 300.523438 704.578125 C 300.894531 711.574219 298.140625 716.914062 295.675781 722.585938 Z M 295.675781 722.585938 " fill-opacity="1" fill-rule="nonzero"/><path fill="#1e2b63" d="M 474.207031 704.878906 C 473.371094 704.527344 472.453125 704.347656 471.554688 704.183594 C 461.535156 702.355469 451.507812 702.476562 441.523438 704.371094 C 440.160156 704.628906 438.472656 705.515625 437.792969 706.628906 C 434.125 712.644531 431.09375 718.972656 430.5 726.148438 C 430.21875 729.515625 431.660156 731.207031 435.144531 731.546875 C 443.03125 732.316406 450.925781 732.988281 458.769531 733.695312 C 461.28125 733.695312 463.722656 733.734375 466.160156 733.6875 C 470.617188 733.597656 471.953125 732.683594 473.453125 728.257812 C 474.824219 724.214844 476.097656 720.132812 477.164062 716.003906 C 477.691406 713.972656 477.835938 711.792969 477.832031 709.683594 C 477.828125 707.304688 476.324219 705.761719 474.207031 704.878906 Z M 471.035156 717.308594 C 467.171875 729.789062 468.941406 728.570312 456.265625 727.929688 C 450.496094 727.636719 444.753906 726.851562 439.003906 726.226562 C 438.464844 726.167969 437.980469 725.636719 437.15625 725.132812 C 435.820312 719.304688 440.136719 715.132812 441.78125 709.628906 C 452.464844 707.082031 462.015625 707.574219 471.246094 709.953125 C 473.28125 712.839844 471.71875 715.105469 471.035156 717.308594 Z M 471.035156 717.308594 " fill-opacity="1" fill-rule="nonzero"/></svg>