<svg xmlns="http://www.w3.org/2000/svg" xmlns:xlink="http://www.w3.org/1999/xlink" width="300" zoomAndPan="magnify" viewBox="0 0 224.87999 215.999996" height="288" preserveAspectRatio="xMidYMid meet" version="1.0"><defs><clipPath id="e37ecdffc9"><path d="M 91 0.0585938 L 106 0.0585938 L 106 17 L 91 17 Z M 91 0.0585938 " clip-rule="nonzero"/></clipPath><clipPath id="f87c10358f"><path d="M 113 0.0585938 L 124 0.0585938 L 124 16 L 113 16 Z M 113 0.0585938 " clip-rule="nonzero"/></clipPath><clipPath id="db4084027a"><path d="M 205 80 L 224.761719 80 L 224.761719 100 L 205 100 Z M 205 80 " clip-rule="nonzero"/></clipPath><clipPath id="527756ffa1"><path d="M 209 105 L 224.695312 105 L 224.695312 113 L 209 113 Z M 209 105 " clip-rule="nonzero"/></clipPath><clipPath id="41725b97f5"><path d="M 0.183594 109 L 17 109 L 17 123 L 0.183594 123 Z M 0.183594 109 " clip-rule="nonzero"/></clipPath><clipPath id="ef5d967662"><path d="M 207 118 L 224.695312 118 L 224.695312 136 L 207 136 Z M 207 118 " clip-rule="nonzero"/></clipPath><clipPath id="c31c09e164"><path d="M 141 198 L 157 198 L 157 215.941406 L 141 215.941406 Z M 141 198 " clip-rule="nonzero"/></clipPath></defs><g clip-path="url(#e37ecdffc9)"><path fill="#ffffff" d="M 102.222656 0.0742188 C 102.382812 0.0742188 103.039062 0.00390625 103.039062 0.15625 L 103.121094 0.15625 C 103.042969 0.753906 103.558594 3.75 102.875 3.75 C 102.585938 3.195312 102.527344 2.394531 101.917969 2.046875 C 101.222656 1.648438 96.460938 2.023438 96.015625 2.589844 C 95.597656 3.121094 96.066406 6.804688 96.539062 7.214844 C 96.882812 7.511719 97.644531 7.425781 98.136719 7.425781 C 98.734375 7.175781 99.550781 7.101562 100.257812 7.101562 C 100.746094 6.835938 101.261719 6.710938 101.429688 6.105469 C 101.523438 5.777344 101.546875 5.359375 101.789062 5.101562 C 101.832031 5.074219 101.878906 5.050781 101.925781 5.023438 C 102.433594 4.957031 102.355469 8.691406 102.367188 9.386719 C 102.371094 9.730469 101.894531 10.476562 101.894531 10.125 C 101.597656 9.597656 101.578125 8.84375 101.039062 8.457031 C 100.328125 7.949219 97.019531 8.226562 96.609375 8.910156 C 96.175781 9.632812 96.929688 14.125 97.574219 14.5 C 98.289062 14.914062 99.59375 14.449219 100.421875 14.449219 C 100.613281 14.421875 100.804688 14.398438 100.996094 14.371094 C 101.160156 14.339844 101.320312 14.316406 101.484375 14.289062 C 101.648438 14.261719 101.8125 14.234375 101.976562 14.207031 C 102.273438 14.179688 102.578125 14.152344 102.875 14.125 C 104.015625 13.507812 104.835938 12.949219 104.835938 11.429688 C 104.941406 11.398438 105.324219 11.261719 105.324219 11.429688 L 105.40625 11.429688 C 105.453125 12.199219 105.535156 14.757812 104.984375 15.238281 C 104.925781 15.265625 104.863281 15.300781 104.804688 15.332031 C 103.5625 15.367188 102.320312 15.40625 101.078125 15.4375 C 99.28125 15.664062 97.488281 15.886719 95.691406 16.113281 C 95.332031 16.164062 93.398438 16.597656 93.398438 16.328125 L 93.316406 16.328125 C 93.347656 16.164062 93.371094 16.003906 93.398438 15.839844 C 93.90625 15.675781 94.75 15.617188 95.007812 15.058594 C 95.464844 14.054688 94.324219 3.855469 93.824219 2.800781 C 93.445312 2 91.761719 2.289062 91.761719 1.707031 C 92.269531 1.453125 92.757812 1.378906 93.398438 1.378906 C 93.613281 1.351562 93.835938 1.328125 94.050781 1.296875 C 94.652344 1.269531 95.253906 1.246094 95.847656 1.21875 C 96.066406 1.191406 96.285156 1.164062 96.5 1.136719 C 96.828125 1.109375 97.15625 1.082031 97.480469 1.054688 C 97.675781 1.027344 97.867188 1 98.058594 0.972656 C 99.5 0.535156 100.828125 0.769531 102.222656 0.0742188 " fill-opacity="1" fill-rule="evenodd"/></g><g clip-path="url(#f87c10358f)"><path fill="#ffffff" d="M 117.417969 0.402344 C 118.464844 0.402344 119.445312 0.425781 120.355469 0.652344 C 120.820312 0.828125 121.285156 1 121.75 1.171875 C 122.128906 1.230469 122.800781 0.878906 123.019531 1.289062 C 122.945312 1.828125 122.878906 2.371094 122.804688 2.910156 C 122.835938 3.46875 123.054688 4.421875 122.71875 4.878906 C 122.621094 4.9375 122.527344 4.996094 122.429688 5.050781 C 122.132812 5.03125 122.101562 4.457031 122.070312 4.242188 C 121.550781 0.984375 115.847656 0.03125 116.234375 3.417969 C 116.644531 6.992188 124.648438 7.785156 122.8125 13.019531 C 121.621094 16.40625 118.359375 15.875 115.371094 15.632812 C 114.773438 15.675781 114.171875 15.714844 113.578125 15.757812 C 113.464844 15.757812 113.496094 15.78125 113.496094 15.679688 L 113.414062 15.679688 C 113.492188 15.242188 113.574219 14.804688 113.652344 14.367188 C 113.707031 13.40625 112.902344 11.605469 113.742188 10.875 C 113.820312 10.804688 114.152344 10.605469 114.152344 10.777344 L 114.230469 10.777344 C 114.230469 11.460938 114.246094 12.089844 114.527344 12.625 C 115.695312 14.84375 120.761719 16.011719 121.4375 12.722656 C 122.191406 9.042969 114.445312 7.964844 114.582031 3.667969 C 114.640625 1.695312 115.941406 1.136719 117.417969 0.402344 " fill-opacity="1" fill-rule="evenodd"/></g><path fill="#ffffff" d="M 131.140625 1.871094 C 132.625 1.917969 134 2.398438 135.324219 2.796875 C 137.363281 3.40625 139.726562 3.996094 142.007812 3.996094 C 142.058594 4.730469 141.5625 7.097656 140.921875 7.371094 C 140.84375 7.402344 140.78125 7.480469 140.78125 7.34375 L 140.703125 7.34375 C 140.738281 6.765625 140.886719 5.992188 140.535156 5.527344 C 140.117188 4.976562 135.246094 3.710938 134.644531 4.234375 C 134.136719 4.679688 134.0625 5.566406 133.902344 6.191406 C 133.746094 6.761719 133.347656 8.042969 133.660156 8.609375 C 134.007812 9.25 137.164062 9.792969 138.003906 9.792969 C 138.210938 9.613281 139.640625 7.863281 139.640625 8.324219 L 139.722656 8.324219 C 139.664062 9.160156 139.308594 9.726562 139.109375 10.457031 C 138.898438 11.210938 138.832031 12.199219 138.449219 12.871094 C 138.324219 13.09375 138.15625 13.203125 137.910156 13.265625 C 137.816406 13.292969 137.761719 13.359375 137.761719 13.222656 L 137.679688 13.222656 C 137.71875 12.550781 137.90625 11.875 137.542969 11.296875 C 137.207031 10.765625 134.003906 9.8125 133.382812 10.183594 C 132.792969 10.539062 131.941406 14.679688 132.140625 15.484375 C 132.34375 16.28125 137.496094 17.402344 138.464844 17.136719 C 139.046875 16.972656 139.464844 16.535156 139.761719 16.027344 C 139.882812 15.777344 140.007812 15.523438 140.128906 15.265625 C 140.265625 15.265625 140.621094 15.207031 140.621094 15.347656 L 140.699219 15.347656 C 140.648438 16.140625 139.773438 18.671875 139.027344 18.898438 C 138.472656 19.058594 136.21875 18.144531 135.558594 17.953125 C 134.792969 17.800781 134.027344 17.644531 133.257812 17.488281 C 131.59375 17.105469 129.878906 16.65625 128.035156 16.65625 C 128.035156 16.308594 128.136719 16.078125 128.460938 15.988281 C 128.988281 15.847656 129.539062 15.902344 129.863281 15.402344 C 130.28125 14.746094 130.414062 13.824219 130.601562 13.066406 C 130.996094 11.476562 131.339844 9.871094 131.765625 8.261719 C 132.117188 6.925781 132.753906 5.300781 132.664062 3.828125 C 132.582031 2.550781 130.925781 2.929688 131.140625 1.871094 " fill-opacity="1" fill-rule="evenodd"/><path fill="#ffffff" d="M 89.230469 16.085938 C 88.570312 16.085938 88.167969 16.761719 87.359375 16.683594 C 86.382812 16.585938 81.597656 13.453125 81.183594 12.511719 C 80.910156 11.890625 81.457031 11.011719 81.523438 10.363281 C 81.769531 7.722656 80.441406 5.21875 77.632812 5.21875 C 76.585938 5.523438 71.011719 7.476562 70.742188 8.21875 C 70.558594 8.71875 71.257812 8.554688 71.515625 8.5 C 71.914062 8.410156 72.382812 8.402344 72.660156 8.71875 C 73.375 9.535156 73.835938 11.554688 74.171875 12.632812 C 74.859375 14.855469 76.210938 17.324219 76.480469 19.679688 C 76.53125 20.171875 76.457031 20.605469 76.035156 20.847656 C 75.832031 20.964844 74.90625 21.257812 75.246094 21.667969 C 75.523438 22.003906 80.257812 20.425781 80.683594 20.0625 C 81.28125 19.550781 80.367188 19.457031 80 19.679688 C 77.824219 19.679688 77.703125 17.292969 77.066406 15.75 C 76.929688 15.414062 76.746094 14.851562 77.066406 14.542969 C 77.429688 14.191406 77.992188 14.140625 78.464844 14.003906 C 78.878906 13.890625 79.453125 13.621094 79.910156 13.75 C 80.621094 13.945312 81.089844 14.585938 81.621094 15.121094 C 83.605469 17.105469 86.097656 19.773438 88.863281 17.261719 C 89.230469 16.929688 89.378906 16.585938 89.230469 16.085938 M 80.128906 11.816406 C 79.792969 12.273438 79.1875 12.375 78.691406 12.566406 C 78.039062 12.738281 77.386719 12.902344 76.734375 13.070312 C 75.742188 13.054688 74.257812 8.296875 74.695312 7.554688 C 75.0625 6.921875 76.203125 6.871094 76.816406 6.609375 C 77.480469 6.785156 78.097656 6.921875 78.648438 7.320312 C 79.644531 8.046875 81.011719 10.597656 80.128906 11.816406 " fill-opacity="1" fill-rule="evenodd"/><path fill="#ffffff" d="M 158.917969 25.480469 C 158.917969 25.367188 158.230469 25.300781 158.085938 25.257812 C 157.660156 25.125 157.308594 24.976562 157.007812 24.617188 C 156.160156 23.589844 155.5 19.746094 155.300781 18.28125 C 155.261719 18 155.246094 17.570312 155.390625 17.351562 C 155.769531 17.085938 156.148438 16.816406 156.527344 16.546875 C 157.5 15.8125 158.261719 14.839844 158.617188 13.695312 C 159.832031 9.742188 155.996094 9.003906 153.285156 8.222656 C 152.273438 7.933594 151.554688 7.289062 150.425781 7.179688 C 150.316406 7.261719 150.207031 7.347656 150.09375 7.425781 C 150.09375 7.9375 151.558594 8.101562 151.542969 8.976562 C 151.527344 9.84375 147.195312 19.597656 146.589844 20.085938 C 145.96875 20.589844 145.257812 19.929688 144.539062 20.171875 C 144.539062 20.726562 145.402344 21.027344 145.789062 21.191406 C 146.425781 21.417969 147.058594 21.640625 147.695312 21.867188 C 148.261719 22.15625 148.882812 22.6875 149.546875 22.765625 C 149.742188 22.789062 150.007812 22.792969 150.121094 22.617188 C 150.113281 22.53125 150.101562 22.4375 150.09375 22.347656 C 149.773438 21.890625 149.050781 21.808594 148.832031 21.253906 C 148.472656 20.34375 149.941406 16.6875 150.667969 16.167969 C 150.667969 16.027344 151.335938 16.351562 151.488281 16.410156 C 152.179688 16.671875 153.277344 17.109375 153.648438 17.828125 C 153.722656 18.394531 153.796875 18.953125 153.875 19.515625 C 154.097656 21.875 153.878906 25.113281 156.460938 25.824219 C 157.3125 26.054688 158.222656 26.082031 159.003906 25.726562 L 159.003906 25.480469 Z M 152.84375 15.722656 C 152.359375 15.46875 151.582031 15.277344 151.3125 14.738281 C 150.960938 14.039062 153.085938 10.042969 153.605469 9.386719 C 156.824219 9.484375 157.59375 12.40625 156.398438 14.949219 C 156.125 15.523438 155.582031 16.238281 154.90625 16.363281 C 154.171875 16.496094 153.425781 16.027344 152.84375 15.722656 " fill-opacity="1" fill-rule="evenodd"/><path fill="#ffffff" d="M 166.925781 14.699219 C 167.222656 14.777344 167.527344 14.855469 167.824219 14.933594 C 168.210938 15.160156 171.550781 17.496094 171.613281 17.621094 C 171.660156 17.722656 171.816406 18.128906 171.660156 18.128906 L 171.660156 18.210938 C 171.058594 18.074219 170.242188 17.515625 169.65625 18.007812 C 168.816406 18.707031 166.414062 28.515625 166.980469 29.742188 C 167.023438 29.785156 167.0625 29.832031 167.101562 29.875 C 167.996094 30.304688 176.1875 24.726562 176.714844 23.398438 C 176.988281 22.703125 176.679688 22.210938 176.171875 21.789062 C 176.0625 21.699219 175.398438 20.90625 175.746094 20.90625 L 175.746094 20.824219 C 176.476562 20.894531 180.433594 23.363281 180.871094 23.941406 C 181.066406 24.203125 180.976562 24.414062 180.976562 24.746094 C 180.457031 24.574219 179.988281 24.109375 179.367188 24.203125 C 177.890625 24.414062 174.617188 26.882812 173.261719 27.796875 C 171.511719 28.808594 169.765625 29.820312 168.011719 30.828125 C 167.457031 31.15625 165.992188 32.097656 165.371094 32.097656 C 164.855469 31.1875 165.085938 30.097656 165.183594 29.074219 C 165.464844 26.078125 166.164062 23.324219 166.789062 20.503906 C 167.054688 19.410156 167.324219 18.3125 167.59375 17.21875 C 167.738281 16.144531 166.789062 15.648438 166.925781 14.699219 " fill-opacity="1" fill-rule="evenodd"/><path fill="#ffffff" d="M 46.914062 20.496094 C 47.625 20.691406 47.375 21.085938 47.082031 21.558594 C 46.75 22.089844 46.871094 22.578125 47.152344 23.113281 C 47.609375 23.984375 48.390625 24.582031 49.054688 25.367188 C 50.640625 27.230469 52.425781 29.089844 54.054688 31 C 54.519531 31.539062 55.339844 32.160156 55.460938 32.855469 C 55.488281 33.046875 55.472656 33.304688 55.304688 33.414062 C 54.496094 33.921875 51.722656 33.339844 50.75 33.265625 C 47.40625 32.949219 44.058594 32.640625 40.707031 32.320312 C 40.472656 32.292969 38.828125 32.167969 38.828125 32.34375 L 38.746094 32.34375 C 38.746094 32.457031 38.691406 32.503906 38.828125 32.503906 C 39.597656 33.925781 41.394531 35.539062 42.574219 36.757812 C 43.402344 37.617188 44.164062 38.714844 45.160156 39.386719 C 45.617188 39.695312 46.046875 39.941406 46.667969 39.941406 C 46.929688 39.78125 48.328125 38.800781 48.523438 39.152344 C 48.628906 39.355469 48.523438 39.574219 48.410156 39.730469 C 48.179688 40.046875 44.84375 42.894531 44.613281 42.921875 C 44.371094 42.949219 44.054688 42.828125 44.054688 42.554688 C 44.429688 42.152344 44.582031 41.730469 44.398438 41.1875 C 44 40.019531 42.710938 38.992188 41.890625 38.03125 C 41.054688 37.089844 40.222656 36.148438 39.390625 35.210938 C 38.605469 34.320312 37.804688 33.148438 36.757812 32.546875 C 36.132812 32.179688 35.363281 32.050781 34.742188 32.503906 C 34.496094 32.679688 33.78125 33.125 33.824219 32.433594 C 33.859375 31.863281 35.9375 30.210938 36.46875 30.125 C 37.542969 29.9375 39.488281 30.492188 40.625 30.605469 C 43.078125 30.835938 45.527344 31.070312 47.972656 31.300781 C 49.382812 31.410156 50.816406 31.691406 52.308594 31.691406 C 52.417969 31.636719 52.527344 31.582031 52.632812 31.527344 C 52.625 31.5 52.617188 31.476562 52.609375 31.453125 C 52.386719 30.824219 51.746094 30.339844 51.328125 29.8125 C 50.453125 28.832031 49.574219 27.855469 48.699219 26.878906 C 47.910156 25.988281 47.011719 24.757812 45.96875 24.167969 C 45.378906 23.828125 44.753906 23.703125 44.121094 24.058594 C 44.007812 24.121094 43.242188 24.5625 43.242188 24.335938 L 43.160156 24.335938 C 43.304688 23.148438 44.5 22.96875 45.253906 22.265625 C 45.804688 21.679688 46.359375 21.085938 46.914062 20.496094 " fill-opacity="1" fill-rule="evenodd"/><path fill="#ffffff" d="M 98.296875 23.273438 C 99.070312 23.375 99.160156 23.730469 99.199219 24.5 C 99.988281 32.445312 100.777344 40.390625 101.566406 48.339844 C 104.34375 75.195312 107.125 102.050781 109.902344 128.910156 L 109.820312 128.910156 L 109.820312 128.988281 C 109.546875 129.015625 109.277344 129.042969 109.003906 129.070312 C 108.683594 128.378906 108.734375 127.605469 108.632812 126.800781 C 108.476562 125.707031 108.320312 124.609375 108.164062 123.515625 C 107.558594 118.589844 106.945312 113.667969 106.332031 108.742188 C 103.640625 88.472656 100.953125 68.207031 98.261719 47.9375 C 97.355469 40.816406 96.453125 33.695312 95.546875 26.570312 C 95.457031 25.71875 95.367188 24.863281 95.277344 24.007812 C 95.714844 23.6875 96.472656 23.601562 97.078125 23.601562 C 97.402344 23.546875 97.730469 23.496094 98.058594 23.4375 C 98.136719 23.382812 98.21875 23.332031 98.296875 23.273438 " fill-opacity="1" fill-rule="evenodd"/><path fill="#ffffff" d="M 124.933594 23.273438 C 126.132812 23.484375 127.332031 23.699219 128.527344 23.90625 C 128.648438 23.917969 128.855469 23.867188 128.855469 24.011719 L 128.933594 24.011719 C 128.738281 25.023438 128.710938 26.027344 128.566406 27.105469 C 127.703125 33.699219 127.050781 40.445312 126.113281 47.121094 C 123.742188 66.320312 121.371094 85.527344 118.996094 104.726562 C 118.699219 107.308594 118.402344 109.890625 118.105469 112.472656 C 117.386719 117.027344 116.820312 121.789062 116.378906 126.457031 C 116.289062 127.300781 116.203125 128.148438 116.113281 128.988281 C 116.085938 129.015625 116.054688 129.042969 116.027344 129.070312 L 116.027344 129.152344 C 115.832031 129.152344 114.800781 129.21875 114.800781 129.070312 L 114.722656 129.070312 C 115.011719 127.96875 114.972656 126.738281 115.070312 125.558594 C 115.292969 123.246094 115.507812 120.929688 115.730469 118.617188 C 116.347656 112.214844 116.90625 105.796875 117.523438 99.332031 C 118.726562 86.59375 119.929688 73.851562 121.128906 61.105469 C 121.601562 56.472656 122.074219 51.84375 122.546875 47.210938 C 122.824219 41.195312 123.609375 35.179688 124.179688 29.238281 C 124.320312 27.699219 124.328125 24.480469 124.933594 23.273438 " fill-opacity="1" fill-rule="evenodd"/><path fill="#ffffff" d="M 185.792969 28.339844 C 186.207031 28.421875 186.511719 28.574219 186.824219 28.859375 C 188.328125 30.457031 189.832031 32.058594 191.335938 33.660156 C 191.953125 34.242188 193.496094 35.066406 193.792969 35.804688 C 193.800781 35.832031 193.804688 35.855469 193.8125 35.878906 C 193.859375 36.261719 192.269531 37.625 191.917969 37.890625 C 191.699219 38.050781 191.023438 38.246094 191.023438 37.734375 C 191.464844 37.335938 191.9375 36.765625 191.8125 36.121094 C 191.6875 35.476562 188.3125 32.035156 187.679688 32.0625 C 186.996094 32.085938 184.875 34.183594 184.484375 34.839844 C 183.964844 35.71875 186.730469 38.203125 187.53125 38.398438 C 188.152344 38.546875 188.59375 38.121094 189.148438 38.023438 C 189.378906 37.980469 189.714844 38.121094 189.714844 38.386719 C 188.96875 38.953125 188.226562 39.515625 187.476562 40.078125 C 186.898438 40.539062 186.464844 41.183594 185.789062 41.472656 C 185.691406 41.511719 185.390625 41.640625 185.390625 41.492188 L 185.304688 41.492188 C 185.421875 40.746094 186.0625 40.320312 186.160156 39.53125 C 186.234375 38.925781 183.925781 36.445312 183.324219 36.390625 C 182.605469 36.320312 179.285156 39.578125 179.203125 40.28125 C 179.105469 41.035156 183.015625 44.660156 183.785156 44.910156 C 184.425781 45.117188 185.003906 44.910156 185.539062 44.65625 C 185.652344 44.597656 186.367188 44.195312 186.367188 44.433594 L 186.449219 44.433594 C 186.019531 45.632812 184.203125 46.640625 182.9375 46.640625 C 181.917969 44.679688 179.34375 42.332031 177.597656 40.789062 C 176.886719 40.164062 175.65625 39.449219 175.234375 38.601562 C 175.214844 38.53125 175.195312 38.460938 175.175781 38.386719 C 176.019531 38.148438 176.492188 39.113281 177.425781 38.855469 C 178.253906 38.621094 186.042969 31.003906 186.285156 30.191406 C 186.5 29.433594 185.550781 29.160156 185.550781 28.503906 C 185.628906 28.449219 185.710938 28.398438 185.792969 28.339844 " fill-opacity="1" fill-rule="evenodd"/><path fill="#ffffff" d="M 110.0625 29.484375 C 110.554688 29.511719 111.046875 29.539062 111.535156 29.5625 L 112.761719 29.5625 C 113.714844 29.617188 114.671875 29.675781 115.621094 29.730469 C 115.789062 30.675781 115.632812 31.734375 115.574219 32.667969 C 115.546875 34.085938 115.515625 35.503906 115.488281 36.917969 C 115.40625 41.902344 115.128906 47.054688 115.050781 52.03125 C 114.90625 61.300781 114.375 70.632812 114.234375 79.890625 C 114.101562 88.097656 113.964844 95.859375 113.589844 103.910156 C 113.585938 106.058594 113.578125 108.214844 113.574219 110.363281 C 113.464844 113.140625 113.359375 115.917969 113.25 118.695312 C 113.25 120.003906 113.4375 124.386719 112.9375 125.214844 C 112.644531 125.691406 111.707031 125.316406 111.289062 125.316406 C 111.289062 116.699219 110.882812 108.199219 110.488281 99.65625 C 110.46875 97.945312 110.453125 96.230469 110.4375 94.515625 C 109.804688 84.777344 109.785156 75.210938 109.476562 65.347656 C 109.347656 61.164062 109.003906 57 109.003906 52.769531 C 109.003906 45.953125 108.554688 39.085938 108.4375 32.261719 C 108.425781 31.769531 108.214844 29.730469 108.429688 29.730469 C 108.769531 29.597656 109.164062 29.648438 109.574219 29.648438 C 109.738281 29.59375 109.902344 29.539062 110.0625 29.484375 " fill-opacity="1" fill-rule="evenodd"/><path fill="#ffffff" d="M 70.195312 32.425781 C 70.332031 32.425781 70.6875 32.363281 70.6875 32.503906 C 71.488281 34.84375 72.292969 37.183594 73.09375 39.515625 C 74.996094 45.238281 76.898438 50.957031 78.800781 56.675781 C 81.054688 63.25 83.316406 69.828125 85.574219 76.402344 C 88.535156 85.242188 91.5 94.085938 94.457031 102.925781 C 96.855469 109.847656 99.164062 116.855469 101.542969 123.808594 C 102.230469 125.722656 102.917969 127.644531 103.609375 129.558594 L 103.527344 129.558594 L 103.527344 129.640625 C 103.0625 129.625 102.644531 129.710938 102.382812 129.339844 C 101.65625 128.324219 101.105469 126.015625 100.609375 124.769531 C 98.484375 119.378906 96.519531 113.890625 94.59375 108.410156 C 93.230469 104.808594 91.867188 101.203125 90.503906 97.597656 C 86.882812 87.949219 83.402344 78.296875 79.886719 68.628906 C 77.8125 63.089844 75.742188 57.550781 73.667969 52.015625 C 71.867188 47.179688 70.070312 42.347656 68.265625 37.511719 C 68.03125 36.765625 67.074219 34.992188 67.285156 34.25 C 67.476562 33.5625 69.59375 32.898438 70.195312 32.425781 " fill-opacity="1" fill-rule="evenodd"/><path fill="#ffffff" d="M 153.363281 32.667969 C 154.109375 32.761719 156.558594 33.660156 156.808594 34.441406 C 157.023438 35.109375 156.144531 36.746094 155.929688 37.417969 C 154.296875 42.046875 152.660156 46.675781 151.023438 51.304688 C 144.023438 70.546875 137.019531 89.785156 130.019531 109.03125 C 128.265625 113.8125 126.511719 118.59375 124.753906 123.375 C 124.058594 125.308594 123.566406 127.449219 122.578125 129.242188 C 122.339844 129.667969 121.257812 130.011719 121.257812 129.230469 C 121.671875 128.535156 121.859375 127.664062 122.113281 126.875 C 122.707031 125.105469 123.300781 123.335938 123.886719 121.558594 C 125.34375 117.28125 126.796875 113 128.253906 108.71875 C 128.933594 106.59375 129.625 104.472656 130.308594 102.351562 C 136.195312 84.707031 142.082031 67.0625 147.972656 49.421875 C 149.769531 43.839844 151.566406 38.253906 153.363281 32.667969 " fill-opacity="1" fill-rule="evenodd"/><path fill="#ffffff" d="M 86.945312 33.324219 C 87.742188 33.679688 90.261719 48.335938 90.761719 50.460938 C 92.046875 55.902344 92.996094 61.417969 94.183594 66.964844 C 96.761719 79.3125 99.335938 91.65625 101.914062 104 C 103.207031 110.390625 104.492188 116.78125 105.78125 123.171875 C 105.875 123.578125 106.394531 125.394531 106.308594 125.394531 C 105.996094 125.734375 104.101562 126.128906 104.101562 125.800781 L 104.019531 125.800781 C 102.097656 118.5 100.179688 111.199219 98.257812 103.894531 C 94.105469 87.859375 89.660156 71.949219 85.574219 55.886719 C 84.230469 50.605469 82.59375 45.460938 81.332031 40.125 C 81.007812 38.773438 80.246094 37.28125 80.246094 35.855469 C 81.84375 34.710938 84.992188 33.972656 86.945312 33.324219 " fill-opacity="1" fill-rule="evenodd"/><path fill="#ffffff" d="M 136.695312 33.40625 C 137.660156 33.46875 143.164062 35.332031 143.375 36.050781 C 143.679688 37.082031 142.925781 38.589844 142.710938 39.546875 C 141.945312 42.9375 141.011719 46.296875 140.261719 49.671875 C 138.769531 56.304688 136.871094 62.820312 135.179688 69.359375 C 132.074219 81.285156 128.960938 93.210938 125.851562 105.136719 C 124.441406 110.558594 123.03125 115.980469 121.625 121.398438 C 121.367188 122.464844 121.078125 124.957031 120.410156 125.703125 C 119.957031 126.210938 118.96875 125.640625 118.480469 125.640625 C 118.554688 123.210938 119.28125 120.714844 119.847656 118.453125 C 120.734375 114.070312 121.621094 109.691406 122.503906 105.308594 C 122.972656 102.828125 123.441406 100.351562 123.90625 97.867188 C 124.90625 93.050781 125.90625 88.234375 126.90625 83.414062 C 127.21875 81.75 127.527344 80.089844 127.832031 78.425781 C 128.617188 74.632812 129.40625 70.84375 130.191406 67.050781 C 131.828125 58.746094 133.464844 50.441406 135.101562 42.136719 C 135.636719 39.226562 136.167969 36.316406 136.695312 33.40625 " fill-opacity="1" fill-rule="evenodd"/><path fill="#ffffff" d="M 40.542969 46.234375 C 40.542969 46.089844 40.46875 46.15625 40.382812 46.175781 C 39.777344 46.304688 39.527344 46.910156 39.019531 47.21875 C 38.683594 47.328125 38.347656 47.429688 38.011719 47.539062 L 35.722656 47.539062 C 34.683594 47.539062 32.082031 47.59375 31.355469 47.0625 C 30.957031 46.769531 30.875 45.863281 30.691406 45.425781 C 29.953125 43.648438 28.414062 42.558594 26.488281 42.3125 C 25.636719 42.5 24.988281 42.566406 24.320312 43.089844 C 23.25 43.921875 22.835938 45.105469 22.144531 46.144531 C 21.628906 46.914062 20.570312 47.773438 20.402344 48.710938 C 20.324219 49.121094 20.527344 49.296875 20.855469 49.417969 C 20.855469 48.792969 21.8125 48.292969 22.316406 48.53125 C 23.65625 49.160156 24.734375 50.300781 25.957031 51.15625 C 27.496094 52.226562 31.242188 54.832031 32.046875 56.441406 C 31.753906 56.441406 31.386719 57.292969 31.226562 57.503906 C 31.257812 57.644531 31.28125 57.777344 31.308594 57.914062 C 31.605469 57.914062 31.839844 57.917969 32.058594 57.746094 C 32.753906 57.171875 33.167969 56.296875 33.660156 55.589844 C 34.285156 54.683594 35.199219 54.269531 35.3125 53.09375 L 35.234375 53.09375 C 35.234375 52.894531 34.75 53.253906 34.65625 53.339844 C 34.246094 53.710938 33.867188 54.222656 33.265625 54.234375 C 32.542969 54.242188 28.882812 51.703125 29.09375 50.933594 C 29.363281 50.589844 29.640625 50.242188 29.914062 49.898438 C 30.25 49.492188 30.648438 48.921875 31.179688 48.773438 C 31.960938 48.554688 32.882812 48.925781 33.601562 49.070312 C 36.828125 49.703125 39.976562 50.222656 40.625 46.234375 Z M 30.15625 47.351562 C 30.039062 47.894531 29.582031 48.289062 29.214844 48.710938 C 28.796875 49.175781 28.375 49.886719 27.777344 50.085938 C 27.207031 50.265625 23.433594 47.242188 23.339844 46.539062 C 23.152344 45.140625 25.40625 44.332031 26.328125 44.027344 C 27.578125 44.328125 30.554688 45.53125 30.15625 47.351562 " fill-opacity="1" fill-rule="evenodd"/><path fill="#ffffff" d="M 61.945312 46.152344 C 62.082031 46.175781 62.21875 46.207031 62.351562 46.234375 C 62.652344 48.074219 63.925781 49.785156 64.613281 51.464844 C 66.632812 56.429688 69.105469 61.214844 71.347656 66.070312 C 78.429688 81.570312 85.503906 97.066406 92.582031 112.5625 C 94.089844 115.886719 95.59375 119.203125 97.09375 122.523438 C 97.472656 123.335938 99.035156 125.859375 99.035156 126.621094 L 98.953125 126.621094 C 98.460938 126.832031 97.207031 127.382812 96.664062 127 C 96.042969 126.554688 94.773438 123.609375 94.355469 122.792969 C 92.199219 118.65625 90.042969 114.519531 87.886719 110.382812 C 79.910156 95.234375 71.953125 79.984375 63.804688 64.949219 C 61.949219 61.519531 60.089844 58.097656 58.230469 54.671875 C 57.703125 53.71875 56.3125 51.726562 56.3125 50.644531 C 57.539062 49.890625 58.644531 48.773438 59.765625 47.816406 C 60.492188 47.261719 61.222656 46.707031 61.945312 46.152344 " fill-opacity="1" fill-rule="evenodd"/><path fill="#ffffff" d="M 161.941406 46.3125 C 162.699219 46.464844 167.203125 50.089844 167.203125 50.800781 C 167.203125 51.59375 166.152344 53.105469 165.769531 53.816406 C 163.851562 57.375 162.058594 61.039062 160.207031 64.648438 C 152.4375 79.644531 144.660156 94.644531 136.886719 109.640625 C 134.734375 113.773438 132.578125 117.914062 130.421875 122.050781 C 129.902344 123.132812 128.707031 126.070312 127.882812 126.785156 C 127.539062 127.089844 126.753906 126.921875 126.371094 126.761719 C 126.238281 126.703125 126.082031 126.597656 126.058594 126.433594 C 125.949219 125.648438 127.351562 123.199219 127.726562 122.421875 C 129.910156 117.589844 132.097656 112.765625 134.277344 107.933594 C 143.5 87.390625 152.722656 66.851562 161.941406 46.3125 " fill-opacity="1" fill-rule="evenodd"/><path fill="#ffffff" d="M 176.726562 49.664062 C 177.308594 49.898438 179.515625 52.207031 179.46875 52.835938 C 179.402344 53.742188 178.03125 55.34375 177.519531 56.152344 C 175.398438 59.457031 173.277344 62.765625 171.152344 66.070312 C 160.859375 82.027344 150.5625 97.980469 140.265625 113.9375 C 136.621094 119.554688 132.988281 125.175781 129.34375 130.792969 C 128.824219 131.386719 127.964844 130.703125 128.039062 130.703125 C 144.265625 103.691406 160.5 76.679688 176.726562 49.664062 " fill-opacity="1" fill-rule="evenodd"/><path fill="#ffffff" d="M 46.179688 50.5625 C 46.425781 50.628906 46.597656 50.726562 46.777344 50.929688 C 50.472656 56.90625 54.175781 62.878906 57.871094 68.851562 C 70.664062 89.523438 83.460938 110.195312 96.253906 130.867188 L 96.175781 130.867188 L 96.175781 130.949219 C 95.753906 130.949219 95.382812 130.980469 95.109375 130.707031 C 93.707031 128.621094 92.304688 126.535156 90.898438 124.445312 C 88.621094 120.933594 86.207031 117.511719 83.996094 113.957031 C 73.816406 98.460938 63.628906 82.96875 53.449219 67.472656 C 51.085938 63.925781 48.71875 60.382812 46.355469 56.839844 C 45.851562 56.144531 44.109375 53.921875 44.109375 53.171875 C 44.109375 52.515625 45.699219 51.105469 46.179688 50.5625 " fill-opacity="1" fill-rule="evenodd"/><path fill="#ffffff" d="M 14.480469 56.609375 C 15.109375 56.644531 17.769531 57.789062 17.480469 58.40625 C 17.328125 58.730469 16.828125 58.457031 16.605469 58.394531 C 16.28125 58.304688 15.914062 58.242188 15.605469 58.410156 C 14.96875 58.753906 12.875 62.34375 12.769531 63.078125 C 12.71875 63.398438 12.839844 63.683594 13.066406 63.886719 C 13.550781 64.328125 16.28125 65.839844 16.898438 65.648438 C 17.457031 65.472656 18.988281 62.53125 19.019531 61.910156 C 19.039062 61.441406 18.703125 61.082031 18.398438 60.789062 C 18.207031 60.59375 18.023438 60.398438 17.832031 60.203125 L 17.832031 60.039062 C 18.082031 59.953125 18.363281 59.933594 18.613281 60.035156 C 19.167969 60.417969 19.71875 60.804688 20.273438 61.1875 C 20.898438 61.605469 21.765625 61.851562 22.265625 62.453125 C 22.339844 62.546875 22.578125 62.898438 22.40625 62.898438 L 22.40625 62.980469 C 21.777344 62.921875 21.09375 62.566406 20.476562 62.757812 C 19.882812 62.929688 18.097656 65.824219 18.308594 66.386719 C 18.542969 67.019531 22.332031 69.113281 23.050781 69.074219 C 24.003906 69.019531 26.394531 64.121094 26.277344 63.066406 C 26.183594 62.246094 25.023438 61.671875 25.023438 61.101562 L 25.101562 61.101562 L 25.101562 61.019531 C 25.796875 61.160156 28.226562 62.632812 28.226562 63.472656 C 28.226562 63.839844 26.296875 66.417969 25.976562 67.015625 C 25.089844 68.65625 24.28125 70.328125 23.433594 71.992188 C 23.210938 72.421875 23.082031 72.796875 22.5625 72.925781 C 22.472656 72.953125 22.488281 72.964844 22.488281 72.867188 L 22.40625 72.867188 C 22.4375 72.28125 22.722656 71.695312 22.355469 71.191406 C 21.714844 70.304688 12.828125 65.484375 11.691406 65.351562 C 10.707031 65.230469 10.613281 66.496094 9.824219 66.496094 L 9.824219 66.410156 L 9.742188 66.410156 C 9.847656 64.773438 11.847656 62.144531 12.6875 60.699219 C 13.4375 59.402344 13.902344 57.992188 14.480469 56.609375 " fill-opacity="1" fill-rule="evenodd"/><path fill="#ffffff" d="M 210.136719 57.261719 C 210.386719 57.308594 210.617188 57.363281 210.78125 57.574219 C 211.308594 58.25 211.375 59.246094 211.722656 60.015625 C 212.132812 60.738281 212.539062 61.460938 212.949219 62.183594 C 212.996094 62.296875 213.171875 62.898438 213 62.898438 L 213 62.976562 C 212.136719 62.71875 212.039062 61.554688 211.03125 61.503906 C 209.863281 61.445312 207.503906 62.722656 206.472656 63.238281 C 202.84375 65.054688 197.644531 66.425781 200.894531 71.753906 C 201.5625 72.839844 202.8125 73.789062 204.09375 73.890625 C 206.402344 74.070312 209.511719 72.238281 211.46875 71.359375 C 212.550781 70.871094 213.960938 70.511719 214.820312 69.625 C 215.414062 69.007812 214.8125 68.234375 214.726562 67.550781 C 214.722656 67.527344 214.722656 67.5 214.71875 67.472656 L 214.796875 67.472656 L 214.796875 67.390625 C 215.117188 67.453125 215.375 67.546875 215.574219 67.824219 C 216.042969 68.464844 216.097656 69.292969 216.445312 69.992188 C 216.753906 70.605469 217.425781 71.292969 217.53125 71.992188 C 217.585938 72.375 217.082031 72.710938 217.082031 72.617188 C 216.828125 72.164062 216.636719 71.570312 216.015625 71.53125 C 215.019531 71.46875 204.644531 76.109375 204.273438 76.757812 C 203.761719 77.648438 204.75 78.042969 204.75 78.746094 C 204.542969 78.824219 204.277344 78.945312 204.050781 78.832031 C 203.65625 78.632812 202.382812 76.484375 202.390625 76.050781 C 202.394531 75.660156 202.671875 75.46875 202.914062 75.203125 C 203.007812 75.09375 203.128906 74.824219 203.277344 74.824219 L 203.277344 74.660156 C 200.945312 73.242188 199.6875 72.039062 199.039062 69.265625 C 198.042969 64.980469 200.847656 63.800781 204.097656 62.421875 C 205.355469 61.859375 206.617188 61.300781 207.871094 60.738281 C 208.578125 60.417969 209.457031 60.179688 210.003906 59.578125 C 210.648438 58.875 209.871094 58.058594 210.136719 57.261719 " fill-opacity="1" fill-rule="evenodd"/><path fill="#ffffff" d="M 180.484375 65.757812 C 181.25 66.15625 184.707031 71.824219 184.535156 72.589844 C 184.359375 73.347656 182.71875 74.835938 182.152344 75.5 C 179.914062 78.125 177.679688 80.800781 175.367188 83.425781 C 171.894531 87.527344 168.425781 91.625 164.953125 95.726562 C 159.089844 102.5 153.234375 109.277344 147.371094 116.050781 C 144.746094 119.144531 142.125 122.238281 139.5 125.332031 C 138.800781 126.140625 137.242188 128.386719 136.402344 128.820312 C 135.898438 129.078125 134.945312 128.691406 134.550781 128.414062 C 134.414062 128.316406 134.316406 128.199219 134.324219 128.027344 C 134.351562 127.285156 135.828125 125.792969 136.285156 125.15625 C 139.160156 121.253906 142.042969 117.351562 144.917969 113.449219 C 152.851562 102.789062 160.796875 92.136719 168.730469 81.476562 C 170.835938 78.648438 172.941406 75.824219 175.042969 72.996094 C 175.96875 71.746094 176.894531 70.496094 177.824219 69.238281 C 178.714844 68.085938 179.429688 66.8125 180.484375 65.757812 " fill-opacity="1" fill-rule="evenodd"/><path fill="#ffffff" d="M 43.15625 66.082031 C 43.835938 66.328125 44.808594 68.03125 45.308594 68.667969 C 47.742188 71.796875 50.269531 74.882812 52.523438 78.128906 C 61.507812 89.835938 70.492188 101.542969 79.472656 113.25 C 80.917969 115.1875 82.363281 117.125 83.804688 119.0625 C 85.929688 122.007812 88.5 124.644531 90.464844 127.671875 C 90.535156 127.78125 90.554688 127.929688 90.703125 127.929688 L 90.703125 128.089844 L 90.621094 128.089844 L 90.621094 128.171875 C 89.859375 128.265625 88.835938 129 88.066406 128.691406 C 87.480469 128.449219 85.316406 125.734375 84.789062 125.097656 C 81.886719 121.765625 78.984375 118.4375 76.078125 115.101562 C 70.316406 108.226562 64.390625 101.617188 58.386719 94.8125 C 52.269531 87.777344 46.152344 80.738281 40.035156 73.703125 C 39.824219 73.464844 39.464844 73.113281 39.464844 72.777344 C 39.464844 71.378906 42.277344 67.363281 43.15625 66.082031 " fill-opacity="1" fill-rule="evenodd"/><path fill="#ffffff" d="M 193.230469 73.273438 C 193.789062 73.671875 195.066406 76.523438 194.820312 77.21875 C 194.535156 78.027344 193.445312 78.710938 192.855469 79.34375 C 190.425781 81.679688 187.996094 84.019531 185.566406 86.355469 C 173.703125 97.804688 161.84375 109.257812 149.984375 120.707031 C 145.628906 124.929688 141.28125 129.148438 136.925781 133.367188 C 136.617188 133.550781 136.148438 133.445312 135.914062 133.203125 C 135.460938 132.753906 136.730469 131.765625 137.039062 131.457031 C 140.945312 127.4375 144.847656 123.417969 148.75 119.394531 C 159.632812 108.195312 170.519531 96.996094 181.402344 85.792969 C 184.125 82.960938 186.851562 80.132812 189.574219 77.296875 C 190.777344 76.054688 192.429688 74.765625 193.230469 73.273438 " fill-opacity="1" fill-rule="evenodd"/><path fill="#ffffff" d="M 6.230469 73.355469 C 6.976562 73.476562 8.847656 73.921875 9.121094 74.675781 C 9.148438 74.757812 9.234375 74.824219 9.089844 74.824219 L 9.089844 74.90625 C 7.171875 74.90625 6.960938 76.800781 6.589844 78.265625 C 6.550781 78.414062 6.371094 79.074219 6.476562 79.074219 C 7.230469 80.097656 16.289062 82.503906 17.992188 82.503906 C 18.628906 82.097656 19.054688 81.746094 19.183594 80.945312 C 19.203125 80.828125 19.175781 80.707031 19.300781 80.707031 L 19.300781 80.625 C 19.429688 80.625 19.710938 80.566406 19.710938 80.707031 C 19.851562 81.085938 19.824219 81.433594 19.746094 81.839844 C 19.472656 82.632812 19.195312 83.429688 18.917969 84.226562 C 18.738281 84.910156 18.851562 85.84375 18.46875 86.4375 C 18.363281 86.511719 18.253906 86.582031 18.144531 86.652344 C 17.726562 86.664062 17.832031 85.910156 17.804688 85.609375 C 17.757812 85.101562 17.519531 84.796875 17.109375 84.53125 C 16.078125 83.863281 14.640625 83.6875 13.445312 83.339844 C 11.441406 82.757812 9.457031 82.214844 7.390625 81.726562 C 7.214844 81.683594 6.230469 81.46875 6.230469 81.605469 C 5.445312 82.042969 4.433594 85.007812 4.898438 85.886719 C 5.289062 86.636719 5.925781 86.675781 6.542969 87.09375 C 6.757812 87.238281 6.871094 87.59375 6.539062 87.675781 C 5.90625 87.820312 3.027344 86.972656 2.882812 86.484375 C 2.875 86.382812 2.863281 86.28125 2.855469 86.183594 C 3.121094 85.492188 3.382812 84.808594 3.648438 84.117188 C 4.0625 82.785156 4.476562 81.457031 4.890625 80.128906 C 5.269531 78.523438 5.648438 76.914062 6.027344 75.308594 C 6.132812 74.65625 6.007812 73.925781 6.230469 73.355469 " fill-opacity="1" fill-rule="evenodd"/><path fill="#ffffff" d="M 30.246094 74.335938 C 31.1875 74.71875 33.445312 77.425781 34.277344 78.308594 C 36.582031 80.628906 38.890625 82.953125 41.195312 85.277344 C 43.628906 87.636719 46.0625 89.996094 48.492188 92.355469 C 51.183594 95.40625 54.28125 98.289062 57.207031 101.125 C 58.363281 102.339844 59.519531 103.554688 60.671875 104.769531 C 65.3125 109.417969 69.949219 114.0625 74.585938 118.710938 C 78.816406 122.921875 83.054688 127.128906 87.285156 131.335938 C 87.535156 131.589844 88.824219 132.667969 88.523438 132.941406 C 88.335938 133.113281 88.039062 133.160156 87.804688 133.066406 C 86.773438 132.652344 84.710938 130.261719 83.777344 129.378906 C 80.496094 126.339844 77.21875 123.304688 73.9375 120.265625 C 62.523438 109.597656 51.113281 98.929688 39.699219 88.257812 C 37.085938 85.804688 34.476562 83.347656 31.863281 80.894531 C 31.09375 80.152344 29.308594 78.929688 28.882812 78.035156 C 28.570312 77.371094 29.886719 74.960938 30.246094 74.335938 " fill-opacity="1" fill-rule="evenodd"/><g clip-path="url(#db4084027a)"><path fill="#ffffff" d="M 220.027344 80.460938 C 220.335938 80.511719 220.582031 80.578125 220.773438 80.832031 C 221.070312 81.238281 221.484375 83.839844 221.269531 84.351562 C 218.152344 88.414062 215.035156 92.476562 211.917969 96.535156 C 211.761719 96.8125 211.605469 97.09375 211.449219 97.375 C 211.777344 97.402344 212.101562 97.429688 212.425781 97.453125 C 212.757812 97.402344 213.082031 97.347656 213.40625 97.289062 C 213.652344 97.238281 213.898438 97.183594 214.144531 97.128906 C 214.386719 97.070312 214.632812 97.019531 214.878906 96.964844 C 215.78125 96.800781 216.675781 96.636719 217.578125 96.472656 C 217.984375 96.25 218.605469 96.144531 219.125 96.144531 C 220.339844 95.492188 222.445312 95.753906 222.785156 94.023438 C 222.765625 93.699219 222.742188 93.371094 222.722656 93.042969 C 223.972656 92.667969 223.621094 94.628906 223.753906 95.398438 C 223.964844 96.132812 224.179688 96.871094 224.390625 97.605469 C 224.414062 97.722656 224.578125 98.109375 224.4375 98.109375 C 224.332031 98.21875 223.785156 98.570312 223.785156 98.351562 C 223.472656 97.777344 223.4375 97.304688 222.78125 97.011719 C 221.667969 96.511719 219.800781 97.140625 218.699219 97.394531 C 217.5625 97.65625 208.914062 99.378906 208.527344 99.050781 C 208.480469 98.902344 208.433594 98.757812 208.386719 98.613281 C 208.4375 97.746094 210.3125 95.730469 210.910156 94.964844 C 213.25 91.835938 215.59375 88.707031 217.933594 85.574219 C 218.007812 85.503906 218.078125 85.433594 218.148438 85.359375 C 218.117188 85.335938 218.097656 85.308594 218.070312 85.28125 C 217.984375 85.199219 217.902344 85.117188 217.820312 85.035156 C 215.59375 85.449219 213.367188 85.867188 211.132812 86.28125 C 210.128906 86.570312 209.011719 86.609375 208.121094 87.109375 C 206.648438 87.921875 207.636719 89.710938 207.003906 90.015625 C 206.914062 90.054688 206.792969 90.160156 206.792969 90.019531 C 206.445312 89.496094 205.464844 84.65625 205.800781 84.386719 C 205.871094 84.324219 206.136719 84.132812 206.136719 84.296875 C 206.53125 84.984375 206.730469 85.523438 207.691406 85.523438 C 207.90625 85.5 208.128906 85.472656 208.34375 85.445312 C 208.890625 85.363281 209.433594 85.28125 209.976562 85.199219 C 210.171875 85.171875 210.359375 85.148438 210.550781 85.117188 C 210.988281 84.917969 211.578125 84.871094 212.101562 84.871094 C 212.402344 84.816406 212.703125 84.765625 213 84.710938 C 213.300781 84.65625 213.601562 84.601562 213.902344 84.546875 C 214.40625 84.3125 215.082031 84.21875 215.699219 84.21875 C 216.941406 83.546875 219.8125 83.929688 220.042969 82.003906 C 220.101562 81.484375 219.785156 81.152344 219.785156 80.707031 C 219.863281 80.625 219.945312 80.542969 220.027344 80.460938 " fill-opacity="1" fill-rule="evenodd"/></g><path fill="#ffffff" d="M 31.964844 91.328125 C 32.976562 91.605469 33.859375 92.683594 34.6875 93.328125 C 37.113281 95.316406 39.539062 97.304688 41.960938 99.289062 C 51.308594 106.882812 60.660156 114.476562 70.007812 122.070312 C 71.3125 123.152344 81.144531 130.828125 81.144531 131.4375 C 80.402344 131.636719 79.261719 132.730469 78.453125 132.402344 C 75.269531 130.195312 72.085938 127.992188 68.90625 125.785156 C 59.640625 119.289062 50.371094 112.789062 41.105469 106.292969 C 38.699219 104.613281 36.296875 102.9375 33.890625 101.261719 C 32.90625 100.613281 31.316406 99.886719 30.648438 98.878906 C 30.25 98.285156 31.605469 92.089844 31.964844 91.328125 " fill-opacity="1" fill-rule="evenodd"/><path fill="#ffffff" d="M 191.757812 91.410156 C 192.460938 91.730469 192.660156 93.382812 192.78125 94.109375 C 192.929688 95.027344 193.613281 97.582031 193.363281 98.402344 C 193.15625 99.070312 187.007812 103.246094 186.015625 103.949219 C 176.09375 111.140625 166.175781 118.332031 156.257812 125.523438 C 154.050781 127.128906 151.84375 128.734375 149.636719 130.335938 C 148.550781 131.117188 147.40625 132.3125 146.160156 132.78125 C 145.394531 133.0625 144.269531 132.078125 143.714844 131.699219 C 143.542969 131.585938 143.3125 131.429688 143.3125 131.195312 C 145.855469 129.109375 148.394531 127.023438 150.9375 124.9375 C 155.015625 121.636719 159.089844 118.332031 163.171875 115.027344 C 167.117188 111.761719 171.074219 108.496094 175.019531 105.230469 C 179.003906 101.972656 182.992188 98.710938 186.972656 95.457031 C 188.527344 94.210938 190.472656 93.015625 191.757812 91.410156 " fill-opacity="1" fill-rule="evenodd"/><path fill="#ffffff" d="M 1.734375 93.699219 C 2.316406 93.714844 5.535156 94.152344 5.78125 94.515625 C 5.835938 94.59375 5.972656 94.757812 5.820312 94.757812 L 5.820312 94.839844 C 5.019531 94.839844 4.238281 94.960938 3.609375 95.316406 C 1.8125 96.328125 0.351562 100.230469 3.382812 100.558594 C 6.550781 100.898438 8.082031 94.394531 12.355469 94.527344 C 13.433594 94.558594 14.390625 95.058594 15.09375 95.851562 C 17.101562 98.128906 15.929688 100.015625 15.621094 102.613281 C 15.570312 103 15.949219 103.683594 15.621094 103.96875 C 15.621094 103.96875 11.476562 103.933594 11.246094 103.835938 C 11.105469 103.777344 10.554688 103.253906 10.722656 103.253906 C 11.105469 103.222656 11.484375 103.1875 11.863281 103.152344 C 12.53125 103.109375 13.070312 102.8125 13.542969 102.398438 C 14.96875 101.136719 16.058594 98.222656 14.363281 96.675781 C 13.957031 96.304688 13.429688 96.027344 12.84375 96.019531 C 9.402344 95.960938 7.960938 102.328125 4.105469 102.328125 C 1.910156 102.328125 0.328125 100.144531 0.742188 97.960938 C 0.957031 96.816406 1.566406 95.953125 1.832031 94.902344 C 1.800781 94.5 1.769531 94.101562 1.734375 93.699219 " fill-opacity="1" fill-rule="evenodd"/><path fill="#ffffff" d="M 201.152344 102.4375 C 201.527344 102.707031 201.582031 103.453125 201.617188 103.910156 C 201.664062 104.542969 201.8125 105.789062 201.464844 106.28125 C 200.84375 107.140625 199.289062 107.699219 198.398438 108.191406 C 195.964844 109.589844 193.527344 110.984375 191.09375 112.382812 C 188.191406 114.011719 185.292969 115.640625 182.390625 117.265625 C 176.660156 120.566406 170.929688 123.867188 165.195312 127.167969 C 159.007812 130.722656 152.820312 134.277344 146.628906 137.832031 C 146.398438 137.945312 146.132812 138 145.867188 137.914062 C 145.546875 137.808594 144.867188 137.402344 144.867188 136.996094 C 148.171875 134.941406 151.476562 132.890625 154.785156 130.835938 C 170.238281 121.371094 185.699219 111.902344 201.152344 102.4375 " fill-opacity="1" fill-rule="evenodd"/><path fill="#ffffff" d="M 22.8125 102.601562 C 23.972656 102.871094 25.097656 103.816406 26.105469 104.4375 C 28.363281 105.792969 30.628906 107.15625 32.890625 108.515625 C 44.125 115.253906 55.363281 122 66.601562 128.738281 C 70.539062 131.097656 74.476562 133.453125 78.414062 135.808594 C 78.683594 135.957031 79.664062 136.453125 79.429688 136.875 C 79.191406 137.308594 78.578125 137.402344 78.164062 137.183594 C 74.285156 134.992188 70.40625 132.800781 66.527344 130.609375 C 52.359375 122.695312 38.195312 114.785156 24.027344 106.875 C 23.59375 106.648438 22.40625 106.167969 22.40625 105.542969 C 22.839844 104.726562 22.605469 103.535156 22.8125 102.601562 " fill-opacity="1" fill-rule="evenodd"/><g clip-path="url(#527756ffa1)"><path fill="#ffffff" d="M 224.191406 105.625 C 224.585938 105.972656 224.667969 110.527344 224.683594 111.425781 C 224.683594 111.570312 224.746094 112.078125 224.601562 112.078125 L 224.601562 112.160156 C 224.480469 112.160156 224.273438 112.214844 224.273438 112.078125 C 223.902344 111.269531 224.292969 110.484375 223.40625 109.957031 C 222.308594 109.308594 211.695312 109.636719 210.5625 110.222656 C 209.953125 110.539062 209.734375 111.402344 209.734375 112.078125 L 209.488281 112.078125 C 209.484375 110.851562 209.476562 109.628906 209.472656 108.402344 C 209.410156 107.777344 209.347656 107.152344 209.289062 106.523438 C 209.292969 106.363281 209.289062 106.03125 209.488281 106.03125 C 209.863281 108.957031 212.003906 108.234375 214.636719 108.234375 C 214.855469 108.234375 215.863281 108.28125 215.863281 108.074219 C 216.460938 108.101562 217.0625 108.132812 217.660156 108.15625 C 218.609375 108.128906 219.5625 108.101562 220.515625 108.074219 C 220.65625 108.046875 220.789062 108.019531 220.925781 107.992188 L 221.578125 107.992188 C 221.769531 107.964844 221.960938 107.941406 222.152344 107.914062 C 222.3125 107.882812 222.480469 107.859375 222.640625 107.828125 C 223.757812 107.03125 223.617188 106.769531 224.191406 105.625 " fill-opacity="1" fill-rule="evenodd"/></g><g clip-path="url(#41725b97f5)"><path fill="#ffffff" d="M 11.707031 109.871094 C 12.492188 109.871094 14.90625 110.007812 15.308594 110.5 C 15.335938 110.542969 15.359375 110.589844 15.386719 110.632812 C 15.59375 111.101562 15.390625 113.351562 15.429688 114.117188 C 15.53125 116.109375 15.792969 118.082031 16.058594 119.996094 C 16.105469 120.375 16.636719 121.960938 15.871094 121.960938 C 15.488281 121.363281 15.363281 120.480469 14.644531 120.175781 C 14.039062 119.910156 13.117188 120.132812 12.4375 120.15625 C 9.992188 120.230469 7.722656 120.453125 5.410156 120.609375 C 4.503906 120.664062 3.445312 120.628906 2.667969 120.972656 C 2.265625 121.148438 2.003906 121.550781 1.921875 121.964844 C 1.902344 122.066406 1.492188 123.226562 1.492188 122.859375 C 0.566406 122.035156 0.949219 117.488281 0.808594 116 C 0.601562 114.691406 0.390625 113.386719 0.183594 112.078125 C 0.511719 112.023438 0.839844 111.96875 1.164062 111.914062 C 1.355469 111.882812 1.546875 111.859375 1.734375 111.832031 C 2.785156 111.304688 4.070312 112.238281 3.695312 112.238281 L 3.695312 112.320312 C 3.082031 112.359375 2.292969 112.542969 1.972656 113.09375 C 1.710938 113.53125 1.976562 114.496094 1.976562 115.019531 C 1.976562 116.800781 1.507812 119.019531 3.695312 119.019531 C 4.410156 118.804688 5.261719 118.855469 6.066406 118.855469 C 6.257812 118.828125 6.449219 118.800781 6.640625 118.777344 C 7.566406 117.96875 7.191406 115.964844 6.992188 114.78125 C 6.902344 114.480469 6.8125 114.179688 6.722656 113.875 C 6.414062 113.742188 4.839844 113.246094 4.839844 112.976562 C 5.320312 112.691406 5.832031 112.730469 6.476562 112.730469 C 6.882812 112.753906 7.292969 112.78125 7.703125 112.804688 C 8.289062 112.816406 10.316406 112.4375 10.316406 113.304688 C 9.691406 113.539062 9.011719 113.542969 8.527344 114.046875 C 7.953125 114.640625 8.035156 117.835938 8.710938 118.320312 C 9.226562 118.695312 10.34375 118.53125 11.050781 118.53125 C 11.457031 118.480469 11.867188 118.421875 12.277344 118.367188 C 12.523438 118.339844 12.765625 118.3125 13.011719 118.285156 C 13.484375 118.09375 13.980469 118.191406 14.3125 117.730469 C 14.910156 116.890625 14.171875 112.007812 13.605469 111.304688 C 13.222656 110.820312 11.457031 110.355469 11.457031 110.117188 C 11.539062 110.035156 11.621094 109.957031 11.707031 109.871094 " fill-opacity="1" fill-rule="evenodd"/></g><g clip-path="url(#ef5d967662)"><path fill="#ffffff" d="M 223.785156 118.367188 C 224.003906 118.429688 224.296875 118.507812 224.390625 118.746094 C 224.75 119.660156 223.882812 121.910156 223.863281 123.105469 C 223.855469 123.503906 223.886719 124.488281 223.261719 124.316406 C 222.78125 124.179688 223.179688 122.890625 222.21875 122.660156 C 221.265625 122.429688 220.304688 122.800781 219.453125 122.921875 C 216.789062 123.300781 214.183594 124.027344 211.699219 124.828125 C 211.339844 124.941406 210.1875 125.175781 210.09375 125.621094 C 210.019531 125.960938 210.445312 126.15625 210.652344 126.34375 C 212.140625 127.65625 218.742188 131.476562 220.675781 131.226562 C 221.261719 131.144531 221.59375 130.664062 221.757812 130.140625 C 221.929688 129.59375 221.945312 129.230469 222.640625 129.230469 C 222.816406 130.214844 222.214844 135.332031 221.46875 135.605469 C 221.367188 135.640625 221.171875 135.746094 221.171875 135.605469 L 221.089844 135.605469 C 221.089844 135.019531 221.15625 134.453125 220.851562 134.027344 C 220.390625 133.375 219.515625 133.0625 218.886719 132.660156 C 217.4375 131.734375 207.609375 126.214844 207.484375 125.128906 C 207.351562 123.945312 215.523438 121.636719 216.925781 121.636719 C 217.875 121.417969 218.832031 121.203125 219.785156 120.980469 C 220.175781 120.765625 220.757812 120.65625 221.25 120.65625 C 222.34375 120.066406 223.539062 120.15625 223.539062 118.53125 C 223.566406 118.503906 223.597656 118.480469 223.621094 118.449219 C 223.675781 118.421875 223.730469 118.394531 223.785156 118.367188 " fill-opacity="1" fill-rule="evenodd"/></g><path fill="#ffffff" d="M 2.226562 130.785156 C 2.476562 130.824219 2.734375 130.859375 2.882812 131.078125 C 3.144531 131.457031 3.28125 131.871094 3.738281 132.085938 C 5.136719 132.75 8.476562 132.816406 10.230469 132.925781 C 13.007812 133.101562 15.917969 133.5 18.5625 134.054688 C 18.898438 134.125 19.335938 134.273438 19.335938 134.707031 C 19.335938 136.105469 14.726562 139.128906 14.726562 140.015625 L 14.808594 140.015625 C 16.195312 140.59375 20.757812 140.691406 21.582031 141.5625 C 21.746094 141.730469 21.671875 141.996094 21.585938 142.175781 C 21.066406 143.234375 19.664062 144.257812 18.773438 145.046875 C 16.3125 147.1875 13.851562 149.324219 11.386719 151.460938 C 10.5625 152.164062 10.3125 152.753906 10.3125 153.90625 C 10.3125 154.023438 10.371094 154.234375 10.234375 154.234375 C 10.042969 154.285156 9.851562 154.34375 9.660156 154.394531 C 9.222656 153.480469 9.183594 152.453125 8.886719 151.464844 C 8.652344 150.691406 7.765625 149.886719 7.894531 149.019531 C 7.902344 148.996094 7.90625 148.976562 7.910156 148.953125 C 7.992188 148.867188 8.078125 148.78125 8.160156 148.691406 C 8.71875 148.585938 9.140625 149.742188 9.988281 149.742188 C 12.78125 147.746094 15.835938 145.691406 18.242188 142.964844 C 18.417969 142.765625 18.785156 142.378906 18.582031 142.078125 C 18.140625 141.425781 14.042969 140.917969 13.203125 141.230469 C 12.289062 141.5625 9.046875 144.242188 8.355469 145.082031 C 8.089844 145.398438 7.929688 145.785156 7.921875 146.226562 C 7.917969 146.429688 8.183594 147.371094 8.023438 147.371094 L 8.023438 147.453125 C 7.742188 147.398438 7.480469 147.367188 7.292969 147.140625 C 6.636719 146.371094 6.671875 145.054688 6.320312 144.128906 C 6.101562 143.546875 5.875 142.964844 5.652344 142.378906 C 5.695312 142.1875 5.742188 141.996094 5.785156 141.804688 C 6.277344 141.378906 6.640625 143.28125 7.996094 142.65625 C 8.628906 142.210938 9.261719 141.765625 9.894531 141.316406 C 11.882812 139.78125 13.863281 138.140625 15.722656 136.28125 C 16.097656 135.890625 16.476562 135.507812 16.851562 135.117188 L 16.851562 134.953125 C 15.320312 134.21875 4.480469 132.875 4.480469 135.441406 C 4.480469 135.671875 4.898438 136.914062 4.675781 136.914062 L 4.675781 136.996094 C 4.34375 136.941406 4.0625 136.875 3.851562 136.609375 C 3.304688 135.921875 3.3125 134.964844 3.007812 134.148438 C 2.695312 133.328125 2.179688 132.570312 2.058594 131.671875 C 2.015625 131.34375 2.089844 131.035156 2.226562 130.785156 " fill-opacity="1" fill-rule="evenodd"/><path fill="#ffffff" d="M 186.773438 145.410156 L 186.773438 145.328125 C 186.75 145.355469 186.726562 145.382812 186.691406 145.410156 C 185.683594 145.808594 184.675781 146.207031 183.660156 146.609375 C 180.808594 147.65625 177.949219 148.695312 175.09375 149.742188 C 174.003906 149.742188 172.894531 150.535156 171.890625 150.820312 C 168.191406 151.878906 164.492188 152.929688 160.800781 153.988281 C 160.351562 153.988281 159.851562 154.128906 159.488281 154.316406 C 159.4375 154.308594 159.382812 154.304688 159.328125 154.292969 C 158.554688 154.089844 155.75 150.277344 154.921875 149.398438 C 153.726562 148.257812 152.527344 147.113281 151.324219 145.96875 C 142.042969 137.777344 131.1875 133 118.480469 131.566406 C 117.234375 131.425781 115.984375 131.335938 114.640625 131.253906 C 114.058594 131.214844 113.269531 130.996094 112.679688 131.195312 C 112.324219 131.167969 111.972656 131.140625 111.617188 131.113281 C 111.15625 131.167969 110.691406 131.222656 110.230469 131.277344 C 109.410156 131.304688 108.59375 131.332031 107.777344 131.359375 C 107.589844 131.386719 107.398438 131.414062 107.207031 131.441406 C 106.769531 131.441406 106.253906 131.4375 105.898438 131.601562 C 105.28125 131.601562 104.613281 131.550781 104.101562 131.765625 C 103.75 131.824219 103.394531 131.878906 103.039062 131.929688 C 102.6875 131.988281 102.332031 132.039062 101.976562 132.09375 C 101.707031 132.148438 101.433594 132.203125 101.160156 132.257812 C 100.832031 132.3125 100.507812 132.363281 100.179688 132.421875 C 99.90625 132.476562 99.636719 132.527344 99.363281 132.582031 C 98.921875 132.582031 98.398438 132.710938 98.058594 132.910156 C 97.210938 132.910156 96.359375 133.25 95.609375 133.496094 C 94.109375 134 92.605469 134.503906 91.101562 135.011719 C 82.816406 137.871094 75.277344 143.15625 68.957031 149.886719 C 67.707031 151.363281 66.460938 152.835938 65.214844 154.316406 L 65.214844 154.394531 C 64.613281 154.265625 64.015625 154.125 63.417969 153.992188 C 61.167969 153.554688 59.003906 152.863281 56.855469 152.246094 C 52.757812 151.058594 48.707031 149.785156 44.769531 148.308594 C 42.898438 147.613281 41.023438 146.917969 39.152344 146.222656 C 38.964844 146.144531 38.449219 145.867188 38.246094 146.054688 C 37.964844 146.3125 38.84375 147.742188 38.992188 148.023438 C 39.527344 149.074219 41.242188 152.71875 42.125 153.285156 C 43.386719 154.09375 46.15625 154.390625 47.710938 154.859375 C 49.832031 155.492188 52.109375 155.871094 54.28125 156.496094 C 59.65625 158.050781 65.492188 159.214844 71.175781 160.03125 C 82.640625 161.667969 94.488281 163.265625 106.636719 163.457031 C 120.03125 163.664062 133.214844 162.769531 145.847656 161.140625 C 152.636719 160.261719 159.304688 158.78125 165.871094 157.535156 C 169.605469 156.824219 173.214844 155.8125 176.832031 154.859375 C 178.511719 154.414062 180.847656 154.292969 182.234375 153.261719 C 182.941406 152.734375 183.355469 151.769531 183.785156 151.0625 C 184.886719 149.242188 186.054688 147.375 186.859375 145.410156 Z M 152.21875 155.945312 C 151.402344 156.109375 150.585938 156.277344 149.769531 156.4375 C 149.523438 156.519531 149.277344 156.601562 149.03125 156.683594 L 149.03125 156.765625 C 148.738281 156.765625 148.507812 156.644531 148.214844 156.765625 C 147.617188 156.765625 146.917969 156.859375 146.417969 157.089844 C 146.066406 157.148438 145.710938 157.199219 145.359375 157.257812 C 144.679688 157.363281 143.996094 157.472656 143.316406 157.582031 C 143.019531 157.636719 142.714844 157.691406 142.414062 157.746094 C 141.738281 157.855469 141.054688 157.964844 140.375 158.074219 C 140.046875 158.128906 139.722656 158.183594 139.394531 158.238281 C 138.941406 158.238281 138.457031 158.238281 138.085938 158.398438 C 137.703125 158.457031 137.324219 158.511719 136.941406 158.5625 C 136.480469 158.589844 136.015625 158.617188 135.554688 158.644531 C 135.390625 158.671875 135.226562 158.695312 135.0625 158.726562 C 134.765625 158.78125 134.464844 158.835938 134.164062 158.890625 C 133.753906 158.917969 133.347656 158.945312 132.9375 158.972656 C 132.640625 159 132.339844 159.023438 132.042969 159.054688 C 131.6875 159.109375 131.335938 159.164062 130.976562 159.214844 C 130.339844 159.214844 129.628906 159.160156 129.097656 159.378906 C 128.746094 159.40625 128.390625 159.433594 128.039062 159.460938 C 127.824219 159.492188 127.601562 159.515625 127.386719 159.542969 C 126.785156 159.570312 126.1875 159.59375 125.589844 159.625 C 125.339844 159.652344 125.097656 159.675781 124.851562 159.707031 C 124.117188 159.734375 123.382812 159.761719 122.644531 159.789062 C 122.484375 159.816406 122.320312 159.839844 122.15625 159.871094 C 121.285156 159.898438 120.410156 159.921875 119.542969 159.949219 C 118.945312 159.980469 118.34375 160.003906 117.746094 160.03125 C 116.628906 160.0625 115.511719 160.085938 114.394531 160.113281 L 114.394531 160.195312 C 113.628906 160.195312 112.730469 159.847656 111.945312 160.113281 C 102.628906 160.113281 93.5 159.324219 84.742188 158.199219 C 80.363281 157.628906 76.035156 156.636719 71.746094 155.957031 C 71.367188 155.894531 70.28125 155.796875 70.203125 155.34375 C 70.078125 154.652344 72.929688 151.429688 73.519531 150.765625 C 80.683594 142.640625 89.605469 137.117188 99.859375 134.726562 C 101.882812 134.253906 104.019531 133.792969 106.148438 133.589844 C 107.320312 133.472656 108.898438 133.621094 109.984375 133.234375 C 125.15625 133.234375 138.425781 137.871094 148.320312 148.082031 C 150.480469 150.308594 152.894531 152.621094 154.179688 155.292969 C 154.011719 155.292969 152.445312 155.839844 152.21875 155.945312 " fill-opacity="1" fill-rule="evenodd"/><path fill="#ffffff" d="M 204.992188 137.320312 C 205.132812 137.351562 205.265625 137.375 205.402344 137.402344 C 205.355469 138.105469 205.089844 138.785156 205.589844 139.339844 C 206.296875 140.121094 207.652344 140.273438 208.585938 140.667969 C 210.414062 141.441406 212.355469 142.007812 214.285156 142.601562 C 215.21875 142.894531 216.15625 143.179688 217.09375 143.464844 C 217.613281 143.542969 218.023438 143.441406 218.359375 143.089844 C 218.621094 142.804688 218.753906 142.394531 219.144531 142.277344 C 219.238281 142.246094 219.371094 142.164062 219.371094 142.304688 L 219.453125 142.304688 C 219.328125 144.214844 218.109375 145.972656 217.519531 147.707031 C 217.027344 149.15625 216.675781 150.535156 216.28125 152.089844 C 216.234375 152.285156 216.128906 152.582031 215.9375 152.675781 C 215.605469 152.835938 213.648438 152.101562 213.246094 151.933594 C 212.925781 151.796875 212.511719 151.542969 212.511719 151.125 L 212.59375 151.125 L 212.59375 151.046875 C 213.277344 151.085938 214.054688 151.355469 214.671875 150.980469 C 215.210938 150.640625 216.917969 146.476562 216.804688 145.753906 C 216.746094 145.394531 216.367188 145.128906 216.070312 144.984375 C 215.480469 144.699219 212.652344 143.660156 212.09375 144.035156 C 211.320312 144.550781 210.832031 146.800781 210.601562 147.710938 C 210.339844 148.765625 212.0625 149.21875 211.882812 149.71875 C 211.703125 150.207031 208.496094 148.71875 207.945312 148.492188 C 207.550781 148.339844 206.875 148.074219 206.875 147.53125 L 206.957031 147.53125 L 206.957031 147.449219 C 207.558594 147.488281 208.402344 147.777344 208.96875 147.480469 C 209.65625 147.113281 210.945312 144.355469 210.652344 143.59375 C 210.390625 142.921875 206.015625 141.4375 205.246094 141.679688 C 204.273438 141.984375 202.84375 146.699219 203 147.851562 C 203.078125 148.460938 203.578125 148.859375 204.035156 149.214844 C 204.128906 149.289062 204.753906 149.902344 204.503906 149.902344 L 204.503906 149.984375 C 203.195312 149.816406 201.761719 148.347656 200.992188 148.347656 C 201.0625 147.214844 202.425781 144.976562 202.890625 143.828125 C 203.328125 142.46875 203.769531 141.113281 204.203125 139.753906 C 204.441406 138.917969 204.503906 138.027344 204.992188 137.320312 " fill-opacity="1" fill-rule="evenodd"/><path fill="#ffffff" d="M 210.386719 161.175781 C 209.625 161.175781 209.59375 162.511719 208.601562 162.390625 C 207.632812 162.269531 198.601562 156.808594 198.152344 156.042969 C 197.777344 155.398438 198.4375 154.714844 198.539062 154.070312 L 198.457031 154.070312 C 198.457031 153.929688 198.179688 153.988281 198.050781 153.988281 C 197.261719 154.890625 196.742188 155.847656 196.117188 156.8125 C 195.730469 157.40625 195.113281 157.976562 194.917969 158.660156 C 194.839844 158.914062 194.941406 159.140625 195.109375 159.300781 C 195.109375 159.429688 195.15625 159.378906 195.273438 159.378906 C 195.453125 159.152344 195.632812 158.921875 195.808594 158.695312 C 196.058594 158.359375 196.371094 158.023438 196.828125 157.992188 C 197.96875 157.914062 200.535156 159.765625 201.484375 160.441406 C 201.484375 160.878906 200.929688 161.425781 200.695312 161.773438 C 200.375 162.242188 200.046875 162.859375 199.515625 163.125 C 198.835938 163.464844 195.78125 162.996094 194.78125 162.964844 C 194.347656 162.972656 193.914062 162.972656 193.476562 162.976562 C 191.5625 162.976562 189.9375 165.226562 190.617188 167.0625 C 190.664062 167.046875 190.703125 167.03125 190.753906 167.019531 C 191.289062 166.589844 191.363281 165.820312 191.960938 165.390625 C 193.011719 164.625 196.851562 164.589844 198.378906 164.617188 C 199.308594 164.628906 199.742188 164.847656 200.035156 165.664062 C 200.894531 168.074219 204.652344 170.351562 206.953125 168.195312 C 208.097656 167.125 208.359375 165.640625 209.121094 164.386719 C 209.683594 163.445312 210.9375 162.378906 210.386719 161.175781 M 206.359375 166.621094 C 205.957031 166.820312 205.558594 167.019531 205.15625 167.222656 C 203.710938 167.222656 200.488281 166.28125 200.730469 164.453125 C 200.871094 163.386719 202.019531 162.242188 202.707031 161.421875 C 203.730469 161.585938 204.484375 162.28125 205.347656 162.761719 C 207.214844 163.789062 209.023438 164.6875 206.359375 166.621094 " fill-opacity="1" fill-rule="evenodd"/><path fill="#ffffff" d="M 32.699219 164.117188 C 33.226562 164.492188 33.34375 165.15625 33.6875 165.65625 C 34.382812 166.574219 35.078125 167.492188 35.769531 168.40625 C 37 169.839844 38.230469 171.269531 39.460938 172.699219 C 39.621094 172.9375 39.5625 173.132812 39.5625 173.429688 C 38.886719 173.257812 38.398438 172.378906 37.605469 172.558594 C 36.785156 172.738281 36.101562 173.464844 35.441406 173.960938 C 33.835938 175.15625 32.230469 176.355469 30.625 177.550781 C 29.765625 178.171875 28.574219 178.847656 27.941406 179.765625 C 27.410156 180.53125 28.394531 181.503906 28.132812 181.78125 C 28.066406 181.808594 28.003906 181.835938 27.941406 181.863281 C 27.300781 181.9375 24.566406 178.113281 24.128906 177.429688 C 23.738281 176.820312 20.769531 173.683594 20.769531 173.515625 C 21.234375 173.15625 21.695312 172.804688 22.15625 172.449219 C 22.4375 172.222656 23.394531 171.296875 23.800781 171.773438 C 23.816406 171.851562 23.835938 171.933594 23.851562 172.011719 C 23.652344 172.605469 23.03125 172.855469 23.070312 173.585938 C 23.105469 174.230469 25.917969 178.042969 26.574219 178.0625 C 27.246094 178.085938 30.179688 175.875 30.140625 175.152344 C 30.09375 174.359375 28.894531 173.332031 28.410156 172.730469 C 27.542969 171.644531 26.910156 171.921875 25.738281 172.222656 C 25.625 172.25 25.425781 172.355469 25.425781 172.203125 L 25.34375 172.203125 C 25.371094 171.921875 25.394531 171.664062 25.578125 171.453125 C 26.8125 170.667969 28.050781 169.882812 29.285156 169.09375 C 29.402344 169.0625 29.921875 168.945312 29.921875 169.101562 L 30.003906 169.101562 C 29.808594 169.808594 28.992188 170.195312 28.992188 170.980469 C 28.992188 171.667969 30.855469 174.367188 31.621094 174.292969 C 32.347656 174.21875 35.578125 171.667969 35.863281 170.933594 C 36.109375 170.273438 32.628906 166.128906 31.84375 165.839844 C 31.269531 165.625 30.597656 165.800781 30.082031 165.988281 C 29.855469 166.0625 29.308594 166.222656 29.367188 165.785156 C 29.386719 165.605469 29.539062 165.46875 29.691406 165.390625 C 30.003906 165.320312 30.316406 165.253906 30.625 165.1875 C 31.367188 164.960938 32.085938 164.601562 32.699219 164.117188 " fill-opacity="1" fill-rule="evenodd"/><path fill="#ffffff" d="M 186.53125 169.835938 C 186.976562 169.894531 190.429688 172.457031 190.542969 172.875 C 190.570312 172.984375 190.683594 173.347656 190.535156 173.347656 L 190.535156 173.429688 C 189.875 173.261719 189.460938 172.6875 188.800781 172.5 C 186.925781 171.976562 184.539062 173.378906 183.808594 175.007812 C 183.234375 176.273438 183.769531 178.011719 185.167969 178.410156 C 185.9375 178.625 186.882812 178.496094 187.753906 178.496094 C 188.914062 177.917969 191.691406 177.351562 193.148438 177.351562 C 195.941406 176.730469 197.46875 180.179688 196.292969 182.304688 C 195.492188 183.746094 194.179688 184.238281 192.96875 185.121094 C 192.636719 185.359375 192.636719 185.945312 192.113281 185.867188 C 191.628906 185.792969 190.898438 184.863281 190.511719 184.570312 C 190.074219 184.242188 189.390625 183.773438 189.390625 183.152344 L 189.472656 183.152344 L 189.472656 183.074219 C 190.128906 183.320312 190.789062 183.566406 191.449219 183.816406 C 192.089844 183.957031 192.691406 183.726562 193.3125 183.726562 C 193.964844 183.304688 194.707031 183.058594 195.214844 182.375 C 196.246094 181.007812 195.222656 179.300781 193.632812 179.175781 C 189.546875 178.851562 184.644531 183.199219 182.640625 177.179688 C 182.460938 176.648438 182.546875 175.992188 182.671875 175.46875 C 183.234375 173.09375 184.707031 172.773438 186.058594 171.019531 C 186.21875 170.625 186.375 170.234375 186.53125 169.835938 " fill-opacity="1" fill-rule="evenodd"/><path fill="#ffffff" d="M 77.957031 172.777344 C 78.222656 172.808594 78.535156 172.816406 78.660156 173.066406 C 78.859375 173.488281 77.3125 173.949219 77.050781 174.449219 C 76.398438 175.683594 74.917969 182.902344 75.445312 184.160156 C 75.679688 184.730469 76.390625 184.992188 76.894531 185.191406 C 77.109375 185.277344 77.632812 185.445312 77.632812 185.765625 C 76.496094 186.222656 75.265625 185.398438 74.1875 185.160156 C 73.347656 185.109375 72.507812 185.058594 71.667969 185 C 71.367188 184.929688 71.070312 184.859375 70.769531 184.785156 C 71.0625 183.65625 72.929688 184.699219 73.519531 183.144531 C 73.695312 182.222656 73.878906 181.296875 74.058594 180.375 C 74.304688 178.992188 75.210938 176.140625 74.917969 174.761719 C 74.710938 173.78125 73.375 174.117188 73.21875 173.539062 C 73.136719 173.246094 73.382812 173.175781 73.382812 172.941406 C 74.441406 173.148438 75.5 173.105469 76.652344 173.105469 C 77.089844 172.992188 77.527344 172.886719 77.957031 172.777344 " fill-opacity="1" fill-rule="evenodd"/><path fill="#ffffff" d="M 123.382812 176.210938 C 128.417969 177.214844 126.1875 182.0625 124.101562 184.769531 C 123.707031 185.28125 122.074219 187.015625 122.074219 187.5625 L 122.15625 187.5625 L 122.15625 187.644531 C 122.566406 187.671875 122.972656 187.699219 123.382812 187.726562 C 124.191406 187.398438 125.050781 187.625 125.796875 187.183594 C 126.609375 186.695312 126.648438 185.320312 127.472656 185.050781 C 127.496094 185.046875 127.523438 185.039062 127.546875 185.03125 L 127.546875 185.113281 L 127.632812 185.113281 C 127.578125 185.914062 127.054688 188.433594 126.496094 188.859375 C 125.953125 189.265625 122.222656 189.261719 121.257812 189.277344 C 121.035156 189.28125 119.703125 189.40625 119.703125 189.277344 L 119.625 189.277344 C 119.730469 188.40625 120.589844 187.847656 121.128906 187.203125 C 122.71875 185.277344 124.828125 182.730469 124.828125 180.046875 C 124.828125 179.109375 124.339844 178.441406 123.523438 178.136719 C 121.753906 177.464844 120.714844 178.078125 119.570312 179.261719 C 119.441406 179.394531 119.207031 179.570312 119.03125 179.402344 C 118.09375 178.511719 120.898438 176.371094 121.828125 176.371094 C 122.347656 176.316406 122.863281 176.265625 123.382812 176.210938 " fill-opacity="1" fill-rule="evenodd"/><path fill="#ffffff" d="M 150.300781 175.917969 C 149.046875 174.847656 146.832031 175.003906 145.558594 175.9375 C 145.164062 176.328125 144.769531 176.714844 144.375 177.105469 L 144.375 177.191406 L 144.210938 177.191406 L 144.210938 177.105469 C 144.019531 177.105469 144.207031 176.25 144.25 176.105469 C 144.828125 174.097656 146.378906 171.707031 148.789062 171.632812 C 148.789062 170.90625 148.53125 170.863281 147.808594 170.816406 C 146.546875 171.59375 145.3125 172.011719 144.421875 173.382812 C 142.164062 176.863281 142.503906 186.609375 148.375 186.140625 C 152.972656 185.777344 153.210938 178.402344 150.300781 175.917969 M 149.332031 184.628906 C 146.175781 185.394531 143.40625 180.367188 144.941406 177.96875 C 145.503906 177.089844 146.410156 176.945312 147.234375 176.535156 C 148.460938 176.574219 149.414062 176.9375 150.1875 177.816406 C 151.675781 179.507812 152.136719 183.945312 149.332031 184.628906 " fill-opacity="1" fill-rule="evenodd"/><path fill="#ffffff" d="M 43.480469 179.066406 C 47.148438 179.421875 46.925781 180.519531 49.308594 182.625 C 49.636719 182.910156 50.589844 183.175781 50.589844 183.726562 C 49.144531 184.578125 48.6875 186.386719 47.300781 187.027344 C 47.207031 187.066406 46.996094 187.21875 46.996094 187.074219 L 46.832031 187.074219 C 46.765625 186.066406 47.949219 185.65625 47.832031 184.539062 C 47.742188 183.753906 47.566406 183.105469 47.261719 182.453125 C 46.433594 180.714844 43.886719 179.140625 42.308594 180.992188 C 40.625 182.96875 43.078125 187.597656 42.628906 190.335938 C 42.320312 192.207031 40.078125 193.421875 38.195312 192.746094 C 37.265625 192.410156 36.609375 191.765625 35.953125 191.011719 C 35.441406 190.441406 35.242188 189.84375 34.839844 189.242188 C 34.558594 188.820312 33.679688 188.605469 33.679688 188.054688 C 34.046875 187.796875 34.414062 187.539062 34.78125 187.28125 C 35.316406 186.707031 35.777344 185.828125 36.558594 185.589844 C 36.65625 185.554688 36.867188 185.449219 36.867188 185.605469 L 36.949219 185.605469 C 36.796875 186.535156 36.082031 187.15625 36.03125 188.140625 C 35.941406 189.921875 37.886719 192.691406 39.835938 191.335938 C 43.320312 188.917969 35.4375 180.855469 43.480469 179.066406 " fill-opacity="1" fill-rule="evenodd"/><path fill="#ffffff" d="M 176.480469 180.703125 C 176.617188 180.730469 176.757812 180.757812 176.890625 180.785156 C 176.890625 181.761719 175.617188 182.074219 175.9375 183.191406 C 176.210938 184.144531 177.8125 185.613281 178.53125 186.410156 C 179.964844 187.980469 181.964844 190.855469 183.75 191.96875 C 184.125 192.199219 184.644531 192.203125 185.050781 192.039062 C 185.1875 191.976562 186.371094 191.398438 186.371094 191.648438 L 186.449219 191.648438 C 186.382812 191.859375 186.316406 192.0625 186.25 192.269531 C 185.523438 192.847656 184.800781 193.429688 184.078125 194.011719 C 183.367188 194.632812 182.742188 195.589844 181.929688 196.007812 C 181.519531 196.21875 181.382812 195.898438 181.058594 195.898438 L 181.058594 195.734375 C 181.695312 195.199219 182.402344 194.644531 182.3125 193.695312 C 182.222656 192.824219 175.402344 185.359375 174.324219 184.761719 C 173.851562 184.5 173.285156 184.605469 172.839844 184.84375 C 172.589844 184.976562 171.746094 185.535156 171.746094 184.785156 C 172.65625 184.039062 173.574219 183.289062 174.484375 182.542969 C 175.152344 181.929688 175.820312 181.316406 176.480469 180.703125 " fill-opacity="1" fill-rule="evenodd"/><path fill="#ffffff" d="M 100.75 180.703125 C 100.75 180.414062 102.191406 179.167969 102.402344 178.628906 C 102.601562 178.101562 102.640625 177.492188 102.605469 176.863281 C 102.449219 174.476562 99.792969 174.515625 97.890625 174.332031 C 97.09375 174.574219 96.40625 174.808594 95.800781 175.433594 C 94.335938 176.949219 94.824219 179.480469 96.421875 180.621094 C 96.421875 180.785156 94.914062 181.992188 94.667969 182.367188 C 93.117188 184.757812 94.742188 187.960938 97.332031 188.40625 C 98.363281 188.582031 99.726562 188.53125 100.546875 188.058594 C 103.144531 186.550781 103.523438 182.265625 100.75 180.703125 M 97.890625 174.984375 C 98.660156 175.054688 99.441406 175.015625 100.085938 175.339844 C 100.605469 175.59375 100.976562 176.085938 101.199219 176.597656 C 101.875 178.140625 100.921875 179.226562 99.769531 180.046875 C 96.480469 180.050781 94.515625 176.78125 97.890625 174.984375 M 100.382812 187.195312 C 100.015625 187.496094 99.601562 187.59375 99.199219 187.808594 C 97.261719 187.808594 96.003906 187.105469 95.441406 185.359375 C 95.320312 185.359375 95.410156 184.796875 95.398438 184.625 C 95.300781 183.1875 95.976562 181.894531 97.238281 181.355469 C 99.410156 181.488281 101.722656 182.570312 101.480469 185.113281 C 101.402344 185.933594 101.019531 186.664062 100.382812 187.195312 " fill-opacity="1" fill-rule="evenodd"/><path fill="#ffffff" d="M 163.738281 190.425781 C 164.457031 190.492188 164.628906 190.707031 164.0625 191.15625 C 163.601562 191.515625 163.363281 192.0625 163.484375 192.695312 C 163.699219 193.832031 167.992188 201.941406 168.875 202.480469 C 169.648438 202.945312 172.757812 201.160156 172.976562 200.289062 C 173.199219 199.378906 172.558594 198.839844 172.558594 198.019531 C 173.78125 197.699219 174.765625 200.816406 174.765625 201.777344 C 171.550781 202.847656 168.507812 204.503906 165.625 206.199219 C 165.257812 206.417969 163.109375 208.082031 162.988281 208.089844 C 162.539062 208.113281 161.105469 204.964844 162.023438 204.964844 C 162.65625 205.726562 163.179688 205.921875 164.132812 205.519531 C 164.882812 205.199219 166.523438 204.621094 166.84375 203.796875 C 167.039062 203.289062 162.25 194.382812 161.460938 193.6875 C 161.023438 193.304688 160.46875 193.195312 159.914062 193.402344 C 159.773438 193.453125 158.757812 194.027344 158.757812 193.773438 L 158.671875 193.773438 C 158.910156 192.703125 162.664062 191.371094 163.738281 190.425781 " fill-opacity="1" fill-rule="evenodd"/><path fill="#ffffff" d="M 68.835938 195.5 C 68.601562 194.652344 67.382812 194.515625 66.757812 194.101562 C 66.28125 193.78125 65.882812 193.296875 65.335938 193.132812 C 64.964844 193.019531 64.789062 193.300781 64.863281 193.648438 C 64.933594 193.976562 65.183594 194.15625 65.089844 194.554688 C 64.847656 195.578125 61.675781 197.59375 60.722656 198.019531 L 60.722656 198.101562 C 60.128906 198.101562 59.289062 197.300781 58.8125 196.992188 C 57.996094 196.460938 56.695312 196.015625 56.097656 195.214844 C 55.511719 194.433594 56.605469 190.132812 57.125 189.445312 C 57.453125 189.5 57.777344 189.550781 58.109375 189.605469 L 58.109375 189.523438 C 58.246094 189.523438 58.128906 189.257812 58.089844 189.152344 C 58.015625 188.960938 54.324219 186.578125 53.9375 186.503906 C 53.917969 186.613281 53.894531 186.722656 53.867188 186.835938 C 53.835938 187.441406 54.4375 187.734375 54.65625 188.226562 C 54.839844 188.636719 54.816406 189.191406 54.800781 189.683594 C 54.527344 191.703125 54.25 193.722656 53.976562 195.738281 C 53.730469 198 53.480469 200.261719 53.230469 202.523438 C 53.132812 203.128906 53.175781 203.777344 53.871094 203.898438 C 54.722656 204.046875 55.320312 203.289062 55.941406 202.898438 C 58.503906 201.121094 61.066406 199.34375 63.628906 197.566406 C 64.574219 196.898438 65.566406 195.917969 66.699219 195.613281 C 67.460938 195.410156 68.078125 195.722656 68.808594 195.8125 L 68.808594 195.734375 C 68.953125 195.734375 68.863281 195.601562 68.835938 195.5 M 59.332031 199.082031 C 58.945312 199.40625 58.558594 199.726562 58.171875 200.046875 C 57.804688 200.320312 55.65625 201.882812 55.316406 201.644531 C 54.894531 201.359375 55.425781 197.289062 55.820312 196.960938 L 55.820312 196.878906 C 57.046875 197.316406 58.265625 198.15625 59.332031 198.921875 Z M 59.332031 199.082031 " fill-opacity="1" fill-rule="evenodd"/><path fill="#ffffff" d="M 73.464844 197.449219 C 74.007812 197.640625 74.554688 197.832031 75.097656 198.019531 C 78.898438 198.871094 83.308594 199.472656 84.503906 203.734375 C 84.832031 204.914062 84.933594 206.402344 84.660156 207.660156 C 84.257812 209.53125 83.242188 211.492188 81.628906 212.636719 C 78.523438 214.828125 75.382812 214.476562 72.148438 212.820312 C 71.363281 212.417969 70.574219 211.398438 69.6875 211.273438 C 69.261719 211.320312 68.832031 211.371094 68.398438 211.421875 C 68.359375 211.046875 69.453125 207.671875 69.664062 207.277344 C 69.765625 207.074219 69.925781 206.90625 70.132812 206.832031 C 70.230469 206.792969 70.359375 206.699219 70.359375 206.84375 L 70.441406 206.84375 C 70.398438 207.523438 70.167969 208.261719 70.355469 208.945312 C 71.019531 211.425781 74.90625 213.300781 77.382812 213.300781 C 78.328125 212.882812 79.164062 212.746094 79.996094 212.082031 C 82.777344 209.855469 83.769531 204.589844 81.503906 201.660156 C 80.632812 200.527344 79.417969 199.949219 78.15625 199.519531 C 76.863281 199.078125 75.082031 199.246094 73.933594 199.863281 C 73.621094 200.027344 71.984375 201.171875 71.789062 200.960938 C 71.769531 200.832031 71.75 200.707031 71.726562 200.574219 C 72.070312 200.039062 72.417969 199.507812 72.757812 198.972656 C 72.996094 198.464844 73.230469 197.957031 73.464844 197.449219 " fill-opacity="1" fill-rule="evenodd"/><g clip-path="url(#c31c09e164)"><path fill="#ffffff" d="M 146.5 198.59375 C 146.746094 198.621094 146.988281 198.652344 147.234375 198.675781 C 147.265625 198.785156 147.292969 198.894531 147.316406 199.003906 C 146.851562 199.277344 146.179688 199.503906 145.921875 200.019531 C 145.457031 200.945312 147.398438 205.164062 148.070312 205.925781 C 148.757812 206.441406 149.449219 206.957031 150.132812 207.46875 C 151.707031 208.449219 153.171875 209.785156 154.988281 210.265625 C 155.46875 210.390625 155.917969 210.257812 156.269531 209.988281 C 156.417969 209.839844 156.5625 209.691406 156.710938 209.539062 C 156.914062 209.730469 156.988281 209.960938 156.9375 210.257812 C 156.859375 210.753906 156.332031 211.152344 155.90625 211.347656 C 153.246094 212.535156 149.859375 208.921875 147.984375 207.320312 C 147.867188 207.222656 146.988281 206.585938 146.988281 206.84375 L 146.910156 206.84375 C 146.910156 209.5625 147.339844 215.417969 144.195312 215.917969 C 144.050781 215.941406 143.394531 215.988281 143.394531 215.832031 L 143.316406 215.832031 L 143.316406 215.503906 L 143.394531 215.503906 C 143.792969 215.273438 144.25 215.1875 144.546875 214.796875 C 145.554688 213.492188 146.1875 208.542969 146.070312 206.601562 C 145.992188 205.40625 144.320312 200.800781 142.917969 200.953125 C 142.726562 200.96875 141.761719 201.273438 141.761719 201.125 L 141.683594 201.125 C 141.734375 200.832031 141.800781 200.632812 142.054688 200.460938 C 142.636719 200.25 143.222656 200.039062 143.808594 199.832031 C 144.707031 199.417969 145.605469 199.007812 146.5 198.59375 " fill-opacity="1" fill-rule="evenodd"/></g><path fill="#ffffff" d="M 112.273438 207.25 C 112.886719 207.417969 114.441406 209.132812 114.433594 209.78125 C 114.421875 210.277344 112.949219 212.4375 112.4375 212.417969 C 111.996094 212.394531 111.746094 211.828125 111.492188 211.542969 C 111.167969 211.175781 110.609375 210.648438 110.511719 210.164062 C 110.390625 209.5625 111.925781 207.824219 112.273438 207.25 " fill-opacity="1" fill-rule="evenodd"/></svg>