<svg xmlns="http://www.w3.org/2000/svg" xmlns:xlink="http://www.w3.org/1999/xlink" width="1000" zoomAndPan="magnify" viewBox="0 0 750 749.999995" height="1000" preserveAspectRatio="xMidYMid meet" version="1.0"><defs><clipPath id="70c61caccb"><path d="M 6.09375 6.433594 L 744 6.433594 L 744 743.683594 L 6.09375 743.683594 Z M 6.09375 6.433594 " clip-rule="nonzero"/></clipPath></defs><g clip-path="url(#70c61caccb)"><path fill="#95cae4" d="M 374.480469 6.433594 C 173.519531 6.429688 6.441406 171.933594 6.375 371.074219 C 6.300781 578.976562 169.222656 743.542969 375.136719 743.554688 C 578.214844 743.570312 743.316406 578.570312 743.550781 375.375 C 743.785156 172.363281 577.800781 6.4375 374.480469 6.433594 Z M 671.492188 336.078125 C 671.355469 335.425781 671.289062 334.761719 671.15625 334.109375 C 670.125 329.015625 665.640625 321.574219 668.699219 319.414062 C 673.140625 316.28125 679.191406 322.050781 684.582031 323.882812 C 688.304688 325.148438 691.601562 327.609375 695.261719 329.105469 C 700.550781 331.269531 703.890625 334.238281 701.351562 340.023438 C 700.324219 365.652344 697.699219 390.648438 692.0625 415.257812 C 691.550781 417.507812 690.425781 419.699219 690.34375 421.949219 C 690.199219 426.054688 687.089844 427.28125 684.390625 427.214844 C 680.320312 427.113281 681.890625 423.144531 681.878906 420.941406 C 681.761719 392.234375 677.5 364.054688 671.492188 336.078125 Z M 203.515625 631.980469 C 203.929688 631.105469 204.339844 630.234375 204.753906 629.359375 C 220.929688 631.628906 237.109375 633.894531 255.925781 636.535156 C 243.523438 640.5 233.703125 645.171875 223.449219 646.488281 C 213.28125 647.792969 210.222656 636.90625 203.515625 631.980469 Z M 217.289062 666.984375 C 223.101562 676.167969 229.441406 685.019531 236.902344 696.015625 C 221.488281 690.035156 209.269531 683.507812 197.039062 676.976562 C 192.308594 674.453125 192.867188 671.703125 195.9375 668.433594 C 197.296875 666.984375 198.652344 665.511719 200.15625 664.222656 C 210.03125 655.78125 210.339844 656 217.289062 666.984375 Z M 206.167969 624.917969 C 201.957031 624.121094 200.066406 621.886719 198.71875 618.105469 C 187.949219 587.929688 181.328125 556.824219 177.832031 525.035156 C 176.707031 514.792969 176.417969 504.457031 175.367188 494.207031 C 174.796875 488.640625 176.070312 485.789062 182.277344 484.894531 C 196.71875 482.816406 211.15625 480.457031 225.375 477.230469 C 232.765625 475.554688 234.582031 479.15625 235.816406 484.707031 C 240.683594 506.628906 247.222656 528.078125 254.5 549.289062 C 262.773438 573.410156 272.195312 597.074219 283.769531 619.847656 C 289.414062 630.949219 289.257812 631.03125 277.21875 633.289062 C 275.589844 633.59375 273.953125 633.867188 272.683594 634.089844 C 250.210938 631.316406 228.066406 629.066406 206.167969 624.917969 Z M 67.664062 329.398438 C 68.324219 347.03125 69.003906 364.65625 72.289062 382.050781 C 74.996094 396.398438 77.878906 410.714844 80.554688 425.066406 C 80.957031 427.210938 83.421875 429.574219 81.222656 431.519531 C 79.257812 433.261719 77.003906 431.535156 74.886719 430.574219 C 68.261719 427.566406 61.605469 424.613281 54.847656 421.925781 C 48.996094 419.597656 46.535156 415.660156 48.058594 409.441406 C 49.746094 383.390625 52.5 357.4375 58.226562 331.890625 C 58.511719 330.613281 59.363281 329.464844 59.671875 328.191406 C 60.390625 325.179688 62.195312 323.226562 65.257812 323.6875 C 68.53125 324.179688 67.582031 327.3125 67.664062 329.398438 Z M 71.8125 298.890625 C 71.078125 279.347656 81.886719 261.832031 89.902344 243.4375 C 91.382812 240.042969 93.460938 239.53125 96.996094 241.257812 C 126.398438 255.625 157.691406 264.066406 189.582031 270.695312 C 192.011719 271.199219 197.214844 269.777344 196.460938 275.511719 C 195.894531 279.820312 195.472656 283.5 189.484375 284.578125 C 160.574219 289.773438 131.636719 294.972656 103.585938 304.007812 C 96.042969 306.4375 88.171875 308.21875 81.089844 311.621094 C 72.085938 315.945312 70.988281 312.011719 71.792969 304.511719 C 71.933594 303.195312 71.8125 301.851562 71.8125 298.890625 Z M 545.582031 121.351562 C 529.1875 118.964844 513.3125 116.65625 497.433594 114.34375 C 497.464844 113.804688 497.492188 113.265625 497.519531 112.722656 C 506.277344 109.910156 515.011719 107.007812 523.804688 104.304688 C 530.964844 102.109375 539.949219 108.996094 545.582031 121.351562 Z M 531.792969 82.632812 C 526.191406 73.832031 520.125 65.324219 513.070312 54.921875 C 528.714844 60.445312 541.40625 67.347656 553.980469 74.480469 C 557.046875 76.222656 556.753906 78.644531 554.476562 81.03125 C 553.332031 82.230469 552.296875 83.542969 551.105469 84.699219 C 540.660156 94.835938 539.386719 94.574219 531.792969 82.632812 Z M 542.640625 125.390625 C 547.386719 126.199219 549.347656 128.300781 550.863281 132.480469 C 562.105469 163.53125 568.652344 195.613281 572.101562 228.371094 C 573.109375 237.945312 573.378906 247.597656 574.371094 257.175781 C 574.882812 262.089844 573.148438 264.671875 568.378906 265.515625 C 552.707031 268.285156 537.003906 270.917969 521.386719 273.984375 C 514.941406 275.25 515.027344 270.191406 514.257812 266.933594 C 508.960938 244.453125 502.386719 222.347656 494.882812 200.527344 C 486.601562 176.464844 477.152344 152.871094 465.589844 130.15625 C 459.828125 118.832031 460.195312 118.359375 472.496094 117.566406 C 475.480469 117.375 478.46875 117.296875 481.296875 117.171875 C 501.984375 119.066406 522.339844 121.9375 542.640625 125.390625 Z M 626.945312 249.210938 C 613.957031 253.234375 600.921875 257.058594 587.921875 261.007812 C 579.984375 263.421875 578.648438 260.332031 578.328125 253.894531 C 576.863281 224.28125 572.65625 195.046875 565.441406 166.289062 C 562.480469 154.480469 558.746094 142.863281 555.363281 131.15625 C 569.242188 141.292969 579.375 154.371094 589.339844 167.566406 C 605.824219 189.386719 619.59375 212.871094 632.21875 237.105469 C 636 244.363281 634.460938 246.882812 626.945312 249.210938 Z M 639.65625 253.355469 C 647.066406 270.957031 654.441406 288.558594 659.691406 308.984375 C 633.472656 300.898438 609.136719 293.910156 584.039062 290.089844 C 581.855469 289.757812 580.5625 288.664062 579.785156 286.546875 C 575.714844 275.425781 580.082031 266.898438 591.707031 264.0625 C 605.234375 260.757812 618.480469 256.59375 631.515625 251.71875 C 634.484375 250.609375 637.632812 248.558594 639.65625 253.355469 Z M 574.898438 317.855469 C 572.339844 364.425781 565.289062 410.21875 554.003906 455.421875 C 552.1875 462.703125 546.902344 464.078125 541.464844 463.71875 C 535.527344 463.324219 537.765625 457.480469 537.769531 454.058594 C 537.875 399.867188 531.449219 346.425781 519.925781 293.53125 C 518.714844 287.964844 519.0625 284.054688 527.007812 285.476562 C 541.304688 288.03125 555.75 289.742188 570.144531 291.726562 C 574.589844 292.335938 575.078125 295.171875 574.957031 298.910156 C 574.75 305.21875 574.898438 311.539062 574.898438 317.855469 Z M 543.460938 476.546875 C 541.253906 475.828125 537.355469 477.121094 538.003906 472.804688 C 538.703125 468.128906 542.6875 467.882812 546.378906 467.710938 C 548.648438 467.601562 550.320312 468.316406 549.660156 471.304688 C 548.445312 473.898438 548.550781 478.210938 543.460938 476.546875 Z M 545.496094 485.457031 C 543.523438 490.960938 541.617188 496.488281 539.679688 502.007812 C 539.015625 501.964844 538.347656 501.925781 537.679688 501.882812 C 537.679688 495.957031 537.683594 490.03125 537.679688 484.109375 C 537.679688 481.011719 539.085938 480.078125 542.074219 480.949219 C 544.453125 481.640625 546.695312 482.109375 545.496094 485.457031 Z M 405.507812 463.898438 C 398.441406 464.101562 399.523438 459.054688 399.789062 454.9375 C 401.488281 428.359375 401.847656 401.746094 403.671875 375.125 C 403.671875 348.511719 403.824219 321.894531 403.554688 295.285156 C 403.496094 289.375 405.070312 287.542969 411.269531 287.125 C 436.460938 285.421875 461.796875 285.582031 486.84375 281.785156 C 488.148438 281.589844 489.5 281.710938 490.832031 281.691406 C 511.414062 281.390625 512.808594 282.171875 517.019531 302.03125 C 523.683594 333.445312 527.535156 365.238281 530.550781 397.226562 C 532.394531 416.789062 531.011719 436.480469 534.050781 455.902344 C 535.246094 463.542969 531.53125 465.210938 524.761719 466.300781 C 484.820312 472.75 445.285156 462.75 405.507812 463.898438 Z M 458.203125 470.195312 C 440.679688 472.722656 423.238281 474.972656 405.617188 474.105469 C 403.222656 473.988281 399.738281 475.070312 399.867188 470.738281 C 399.96875 467.320312 402.792969 467.59375 405.011719 467.691406 C 422.746094 468.472656 440.472656 469.347656 458.203125 470.195312 Z M 396.238281 455.652344 C 396.359375 461.808594 393.980469 463.773438 387.933594 463.457031 C 378.304688 462.949219 368.613281 462.742188 358.996094 463.273438 C 352.074219 463.65625 349.71875 461.675781 349.824219 454.484375 C 350.207031 427.847656 353.871094 321.320312 353.609375 294.671875 C 353.550781 288.9375 355.4375 287.144531 361.050781 287.390625 C 370.359375 287.800781 379.734375 288.078125 389.007812 287.402344 C 397.242188 286.804688 400.027344 289.273438 399.644531 297.832031 C 397.734375 340.421875 399.171875 383.09375 396.671875 425.683594 C 396.085938 435.648438 396.046875 445.667969 396.238281 455.652344 Z M 337.246094 464.003906 C 308 464.945312 278.773438 466.542969 249.558594 468.238281 C 239.328125 468.832031 235.5625 464.574219 233.457031 454.535156 C 223.015625 404.722656 218.464844 354.296875 215.902344 303.609375 C 214.945312 284.691406 215.289062 285.902344 233.890625 283.308594 C 253 280.644531 271.683594 282.925781 290.542969 283.921875 C 306.308594 284.753906 325.402344 286.332031 341.757812 287.117188 C 344.347656 287.238281 346.378906 289.378906 346.378906 291.972656 L 346.375 453.863281 C 346.472656 460.859375 345.070312 463.753906 337.246094 464.003906 Z M 340.503906 474.085938 C 323.789062 473.375 307.082031 472.53125 290.375 471.730469 C 290.375 471.140625 290.378906 470.554688 290.378906 469.964844 C 307.148438 469.195312 323.914062 468.382812 340.6875 467.699219 C 342.792969 467.613281 345.699219 467.015625 345.960938 470.484375 C 346.285156 474.714844 342.96875 474.191406 340.503906 474.085938 Z M 174.132812 470.238281 C 173.574219 466.933594 172.757812 462.496094 179.085938 463.492188 C 190.128906 465.222656 201.21875 466.679688 212.285156 468.265625 C 217.136719 468.960938 221.980469 469.695312 226.828125 470.410156 C 226.933594 471.015625 227.039062 471.617188 227.144531 472.222656 C 210.777344 475.355469 194.503906 479.332031 177.992188 481.195312 C 171.558594 481.921875 174.792969 474.15625 174.132812 470.238281 Z M 221.136719 464.976562 C 207.964844 461.972656 194.453125 460.246094 181 458.757812 C 174.425781 458.03125 173.746094 454.910156 174.421875 449.550781 C 175.167969 443.613281 175.351562 437.609375 175.78125 431.632812 C 177.257812 385.3125 184.503906 339.855469 195.660156 294.921875 C 197.425781 287.816406 201.691406 287 207.1875 287.34375 C 213.503906 287.738281 211.316406 293.261719 211.660156 296.542969 C 213.464844 313.730469 212.441406 331.015625 213.890625 348.316406 C 216.941406 384.660156 221.8125 420.652344 229.359375 456.28125 C 231.089844 464.460938 230.601562 467.132812 221.136719 464.976562 Z M 208.375 269.980469 C 204.570312 269.53125 203.160156 267.605469 204.488281 263.898438 C 206.433594 258.472656 208.371094 253.046875 210.3125 247.621094 C 210.964844 247.796875 211.617188 247.972656 212.269531 248.148438 C 212.269531 253.71875 212.308594 259.289062 212.253906 264.859375 C 212.226562 267.457031 212.601562 270.476562 208.375 269.980469 Z M 205.871094 273.660156 C 208.746094 273.953125 211.179688 274.46875 211.0625 278.085938 C 210.914062 282.617188 207.601562 282.203125 204.625 282.203125 C 202.386719 282.203125 199.46875 282.753906 200.109375 278.96875 C 200.632812 275.890625 201.824219 273.246094 205.871094 273.660156 Z M 344.117188 282.441406 C 326.246094 282.835938 308.5 281.050781 290.746094 278.675781 C 308.671875 278.535156 326.417969 276.417969 344.238281 275.761719 C 346.660156 275.671875 350.089844 274.914062 350.007812 279.132812 C 349.925781 283.25 346.574219 282.382812 344.117188 282.441406 Z M 390.914062 474.132812 C 384.613281 474.15625 378.308594 474.140625 372.007812 474.140625 C 372.007812 474.125 372.007812 474.113281 372.007812 474.097656 C 366.039062 474.097656 360.070312 474.140625 354.101562 474.074219 C 352.027344 474.050781 350.070312 473.578125 350.082031 470.859375 C 350.09375 468.164062 352.03125 467.628906 354.109375 467.621094 C 366.378906 467.578125 378.648438 467.585938 390.917969 467.632812 C 392.988281 467.636719 395.023438 468.066406 394.929688 470.792969 C 394.847656 473.28125 393.136719 474.125 390.914062 474.132812 Z M 394.414062 486.4375 C 392.617188 517.96875 391.117188 549.519531 389.304688 581.050781 C 388.5625 593.988281 387.058594 606.878906 386.375 619.820312 C 386.128906 624.421875 384.898438 626.539062 380.054688 626.144531 C 376.417969 625.847656 372.738281 626.09375 369.078125 626.09375 C 352.269531 626.097656 352.066406 626.097656 351.855469 608.804688 C 351.617188 589.515625 350.011719 509.007812 349.714844 488.054688 C 349.625 481.910156 350.894531 478.964844 357.855469 479.371094 C 367.804688 479.949219 377.816406 479.796875 387.785156 479.476562 C 393.136719 479.304688 394.707031 481.304688 394.414062 486.4375 Z M 358.894531 275.753906 C 365.195312 275.722656 371.5 275.742188 377.800781 275.742188 C 377.800781 275.730469 377.800781 275.71875 377.800781 275.703125 C 383.109375 275.703125 388.417969 275.617188 393.722656 275.746094 C 396.183594 275.804688 399.472656 275.0625 399.367188 279.28125 C 399.289062 282.445312 396.878906 282.792969 394.480469 282.96875 C 382.542969 283.84375 370.609375 283.613281 358.6875 282.730469 C 356.703125 282.585938 354.601562 282.332031 354.433594 279.640625 C 354.230469 276.449219 356.339844 275.765625 358.894531 275.753906 Z M 403.980469 278.707031 C 404.3125 275.222656 407.175781 275.679688 409.28125 275.980469 C 424.363281 278.132812 439.589844 277.523438 454.65625 278.761719 C 439.625 283.289062 424.363281 281.804688 409.261719 282.566406 C 406.644531 282.699219 403.589844 282.800781 403.980469 278.707031 Z M 574.894531 286.097656 C 574.351562 289.484375 571.203125 287.042969 569.125 286.738281 C 552.542969 284.273438 535.953125 281.851562 516.9375 279.0625 C 535.800781 275.621094 552.28125 272.570312 568.785156 269.652344 C 570.878906 269.28125 574.15625 268.105469 574.625 271.328125 C 575.328125 276.183594 575.664062 281.296875 574.894531 286.097656 Z M 509.910156 267.84375 C 511.304688 273.296875 509.34375 276.148438 503.570312 276.113281 C 499.578125 276.089844 495.582031 276.109375 491.589844 276.109375 C 464.378906 274.882812 437.265625 271.453125 409.960938 272.253906 C 405.207031 272.390625 403.5625 270.652344 403.640625 265.921875 C 404.382812 220.960938 402.382812 176.039062 401.363281 131.105469 C 401.234375 125.339844 403.289062 123.878906 408.773438 123.601562 C 422.363281 122.910156 435.953125 121.757812 449.464844 120.15625 C 453.992188 119.621094 456.0625 121.027344 457.9375 124.710938 C 481.171875 170.28125 497.265625 218.433594 509.910156 267.84375 Z M 406.28125 120.117188 C 403.371094 120.546875 400.929688 119.921875 400.785156 116.191406 C 400.628906 112.253906 403.292969 112 406.101562 112.140625 C 420.226562 112.847656 434.347656 113.621094 448.46875 114.367188 C 434.726562 119.457031 420.289062 118.0625 406.28125 120.117188 Z M 444.136719 110.164062 C 430.523438 109.59375 416.921875 108.84375 403.320312 108.152344 C 400.886719 108.027344 399.914062 106.597656 399.761719 104.292969 C 398.394531 83.839844 396.996094 63.390625 395.460938 40.773438 C 417.878906 60.210938 433.375 81.929688 446.765625 105.359375 C 448.894531 109.082031 447.699219 110.3125 444.136719 110.164062 Z M 391.996094 120.234375 C 387.699219 120.230469 383.398438 120.234375 379.101562 120.234375 C 379.101562 120.257812 379.101562 120.277344 379.101562 120.300781 C 375.796875 120.300781 372.484375 120.402344 369.183594 120.265625 C 367 120.171875 364.136719 120.5625 364.558594 116.894531 C 364.824219 114.589844 365.164062 111.9375 368.257812 111.90625 C 376.515625 111.820312 384.777344 111.890625 393.039062 112.035156 C 395.578125 112.078125 396.0625 113.992188 396.1875 116.171875 C 396.371094 119.257812 394.710938 120.234375 391.996094 120.234375 Z M 371.875 124.539062 C 372.851562 124.695312 373.867188 124.640625 374.867188 124.648438 C 397.300781 124.835938 397.507812 124.832031 397.949219 148.015625 C 398.289062 165.65625 399.5 242.921875 399.882812 263.894531 C 400.011719 270.992188 397.003906 272.175781 390.878906 271.804688 C 381.257812 271.226562 371.585938 271.058594 361.953125 271.335938 C 356.515625 271.496094 355.015625 269.503906 355.273438 264.382812 C 356.378906 242.445312 356.917969 220.472656 358.261719 198.546875 C 359.628906 176.304688 361.945312 154.121094 363.304688 131.875 C 363.691406 125.546875 366.109375 123.625 371.875 124.539062 Z M 353.304688 120.183594 C 335.5625 119.007812 317.835938 117.644531 300.105469 116.34375 C 300.214844 115.585938 300.328125 114.824219 300.4375 114.0625 C 317.953125 113.292969 335.464844 112.4375 352.988281 111.847656 C 355.800781 111.753906 360.089844 110.125 360.21875 115.773438 C 360.34375 121.199219 356.398438 120.390625 353.304688 120.183594 Z M 352.316406 123.933594 C 356.894531 123.921875 359.550781 124.542969 359.136719 130.597656 C 356.066406 175.070312 353.351562 219.566406 350.703125 264.066406 C 350.40625 269.027344 349.683594 272.222656 343.574219 272.113281 C 314.949219 271.59375 286.4375 273.699219 262.695312 276.050781 C 245.554688 276.617188 233.578125 273.203125 221.347656 272.171875 C 214.242188 271.574219 216.914062 266.613281 216.605469 262.546875 C 213.0625 215.773438 238.871094 179.1875 258.203125 140.164062 C 267.050781 122.308594 277.433594 113.539062 298.765625 119.308594 C 315.96875 123.960938 334.316406 123.976562 352.316406 123.933594 Z M 222.824219 199.75 C 220.566406 188.441406 224.351562 177.582031 226.164062 166.761719 C 228.386719 153.488281 232.636719 140.570312 235.542969 127.390625 C 236.734375 121.972656 239.046875 119.453125 244.8125 119.523438 C 251.703125 119.609375 258.445312 116.5 267.082031 118.480469 C 250.085938 145.222656 235.949219 172.0625 222.824219 199.75 Z M 239.765625 99.976562 C 238.320312 103.21875 235.457031 102.652344 232.945312 101.640625 C 226.886719 99.199219 220.328125 97.796875 214.5625 93.210938 C 226.21875 84.09375 238.03125 75.882812 253.65625 68.117188 C 248.265625 80.511719 244.089844 90.277344 239.765625 99.976562 Z M 214.632812 98.585938 C 219.394531 100.890625 224.425781 102.628906 229.269531 104.773438 C 232.046875 106.003906 236.652344 105.582031 236.019531 110.472656 C 235.4375 115.011719 232.144531 116.945312 227.785156 117.652344 C 214.707031 119.769531 201.667969 122.148438 188.574219 124.175781 C 185.082031 124.714844 181.871094 127.480469 176.34375 124.828125 C 186.511719 116 195.929688 107.769531 205.417969 99.621094 C 208.175781 97.25 211.15625 96.90625 214.632812 98.585938 Z M 229.007812 121.792969 C 229.882812 121.703125 230.832031 122.320312 232.070312 122.707031 C 222.664062 154.933594 217.636719 187.742188 213.738281 220.917969 C 211.992188 235.746094 204.808594 249.9375 200.089844 264.414062 C 199.035156 267.648438 196.96875 267.871094 193.835938 267.230469 C 161.921875 260.707031 130.476562 252.804688 100.875 238.660156 C 95.472656 236.078125 94.484375 234.089844 97.496094 228.558594 C 115.855469 194.84375 138.566406 164.371094 164.746094 136.40625 C 166.292969 134.753906 168.246094 132.863281 170.308594 132.398438 C 189.714844 128.015625 209.183594 123.875 229.007812 121.792969 Z M 98.972656 216.15625 C 97 219.597656 95.203125 223.144531 93.085938 226.488281 C 91.726562 228.636719 91.789062 232.925781 87.148438 230.933594 C 83.289062 229.273438 82.710938 226.4375 83.808594 222.808594 C 86.101562 215.203125 88.246094 207.550781 90.707031 200.003906 C 92.449219 194.65625 95.148438 189.578125 96.484375 184.148438 C 104.238281 152.664062 126.335938 139.519531 157.929688 136.824219 C 134.632812 161.335938 115.320312 187.664062 98.972656 216.15625 Z M 84.289062 234.402344 C 86.265625 235.246094 88.507812 236.042969 86.664062 239.273438 C 84.019531 243.914062 82.679688 249.304688 78.644531 253.746094 C 76.34375 247.523438 79.9375 242.480469 80.238281 237.109375 C 80.355469 235 81.855469 233.363281 84.289062 234.402344 Z M 71.742188 327.910156 C 71.710938 323.902344 71.253906 320.058594 76.246094 318.136719 C 112.105469 304.339844 149.4375 296.363281 187.300781 289.742188 C 191.929688 289.183594 192.808594 291.328125 191.617188 295.644531 C 182.066406 330.273438 176.605469 365.652344 173.089844 401.324219 C 171.527344 417.1875 171.042969 433.171875 170.484375 449.113281 C 170.292969 454.542969 169.292969 457.035156 163.066406 455.703125 C 140.15625 450.804688 117.414062 445.332031 95.070312 438.21875 C 90.238281 436.679688 87.167969 434.429688 85.875 429.210938 C 77.636719 395.925781 72.019531 362.300781 71.742188 327.910156 Z M 164.355469 460.246094 C 172.160156 461.484375 170.46875 467.671875 170.191406 472.609375 C 169.933594 477.230469 172.898438 482.792969 164.359375 484.839844 C 148.617188 488.617188 133.214844 493.871094 117.796875 498.90625 C 114.082031 500.117188 111.5625 500.714844 109.761719 496.554688 C 102.179688 479.03125 95.117188 461.328125 89.839844 441.589844 C 115.167969 449.230469 139.390625 456.28125 164.355469 460.246094 Z M 132.449219 497.921875 C 141.914062 494.945312 151.582031 492.609375 161.042969 489.613281 C 167.628906 487.527344 170.628906 487.847656 171.144531 496.394531 C 173.277344 531.519531 178.363281 566.25 188.472656 600.082031 C 190.527344 606.964844 192.761719 613.792969 194.914062 620.644531 C 164.390625 591.742188 140.996094 558.527344 122.160156 522.09375 C 112.917969 504.214844 113.105469 504.003906 132.449219 497.921875 Z M 239.855469 483.363281 C 238.4375 477.878906 239.046875 475.769531 245.480469 474.488281 C 258.964844 471.804688 272.113281 474.945312 285.140625 476.128906 C 303.035156 477.753906 320.996094 476.71875 338.847656 478.96875 C 345.125 479.757812 346.402344 481.679688 346.335938 487.375 C 346.066406 509.324219 348.054688 596.449219 348.363281 618.050781 C 348.441406 623.714844 347.539062 626.273438 341.019531 626.546875 C 328.429688 627.078125 315.863281 628.542969 303.34375 630.078125 C 296.851562 630.875 293.265625 628.878906 290.214844 622.796875 C 267.886719 578.296875 252.261719 531.429688 239.855469 483.363281 Z M 343.808594 630.75 C 346.59375 630.578125 348.316406 631.335938 348.511719 634.367188 C 348.730469 637.742188 346.492188 638.179688 343.988281 638.066406 C 329.457031 637.417969 314.929688 636.710938 300.398438 636.023438 C 314.75 631.859375 329.308594 631.636719 343.808594 630.75 Z M 344.203125 642.0625 C 347.691406 642.066406 349.785156 643.605469 350.039062 647.339844 C 351.359375 666.863281 352.742188 686.382812 354.042969 705.90625 C 354.074219 706.371094 353.421875 706.878906 352.339844 708.457031 C 330.746094 689.28125 314.519531 666.464844 301.394531 642.050781 C 315.898438 642.050781 330.050781 642.039062 344.203125 642.0625 Z M 357.457031 630.085938 C 365.351562 629.917969 373.246094 629.867188 381.136719 629.828125 C 383.4375 629.816406 384.878906 630.910156 384.757812 633.402344 C 384.644531 635.804688 384.261719 638.167969 381.144531 638.25 C 377.199219 638.355469 373.25 638.277344 369.300781 638.277344 C 369.300781 638.246094 369.300781 638.210938 369.300781 638.179688 C 365.683594 638.179688 362.0625 638.203125 358.445312 638.171875 C 356.054688 638.152344 353.746094 637.996094 353.648438 634.707031 C 353.566406 632.003906 354.589844 630.148438 357.457031 630.085938 Z M 387.625 648.65625 C 387.980469 644.335938 389.769531 642.957031 393.757812 642.800781 C 418.914062 641.804688 444.0625 640.691406 471.941406 639.5 C 446.699219 673.625 419.847656 701.957031 383.867188 720.429688 C 382.222656 721.277344 380.28125 723.121094 378.636719 721.234375 C 377.847656 720.328125 378.253906 718.113281 378.550781 716.578125 C 382.941406 694.117188 385.765625 671.445312 387.625 648.65625 Z M 389.621094 634.347656 C 389.8125 629.925781 392.867188 629.941406 395.941406 630.175781 C 408.835938 631.144531 421.71875 632.210938 434.605469 633.21875 C 438.527344 633.523438 442.449219 633.757812 446.375 634.023438 C 429.371094 638.660156 412.152344 638.070312 394.984375 638.210938 C 392.363281 638.230469 389.441406 638.5 389.621094 634.347656 Z M 468.503906 633.316406 C 445.609375 629.015625 422.382812 627.027344 399.136719 626.390625 C 390.53125 626.15625 390.117188 623.496094 390.703125 615.980469 C 393.488281 580.171875 395.457031 544.300781 397.675781 508.449219 C 397.902344 504.796875 397.765625 501.125 397.9375 497.46875 C 398.761719 480.085938 398.828125 480.636719 415.65625 479.128906 C 440.800781 476.882812 466.054688 476.914062 491.21875 474.316406 C 503.425781 473.054688 516.175781 476.90625 528.664062 478.578125 C 532.515625 479.09375 532.898438 481.851562 532.726562 485.25 C 532.4375 490.890625 532.648438 496.558594 532.648438 502.214844 C 534.417969 517.691406 529.613281 531.625 523.519531 545.550781 C 510.980469 574.207031 496.988281 602.035156 479.820312 628.234375 C 476.929688 632.644531 474.222656 634.390625 468.503906 633.316406 Z M 527.066406 550.128906 C 529.140625 561.523438 525.308594 572.410156 523.574219 583.304688 C 521.566406 595.949219 517.175781 608.199219 514.710938 620.792969 C 513.328125 627.863281 510.027344 631.015625 503.046875 631.394531 C 496.445312 631.75 489.871094 632.671875 481.460938 633.535156 C 499.289062 606.027344 513.664062 578.480469 527.066406 550.128906 Z M 518.714844 649.511719 C 523.96875 652.039062 532.714844 652.34375 533.664062 657.246094 C 534.480469 661.46875 526.015625 664.339844 521.460938 667.453125 C 513.679688 672.777344 505.484375 677.492188 497.464844 682.460938 C 497.085938 681.917969 496.707031 681.375 496.328125 680.832031 C 500.367188 671.785156 504.796875 662.886719 508.296875 653.636719 C 510.53125 647.730469 513.554688 647.035156 518.714844 649.511719 Z M 520.15625 645.699219 C 517.554688 644.460938 512.894531 645.019531 513.734375 639.855469 C 514.488281 635.183594 517.375 633.804688 521.933594 633.101562 C 538.910156 630.480469 555.792969 627.28125 572.710938 624.300781 C 573.085938 624.78125 573.464844 625.265625 573.84375 625.746094 C 563.53125 634.507812 553.1875 643.230469 542.9375 652.058594 C 540.421875 654.226562 538.269531 653.398438 535.699219 652.234375 C 530.582031 649.910156 525.222656 648.113281 520.15625 645.699219 Z M 517.390625 629.007812 C 527.089844 594.785156 532.238281 561.316406 536.234375 527.503906 C 537.867188 513.667969 545.015625 500.515625 549.320312 486.949219 C 550.847656 482.136719 554.246094 483.054688 557.304688 483.664062 C 588.910156 489.949219 619.921875 498.15625 649.25 511.933594 C 654.527344 514.410156 654.929688 517.050781 652.257812 521.933594 C 633.863281 555.589844 611.464844 586.277344 584.996094 614.011719 C 583.1875 615.90625 581.449219 617.65625 578.554688 618.304688 C 558.871094 622.71875 539.15625 626.886719 517.390625 629.007812 Z M 638.664062 553.539062 C 644.785156 543.695312 650.523438 533.613281 656.476562 523.664062 C 657.90625 521.273438 658.609375 517.582031 662.902344 519.773438 C 666.152344 521.429688 666.832031 524.144531 665.976562 527.328125 C 659.410156 551.769531 650.496094 575.285156 638.214844 597.472656 C 637.011719 599.644531 635.242188 601.070312 633.03125 601.890625 C 620.363281 606.574219 607.667969 611.195312 593.773438 613.199219 C 609.777344 593.867188 625.53125 574.683594 638.664062 553.539062 Z M 665.371094 516.207031 C 663.144531 515.257812 661.417969 514.058594 663.042969 511.019531 C 665.601562 506.230469 667.820312 501.261719 671.277344 494.097656 C 672.820312 502.664062 670.007812 507.84375 669.382812 513.3125 C 669.183594 515.050781 668.074219 517.355469 665.371094 516.207031 Z M 659.523438 507.679688 C 657.773438 511.285156 655.394531 510.621094 652.265625 509.078125 C 622.871094 494.617188 591.539062 486.269531 559.566406 479.925781 C 556.703125 479.359375 552.285156 479.671875 553.328125 474.351562 C 554.011719 470.855469 553.730469 466.511719 558.535156 465.820312 C 599.097656 459.953125 638.734375 450.351562 677.289062 436.117188 C 681.347656 462.929688 670.394531 485.296875 659.523438 507.679688 Z M 665.246094 435.640625 C 633.316406 446.632812 600.496094 453.851562 567.40625 460.015625 C 556.804688 461.992188 556.640625 461.460938 559.269531 451.011719 C 571.480469 402.496094 577.59375 353.136719 579.191406 303.207031 C 579.410156 296.3125 579.980469 293.617188 588.3125 295.339844 C 610.953125 300.027344 633.289062 305.621094 655.316406 312.644531 C 660.085938 314.167969 662.519531 316.660156 663.695312 321.195312 C 671.832031 352.484375 676.398438 384.308594 678.226562 418.640625 C 681.347656 428.03125 675 432.28125 665.246094 435.640625 Z M 705.625 336.566406 C 725.398438 343.816406 738.472656 361.367188 738.121094 378.824219 C 737.9375 387.929688 732.820312 394.207031 727.066406 400.277344 C 718.347656 409.476562 707.894531 416.121094 695.421875 422.1875 C 701.164062 393.160156 706.546875 365.347656 705.625 336.566406 Z M 691.183594 209.480469 C 716.792969 253.757812 732.074219 300.503906 735.53125 351.183594 C 726.828125 343.773438 718.429688 336.832031 708.96875 331.378906 C 705.195312 329.203125 705.527344 326.128906 705.582031 322.855469 C 706.160156 288.054688 699.632812 254.382812 689.523438 221.273438 C 688.019531 216.347656 688.09375 216.324219 691.183594 209.480469 Z M 700.113281 301.339844 C 700.488281 307.304688 700.929688 313.265625 701.253906 317.980469 C 702.820312 325.882812 700.34375 327.078125 694.832031 323.785156 C 694.546875 323.613281 694.265625 323.398438 693.953125 323.316406 C 672.136719 317.484375 658.714844 304.46875 655.035156 281.265625 C 653.617188 272.332031 648.894531 263.785156 644.875 255.445312 C 642.148438 249.789062 642.4375 246.914062 648.734375 244.289062 C 659.769531 239.691406 669.988281 233.410156 678.859375 225.308594 C 683.226562 221.316406 684.710938 221.644531 686.480469 227.5625 C 693.691406 251.691406 698.535156 276.199219 700.113281 301.339844 Z M 686.386719 193.238281 C 681.902344 186.734375 677.421875 180.226562 672.9375 173.722656 C 681.199219 177.628906 685.621094 184.203125 686.386719 193.238281 Z M 651.21875 138.113281 C 656.980469 145.339844 662.746094 152.566406 668.507812 159.796875 C 657.230469 156.9375 656.113281 146.03125 648.378906 140.367188 C 649.324219 139.617188 650.273438 138.863281 651.21875 138.113281 Z M 662.347656 169.550781 C 668.847656 182.578125 675.121094 195.664062 680.40625 209.257812 C 682.300781 214.128906 681.761719 217.222656 678.117188 220.625 C 668.265625 229.816406 656.644531 236.117188 644.660156 241.933594 C 638.765625 244.796875 637.960938 239.933594 636.34375 236.636719 C 622.699219 208.8125 606.472656 182.59375 587.402344 158.175781 C 580.28125 149.0625 572.71875 140.296875 563.792969 129.472656 C 594.292969 135.996094 621.617188 143.550781 647.59375 155.59375 C 654.222656 158.667969 659.050781 162.9375 662.347656 169.550781 Z M 638.835938 140.171875 C 641.289062 142.714844 643.5625 145.4375 645.917969 148.078125 C 621.160156 139.546875 596.652344 131.554688 571.378906 127.050781 C 556.210938 124.347656 548.304688 115.988281 542.816406 102.953125 C 541.011719 98.667969 541.308594 96.3125 545.394531 94.132812 C 548.007812 92.742188 551.25 91.242188 552.542969 88.878906 C 560.121094 75.039062 567.933594 82.402344 576.207031 87.941406 C 598.933594 103.152344 619.851562 120.496094 638.835938 140.171875 Z M 562.207031 64.710938 C 579.390625 71.164062 619.710938 105.988281 629.976562 123.503906 C 626.683594 123.445312 625.324219 121.0625 623.617188 119.539062 C 606.515625 104.269531 588.453125 90.253906 568.769531 78.492188 C 563.066406 75.085938 560.832031 71.039062 562.207031 64.710938 Z M 557.484375 69.769531 C 536.402344 57.007812 510.480469 53.402344 492.582031 34.773438 C 516.609375 42.078125 542.96875 45.015625 557.484375 69.769531 Z M 487.3125 39.039062 C 470.878906 35.28125 454.886719 30.621094 438.71875 26.597656 C 455.578125 28.324219 473.476562 25.734375 487.3125 39.039062 Z M 499.070312 49.539062 C 512.078125 55.441406 518.714844 69.902344 526.4375 81.902344 C 529.15625 86.128906 535.59375 92.515625 532.476562 95.105469 C 527.21875 99.472656 523.027344 91.554688 518.972656 88.390625 C 488.050781 64.265625 454.59375 44.855469 417.351562 32.21875 C 414.914062 31.394531 412.558594 30.339844 410.164062 29.390625 C 441.085938 31.328125 471.199219 36.894531 499.070312 49.539062 Z M 525.628906 99.328125 C 502.894531 106.34375 482.621094 115.160156 459.699219 110.828125 C 455.902344 110.113281 453.71875 108.3125 452.070312 105.367188 C 436.894531 78.246094 419.011719 53.300781 394.65625 33.511719 C 394.078125 33.039062 394.191406 31.714844 393.695312 29.5 C 443.140625 42.164062 485.546875 66.097656 525.628906 99.328125 Z M 378.449219 28.738281 C 383.621094 29.566406 389.640625 32.917969 390.289062 40.285156 C 391.507812 54.121094 392.96875 67.9375 394.269531 81.765625 C 394.613281 85.394531 394.585938 89.058594 394.980469 92.679688 C 396.703125 108.324219 396.738281 108.320312 381.539062 108.085938 C 365.097656 107.828125 365.089844 107.828125 367.222656 91.476562 C 369.535156 73.773438 371.570312 56.023438 374.445312 38.410156 C 374.984375 35.113281 374.039062 28.03125 378.449219 28.738281 Z M 362.128906 101.734375 C 361.734375 107.871094 358.003906 108.339844 353.265625 108.230469 C 328.65625 107.671875 304.164062 109.894531 277.539062 111.671875 C 302.929688 75.945312 331.796875 46.535156 372.285156 26.746094 C 367.445312 53.085938 363.691406 77.277344 362.128906 101.734375 Z M 354.484375 30.242188 C 344.179688 38.03125 334.511719 44.867188 325.378906 52.351562 C 307.238281 67.21875 291.621094 84.582031 278.207031 103.734375 C 273.457031 110.515625 268.640625 111.347656 261.425781 109.507812 C 242.328125 104.644531 242.726562 105.019531 250.082031 86.699219 C 257.257812 68.835938 268.714844 56.789062 287.367188 50.082031 C 307.855469 42.714844 328.308594 35.472656 349.375 29.992188 C 350.574219 29.679688 351.964844 30.09375 354.484375 30.242188 Z M 296.660156 31.636719 C 308.109375 30.511719 319.328125 27.113281 331.011719 28.546875 C 313.558594 35.714844 295.285156 40.015625 279.113281 49.65625 C 277.984375 50.332031 275.464844 50.191406 274.558594 49.367188 C 273.066406 48.011719 274.675781 46.375 275.703125 45.203125 C 281.390625 38.714844 287.054688 32.578125 296.660156 31.636719 Z M 277.644531 30.683594 C 252.039062 37.992188 227.054688 47.046875 202.550781 57.3125 C 224.882812 40.46875 250.753906 34.097656 277.644531 30.683594 Z M 200.507812 64.359375 C 223.730469 53.070312 247.578125 43.625 273.269531 38.277344 C 267.285156 48.382812 261.769531 58.121094 250.546875 63.632812 C 237.832031 69.878906 226.085938 78.058594 214.707031 86.625 C 208.257812 91.480469 201.101562 88.5 195.105469 78.941406 C 190.5 71.601562 193.550781 67.742188 200.507812 64.359375 Z M 187.570312 72.003906 C 189.804688 79.527344 194.019531 85.761719 200.457031 90.238281 C 203.601562 92.429688 204.320312 93.929688 200.921875 96.851562 C 189.117188 107.011719 177.671875 117.585938 165.90625 127.792969 C 161.222656 131.851562 154.785156 131.65625 149.191406 133.507812 C 139.273438 136.792969 129.210938 139.628906 116.84375 143.367188 C 136.078125 113.109375 155.082031 86.308594 187.570312 72.003906 Z M 132.84375 110.738281 C 119.335938 126.851562 114.730469 151.664062 86.882812 156.054688 C 101.242188 138.222656 115.921875 123.359375 132.84375 110.738281 Z M 75.101562 172.066406 C 83.289062 164.363281 93.035156 158.699219 105.988281 153.875 C 94.691406 176.300781 86.371094 197.207031 80.546875 219.011719 C 78.886719 225.234375 76.738281 223.683594 73.265625 220.75 C 56.789062 206.816406 57.175781 188.941406 75.101562 172.066406 Z M 55.878906 201.054688 C 60.324219 212.933594 66.894531 221.3125 75.511719 228.101562 C 78.421875 230.390625 76.6875 233.828125 76.207031 236.582031 C 71.566406 263.238281 67.035156 289.929688 57.730469 315.492188 C 56.414062 319.113281 55.1875 322.410156 51.015625 324.53125 C 36.859375 331.730469 23.472656 340.179688 11.695312 355.171875 C 14.949219 299.296875 28.738281 249.488281 55.878906 201.054688 Z M 12.191406 369.050781 C 16.207031 346.988281 35.890625 339.195312 53.722656 327.960938 C 51.046875 343.800781 48.222656 357.617188 46.5 371.566406 C 44.804688 385.296875 44.226562 399.167969 43.007812 414.957031 C 24.953125 403.320312 7.972656 392.234375 12.191406 369.050781 Z M 59.160156 538.164062 C 55.90625 539.640625 55.550781 535.957031 54.609375 534.242188 C 31.332031 491.824219 16.90625 446.703125 12.695312 395.542969 C 21.488281 405.761719 29.574219 412.542969 38.785156 417.851562 C 42.523438 420.011719 43.398438 423.222656 43.464844 427.03125 C 44.082031 462.578125 49.832031 497.292969 60.472656 531.203125 C 61.289062 533.8125 62.195312 536.792969 59.160156 538.164062 Z M 63.445312 523.390625 C 56.3125 499.628906 51.046875 475.554688 49.972656 450.753906 C 49.601562 442.15625 46.347656 433.75 48.460938 424.398438 C 59.542969 429.042969 69.8125 433.460938 80.183594 437.621094 C 83.667969 439.019531 85.324219 441.511719 86.296875 444.863281 C 91.394531 462.382812 97.660156 479.5 105.175781 496.105469 C 107.519531 501.285156 106.671875 503.710938 101.605469 505.894531 C 90.285156 510.78125 79.679688 516.960938 70.46875 525.277344 C 67 528.40625 65.285156 529.511719 63.445312 523.390625 Z M 89.226562 584.105469 C 81.066406 570.140625 75.011719 555.207031 68.984375 540.246094 C 67.320312 536.117188 68.144531 533.316406 71.035156 530.46875 C 80.898438 520.753906 92.871094 514.371094 105.238281 508.558594 C 111.363281 505.675781 111.855469 511.078125 113.410156 514.214844 C 128.058594 543.769531 145.460938 571.5625 166.128906 597.285156 C 171.902344 604.472656 177.90625 611.480469 185.785156 620.957031 C 152.945312 614.007812 123.757812 605.882812 96.355469 592.066406 C 92.757812 590.25 91.035156 587.199219 89.226562 584.105469 Z M 104.804688 602.253906 C 124.585938 608.839844 144.140625 615.757812 164.40625 620.367188 C 168.921875 621.390625 173.375 623.070312 177.9375 623.441406 C 193.722656 624.730469 201.722656 634.621094 207.066406 648.179688 C 208.410156 651.585938 208.75 654.683594 205.304688 655.496094 C 196.417969 657.59375 193.59375 673.972656 183.980469 668.585938 C 153.734375 651.632812 127.59375 629.0625 104.804688 602.253906 Z M 187.257812 686.769531 C 159.761719 670.523438 137.234375 649.738281 116.925781 625.144531 C 120.46875 624.480469 121.597656 626.871094 123.03125 628.1875 C 140.882812 644.617188 159.980469 659.429688 180.757812 671.953125 C 186.363281 675.332031 188.425781 679.511719 187.257812 686.769531 Z M 191.601562 677.808594 C 213.066406 693.707031 238.855469 696.871094 257.6875 714.570312 C 237.65625 716.707031 195.824219 694.664062 191.601562 677.808594 Z M 259.410156 710.003906 C 277.054688 714.613281 292.507812 718.648438 307.960938 722.6875 C 291.660156 721.984375 274.585938 724.300781 259.410156 710.003906 Z M 265.40625 707.070312 C 239.246094 700.140625 229.945312 677.851562 217.089844 658.457031 C 216.332031 657.3125 215.820312 656 216.828125 654.828125 C 218.117188 653.328125 219.757812 653.527344 221.316406 654.460938 C 222.167969 654.972656 222.972656 655.578125 223.734375 656.21875 C 257.625 684.6875 295.453125 706.222656 337.273438 721.296875 C 312.589844 719.933594 289.097656 713.34375 265.40625 707.070312 Z M 326.894531 711.992188 C 291.601562 699.136719 259.84375 680.113281 230.582031 656.664062 C 224.753906 651.996094 225.703125 649.917969 232.085938 648.167969 C 250.550781 643.109375 268.6875 636.050781 288.507812 639.453125 C 291.515625 639.96875 294.421875 639.835938 296.132812 642.96875 C 311.546875 671.183594 330.875 696.316406 355.011719 717.664062 C 355.375 717.988281 355.234375 718.886719 355.421875 720.113281 C 345.21875 719.378906 336.109375 715.351562 326.894531 711.992188 Z M 370.9375 721.472656 C 366.367188 720.9375 360.832031 718.125 359.9375 712.910156 C 356.226562 691.292969 355.40625 669.355469 353.746094 647.519531 C 353.4375 643.4375 355.792969 642.445312 359.34375 642.601562 C 362.660156 642.746094 365.984375 642.632812 369.304688 642.632812 C 383.789062 643.445312 383.796875 643.445312 382.453125 658.578125 C 380.8125 677.078125 378.605469 695.507812 374.691406 713.675781 C 374.078125 716.527344 375.5625 722.015625 370.9375 721.472656 Z M 378.257812 739.828125 C 376.472656 739.855469 373.125 741.351562 373.417969 737.195312 C 373.65625 733.796875 375.714844 732.722656 378.867188 733.3125 C 382.375 733.96875 385.761719 734.921875 389.609375 737.925781 C 385.382812 740.578125 381.710938 739.78125 378.257812 739.828125 Z M 474.519531 642.964844 C 477.476562 638.875 480.664062 637.320312 485.214844 640.425781 C 485.996094 640.957031 487.09375 641.058594 488.058594 641.289062 C 507.261719 645.839844 506.867188 645.675781 499.539062 663.546875 C 492.582031 680.507812 482.394531 693.039062 464.289062 699.605469 C 442.324219 707.566406 420.769531 716.46875 397.328125 719.285156 C 428.347656 698.707031 453.132812 672.554688 474.519531 642.964844 Z M 413 723.507812 C 434.304688 716.253906 455.5 708.730469 476.300781 700.085938 C 461.675781 726.359375 435.25 718.953125 413 723.507812 Z M 474.660156 719.183594 C 498.578125 711.894531 522.117188 703.519531 545.3125 694.152344 C 524.351562 709.894531 500.042969 716.066406 474.660156 719.183594 Z M 549.875 685.78125 C 525.777344 697.558594 500.996094 707.320312 473.980469 713.859375 C 482.8125 698.957031 493.640625 688.558594 508.066406 681.351562 C 517.742188 676.515625 526.3125 669.460938 535.355469 663.367188 C 541.550781 659.191406 549.238281 662.601562 554.636719 671.773438 C 558.550781 678.414062 556.824219 682.382812 549.875 685.78125 Z M 583.835938 665.820312 C 580.808594 667.859375 577.5625 669.601562 574.660156 671.796875 C 567.285156 677.371094 561.265625 679.921875 556.574219 668.328125 C 554.761719 663.84375 549.386719 660.804688 545.898438 657.367188 C 568.90625 631.769531 595.164062 612.230469 630.03125 609.167969 C 625.96875 622.199219 599.082031 655.558594 583.835938 665.820312 Z M 616.203125 639.816406 C 630.183594 623.75 635.066406 598.789062 660.5625 594.648438 C 657.308594 603.292969 631.808594 630.179688 616.203125 639.816406 Z M 683.476562 566.585938 C 674.742188 581.5 660.820312 588.960938 645.585938 595.1875 C 655.113281 573.828125 663.480469 552.578125 669.371094 530.417969 C 670.457031 526.332031 671.839844 526.648438 674.746094 528.496094 C 688.28125 537.101562 691.519531 552.847656 683.476562 566.585938 Z M 675.984375 524.117188 C 672.945312 521.707031 672.546875 519.421875 673.140625 515.636719 C 677.503906 487.898438 683.066406 460.464844 692.152344 433.839844 C 693.183594 430.808594 694.246094 427.988281 697.761719 426.3125 C 712.480469 419.300781 725.742188 410.164062 738.28125 395.230469 C 734.335938 451.511719 720.769531 501.660156 693.332031 550.207031 C 689.867188 538.074219 683.84375 530.351562 675.984375 524.117188 Z M 675.984375 524.117188 " fill-opacity="1" fill-rule="nonzero"/></g></svg>